<?xml version="1.0" encoding="UTF-8" standalone="no"?>
<!-- Created with Inkscape (http://www.inkscape.org/) -->
<svg id="svg4283" xmlns:rdf="http://www.w3.org/1999/02/22-rdf-syntax-ns#" xmlns="http://www.w3.org/2000/svg" height="80" width="80" version="1.1" xmlns:cc="http://creativecommons.org/ns#" xmlns:xlink="http://www.w3.org/1999/xlink" xmlns:dc="http://purl.org/dc/elements/1.1/">
 <defs id="defs4285">
  <radialGradient id="radialGradient5103" gradientUnits="userSpaceOnUse" cx="271.95" cy="227.66" r="153.54" gradientTransform="matrix(0.63474992,-0.23248519,0.04774994,0.65697046,433.89311,587.38202)">
   <stop id="stop3159" stop-color="#FFF" offset="0"/>
   <stop id="stop3161" stop-color="#b1e848" offset="1"/>
  </radialGradient>
 </defs>
 <metadata id="metadata4288">
  <rdf:RDF>
   <cc:Work rdf:about="">
    <dc:format>image/svg+xml</dc:format>
    <dc:type rdf:resource="http://purl.org/dc/dcmitype/StillImage"/>
    <dc:title/>
   </cc:Work>
  </rdf:RDF>
 </metadata>
 <g id="layer1" transform="translate(-577.15625,-595.21875)">
  <rect id="rect3165" stroke-linejoin="round" stroke-dasharray="none" stroke-dashoffset="0" rx="16.432" ry="17.658" height="77.99" width="77.99" stroke="#577d10" stroke-linecap="round" stroke-miterlimit="4" y="596.22" x="578.15" stroke-width="2.01" fill="#e6f8c8"/>
  <path id="path3155" d="m653.46,622.7c-33.208,0.42532-53.609,3.3272-72.956,24.567v11.465c0,4.7241,6.4616,12.899,13.45,12.638l47.18-0.21321c4.9352,0.15584,12.206-6.4338,12.224-12.741z" fill-rule="evenodd" fill="url(#radialGradient5103)"/>
  <rect id="rect3196" stroke-linejoin="round" stroke-dasharray="none" stroke-dashoffset="0" rx="14.378" ry="15.892" height="73.998" width="73.998" stroke="#FFF" stroke-linecap="round" stroke-miterlimit="4" y="598.22" x="580.14" stroke-width="2.0017" fill="none"/>
  <g id="g3126" transform="matrix(0.14025438,0,0,0.14025438,467.24787,568.18735)">
   <path id="path3074" fill="#8ca255" d="m1034,686.91c-20.224-28.919-49.389-51.088-81.885-64.546-20.265,21.834-62.538,11.561-56.85-21.593-9.8781-28.849-33.213-50.983-59.577-65.092-22.882-18.803-13.802-55.175,6.2636-72.481,21.222-24.553,52.146-45.701,55.168-80.857,6.3849-31.999,46.637-34.431,58.978-61.826,10.029-20.723,36.144-62.237,61.013-38.336,4.8307,15.593,5.4104-17.682,19.607-12.576,29.389-5.3188,48.462,23.156,75.589,28.092,29.226,4.2152,60.633,8.6749,82.713,30.556,24.777,12.294,35.218,41.112,59.097,54.482,23.867,4.765,45.09,23.313,46.625,48.763,3.034,20.983,12.73,40.59,14.78,61.565-0.3193,25.87-20.404,45.696-39.962,59.951-15.741,22.971-26.19,52.524-54.41,62.9-23.756,17.541-54.426,28.954-84.031,21.689-31.263-5.8262-47.741,24.883-69.387,39.758-10.371,5.58-21.961,8.9353-33.732,9.5504zm-123.55-106.37z"/>
   <path id="path3072" fill="#6b8c2c" d="m1027.1,675.2c-19.198-5.0542,4.9867-45.729-25.157-32.88-24.553-8.4766-50.083-36.771-75.997-14.845-24.077,3.877-38.801-29.838-29.165-48.893-29.468-2.8633-29.119-40.778-53.154-50.52-29.85-18.334-13.4-51.452,7.5769-68.608,12.883-20.227,46.633-23.004,43.411-51.22,1.7187-22.436,6.5925-49.081,29.39-59.539,23.668-14.392,38.617-38.362,51.395-62.008,15.51-20.968,43.261-7.1411,51.785,7.4371,5.3491-11.637,10.912-27.639,23.003-10.122,23.842,9.4287,50.559,3.5114,74.912,11.791,30.732,6.3841,61.116,18.909,83.922,41.022,26.304,10.015,26.916,42.329,40.23,60.163,13.075-13.713,35.798-14.424,38.435,8.9101,5.3839,17.395-26.436,20.121-3.198,29.036,20.796,14.428,31.324,41.545,28.468,66.253-2.6458,23.705-28.628,31.034-39.34,50.117-16.398,23.478-31.379,49.474-57.574,63.475-24.92,16.476-56.14,24.138-85.435,16.949-28.262,1.5635-46.356,25.779-65.589,43.326-11.69,5.5962-26.451,7.2084-37.918,0.15487zm47.705-36.713zm-68.214-6.8048zm-73.807-15.674zm277.52-7.021zm-202.5-4.3zm89.526-7.0069zm-115.04-8.5488c-1.0021-16.697-22.695-8.4667-5.7783,1.5402,2.5187,4.6382,8.6439,4.9077,5.7783-1.5402zm28.514,4.9627zm217.27-15.477zm12.869-6.2459zm-322.64,0.11628zm243.26-4.4307zm-141.76,1.4307,2.1837,2.2972-2.1837-2.2972zm-92.988-2.5132zm84.988-0.37013zm216.36-1.7354zm-212.67-5.9515zm38.024-7.4412zm54.128-1.032c17.995,8.7368,4.4715-28.14-2.6248-6.8373-4.6807,2.8952-4.0417,12.948,2.6248,6.8373zm-67.342-1.9566zm-12.5-0.37756zm-157-7.1224c-0.70111-6.6554,2.1051,2.0621-0.8011,1.6338l0.8011-1.6338zm145.41,0.89522zm41.588-0.39522zm-63.75-5.7301c16.406-10.345-15.991-13.652-2.3445,1.1008l1.3351,0.004,1.0094-1.1046zm60.75-2.0699zm84.196,0.38126zm-178.8-4.0791zm84.564-7.2253c0.1958-9.7269-5.4559,2.5897-0.1943,0.26775l0.1943-0.26775zm157.91,0.7231c25.833-23.898,26.354-64.77,12.255-94.994-27.045,17.937,1.0568,53.277-15.332,76.675-2.6601,5.9174-4.0643,14.806,3.0775,18.32zm-182.53,1.4569zm152.3-2.9595c7.1142-19.303-16.068,3.4628-3.0714,1.6468l3.0714-1.6468zm-292.09-0.92594zm-41.059-0.57142zm15.5,0.60699zm33.435-2.5822zm222.26-2.1863c13.837-21.474-32.903-9.108-6.7093,1.6581,2.3014,0.54623,5.0428,0.19872,6.7093-1.6581zm-33.409-3.0924zm188.71-2.2204zm-290.5-0.52568c20.103-10.471-22.205-31.123-5.8246-7.1457l2.4752,3.9323,3.3494,3.2134zm90.343-3.5c4.7297-18.11-30.67-6.3367-5.7551,0.5726,1.6353,1.1252,4.6654,1.7679,5.7551-0.5726zm113.16,3.5zm-182-1.941zm182.29-2.309zm-53.704-7.8951zm-55.59-0.78979zm27-1.0651zm-105.13-1.342zm244.4-2.2558zm61.736-0.40223zm-204.18-2.2398zm192.46,0.28538zm-106.33-2.4412zm-53.015-2.0154-3.8102-1.1447,3.8102,1.1447zm-145.93-2.089zm57.75-2.75zm46.804,1.1629zm32.598-1.9375zm-271.98,0.36966zm305.18-4.595zm17.147,4.25zm136.5-0.5zm-292.9-1.1717c2.5399-16.119-27.626-18.048-12.676-0.66245,2.718,3.8746,10.344,6.0759,12.676,0.66245zm8.9036,0.67166zm159,0.32874zm-69.152-5.0787zm-73.589-0.64905zm26.74-0.60095-2.4707,0.17279,2.4707-0.17279zm-191-2.5314zm48.124,0.26471zm-55.461-1.2971zm148.74-4.1862zm130.14-0.34026zm-229.53-2.8777zm58.811,0.63205zm119.18,0.39491zm-214-3.118zm162-0.34501zm81.443-1.8185c30.184-25.267-49.836-34.636-18.928-4.6415,5.8629,3.1357,12.832,2.2416,18.928,4.6415zm-20.443-16.218zm-29.863,6.3609c31.988,0.55899-1.5299-53.121-10.014-19.967-2.91,7.1768-3.5646,30.412,10.014,19.967zm161.43-8.42c2.01-35.289-17.731-67.263-40.1-92.877,9.5854,28.261,32.694,52.223,32.445,83.46,0.7436,2.488,5.6252,24.69,7.6551,9.4171zm-296.07,10.5zm312.98-2.1643zm-194.42-4.5787zm-55.586-7.257c30.984,16.179,19.887-61.917,1.9554-25.164-2.1229,8.2028-2.181,16.75-1.9554,25.164zm8.2081-20.643zm18.123,26.393zm-80.073-1.3283zm188.65,1.7519zm-148.87-4.2489zm46.476,0.63438zm10-4.3373zm140.38-5.7773zm-135.78-3.1736zm-15.804-1.4708zm226.59-2.3818zm-147.89-1.4182zm18.059-0.5318zm41.719-5.1856zm-53.547,4.0244zm132.25-0.55701zm-173.98-4.2181zm-171-5.9729zm376.29,1.4566zm-120.08-0.92936zm-128.73,0.95446zm104.19-2.2907zm-203.67-3.85zm4.3638-2.045zm83.939-0.45833zm94.878-5.3464c-2.354-20.156-26.257,13.862-2.634,5.3886,2.394-0.1053,5.3544-3.5474,2.634-5.3886zm-71.2,3.8214zm101.6-4.3902zm-196.9-1.4098zm-17.088-0.85763zm117.23-3.6526zm133.36,0.51021zm-255.64-1.5zm44.638-0.42857zm156.43-2.2338zm-99.973-0.70559zm43.197-0.67521c5.4072-6.1397,0.1234-5.1978-1.0107,0.1341l1.0107-0.1341zm-10.835-2.2852zm-25.228-0.67167zm-86.271-2.7894zm128.68-2.8286zm-86.394-2.6632zm11.394-0.21875zm-53.355-0.5zm106.36-3.5c1.855-7.7196-3.0016-4.0869-0.9728,0.6324l0.9728-0.6324zm18.432-1.511zm-152.53,1.1277zm74.701-2.346zm97.396-10.974zm6.4182,7.096zm-87.779-5.393zm42.207,1.552zm114.85-0.90039c-10.254-15.56-23.201-55.36-47.253-36.804,9.5668,18.085,30.835,26.157,46.904,36.711l0.3491,0.0934zm-13.169-11.06zm-16.522-14.789zm-64.636,20.228zm28.636,3.5346zm-133.2-7.6169c19.136-1.7289-11.068-26.762-4.4899-6.1852-1.5389,3.8551-1.1678,17.193,4.4899,6.1852zm25.201,4.0518zm68.365-2.69c16.35-7.8768-11.039-4.5129-1.845-0.15742l1.2885,0.10994,0.5565,0.0475zm8.6346-6.869zm-28.75-46.955zm242.75,133.51zm-398.99-11.83zm362.08-17.558zm-1.8257-6.2995zm-182.3-108.32zm14.017-0.4086z"/>
   <path id="path3070" fill="#4f7118" d="m1032.2,671.09c-23.62-7.8025,24.083-48.364-11.861-40.418-27.289,6.8971-59.753-15.35-72.996-24.185-17.399,23.711-61.374,1.3957-38.255-24.452,11.108-21.408-20.685-12.932-19.601-25.848,11.177-2.7482,25.586-5.1837,9.5784-15.517-2.218-15.127,11.713-35.148-5.0697-45.936,24.684-16.541-15.062-57.649,13.671-66.144,13.242,12.579,2.5163,57.099,30.896,48.383,5.6037-13.944-31.285-19.102-8.2066-32.17,13.555,7.3538,50.358,6.155,47.01-15.855-9.5708-7.9267-37.965,5.8603-31.912-20.368-7.6298-6.1017-4.6055-40.244,1.5831-16.547,25.952,17.362,9.3085-30.959-7.8687-32.452-12.271-23,24.374-23.96,25.427-45.868,12.701-27.758,41.83-2.3299,63.765-4.1101,13.393,3.596,23.654,3.4643,20.142-12.753,16.183-16.99,47.66-10.877,66.482-1.0989,11.997,8.0022,3.8644,29.435-10.819,23.606,25.982-5.1586,38.596,25.12,60.497,30.224,13.34-16.567-15.322-36.173-8.6675-48.076,29.119,6.3714,51.902,30.161,74.834,48.291,13.375,11.469,30.734,50.243,3.1907,53.544-3.7609-25.407-18.487-57.225-44.367-63.576,8.2437,15.399,23.826,28.552,28.602,47.326,8.4335,20.558,13.145,42.349,18.283,63.892-18.233,7.3658-11.664-50.03-27.544-21.605,0.8327,28.935-1.6707,57.868-5.7099,86.499,23.196,12.314,19.75-39.513,42.904-28.315,19.032-9.9063,46.028-33.757,18.298-50.738-1.1924-18.21,36.468,10.661,22.245,24.173-0.2251,20.453-5.5621,43.509-29.542,43.648-6.635,16.039,21.553,12.126,23.466,24.539,11.509-2.389,34.801-44.469,28.924-15.95-13.139,24.289-41.187,43.659-69.358,42.804-21.429-5.9053-26.039,13.882-23.144,29.747-10.549,10.111-28.988,18.302-19.625,34.803-16.939,12.959-40.656,5.8224-60.456,9.4302-30.667-2.1316-45.516,26.443-67.398,41.557-10.986,7.5129-27.854,11.728-37.397-0.48082zm18.406-1.5061zm7.1609-5.5053zm-19.184-3.9614zm29.604-4.4273c13.982,0.36805-5.6271-17.821-4.4992-4.0068-13.448-26.426-9.8371,33.497,4.4992,4.0068zm18.004-11.963zm-4.8056-6.2158zm-84.122-9.8707zm150.95-2.8519zm-86.812-9.7564zm-85.188,0.0935zm59-0.45096c-22.909-16.853-52.876-27.831-65.764-55.105-0.90249,34.759,38.382,48.176,65.764,55.105zm-2.4465-11.906c1.1414-17.3-34.455-9.4962-8.5381-1.132,2.5413,1.4174,5.7018,2.2489,8.5381,1.132zm49.946-0.60278c8.0791-4.5963,43.387-8.2049,16.42-8.157-6.0204,1.304-11.944,3.8245-16.42,8.157zm-37.743-7.5763zm97.243,1.5763zm-225.18-6.72c23.6-3.0414-14.587-13.142-3.7438-2.0887l3.7438,2.0887zm288.22-0.25881zm-63.64-8.2064zm65.896-0.3546zm-152.26-2.4741zm-57.045,0.48058zm-72.05-8.117c17.635-3.0093-8.8159-7.5242-1.4456-0.61058l1.1913,0.50318,0.25428,0.1074zm62.621-0.27876zm160.35,1.2954zm-110.37-1.3451c-13.601-7.0859-1.5889-50.203-20.713-37.808-11.732,18.961-8.0457,46.996,20.713,37.808zm-18.969-21.902zm29.449,20.294zm118.13-1.5598zm22.09-2.0316zm-189.2,0.2zm-81.498-5.8312zm147.98-5.2432c7.9149-25.178-41.16-1.9254-11.508,1.6856,3.8916-0.0225,7.7577-0.67436,11.508-1.6856zm-18.9-7.7915zm-55.259,3.6158zm12.676,0.75zm183-1.1321zm-62.674-3.3417c15.867-17.118,47.351-12.276,57.953-34.946,0.037-24.093-30.109,5.7953-38.516,13.416-8.859,8.1844-34.888,7.4341-30.552,23.493,3.8538,0.6916,7.5513-0.79725,11.115-1.9625zm-39.535,0.51853zm-81.757-8.0447c28.56-19.739-23.151-40.863-10.635-59.091-2.3658-22.685-36.408-12.925-24.174,8.6287,0.28115,12.208,6.446,45.122,18.383,21.764,15.331-4.3141-7.9418,45.592,15.918,29.344l0.5084-0.64557zm-11.761-59.104zm-35.184,63.766c3.3541-14.098,9.7037-33.464-10.76-34.116-14.398-9.3618,7.2499,35.341,10.76,34.116zm54.163-0.55372c7.8125-3.4502,1.7121-4.8253-1.1803-0.29855l1.1803,0.29855zm231.31-2.0526zm-145.06-1.7323zm-30.5,1.5057c2.9173-11.332-32.856-32.448-16.426-12.066,4.396,5.2128,9.7136,10.115,16.426,12.066zm-31-5.4468zm231.5,0.11803zm31.5-13zm-188.57-5.9821c20.308-11.621,35.223-49.305,3.6429-56.424-12.952-0.0863-45.107-18.378-19.335-24.839,9.6847,11.428,17.268,36.902,36.112,17.295,18.411-20.461-6.557-46.28-28.945-35.469-8.0759-8.9921-31.658-25.856-30.261-2.2095,5.1059,29.151-48.62,20.628-26.52-4.2142-10.201-20.964,41.084-38.701,39.894-28.908-13.513,31.461,60.144,19.649,24.84-3.6132-24.324-10.726,26.536-28.308-3.9966-31.386-19.04,5.8403-31.986-4.71-48.566-11.047-24.719,7.8718-29.871,38.182-48.655,53.502-14.157,13.459-24.008,44.514-3.2011,56.069,20.556-0.0289,50.828-8.3453,57.788,19.979,2.7746,18.201,37.953-18.821,41.51,10.633-16.294-2.9891-37.718,9.5581-45.138,11.968-8.178-22.497-37.05-56.353-60.098-30.843-8.8423,24.705,20.894,27.857,37.066,26.687,16.32,20.074,34.464,38.303,62.775,33.032,3.6972,0.0483,7.3953-0.0383,11.088-0.21155zm-16.426-12.483zm-14-11.035zm10.432-1.0123zm25.568-8.4877zm-84.5-21zm100.5-7.559zm-104-20.441zm-31-12.885zm32.3-14.42zm-21.084-10.191zm30.036-11.253zm22.046-7.9065zm-9.4149,0.93411zm20.901-15.918zm-28.553-4.665zm-115.24,157.64c17.348-22.482-32.152-4.8378-2.1411,1.1034l2.1411-1.1034zm-17.775-1.7726zm232.2-4.3768zm-100.2-2.1232zm-80-3.1224zm182-4.559zm-225.21-2.0311zm279.18,0.65582zm-29.342-15.572c13.33,17.732,26.485-20.33,5.3823-17.466-12.776,1.3012-33.26-12.225-27.443,10.193,2.1664,9.5576,16.831,22.831,22.061,7.2738zm-6.1994-2.8331zm7.5768-5.6605zm-145.02,16.25zm-67.985-21.191zm174-0.93658zm53.063-5.0051zm11.12-4.334zm-4.1833-4.4236zm-22-1.8598zm-176.82-2.0042zm182.82-2.7458c7.2952-24.921,1.6647-60.413-26.511-69.181-27.879,5.6896,10.46,31.537,18.713,41.894,6.1714,7.6042,7.8703,17.757,7.798,27.287zm-192.69,0.16287zm182.87-1.1295zm29.416-4.0333c10.671-12.869-21.541-17.992-5.127-2.5439,0.3875,1.9025,3.3944,5.1703,5.127,2.5439zm-33.047-3.8633zm6.5418-10.193zm-113.1-1.1808zm11.597-11.608zm76.614-7.3063zm-149.35,3.844zm-20.334-6.4684zm232.02-10.241zm-213.53-5.3285zm-18.362,0.096zm213.78-1.107zm-221.35-1.4zm28.405-5.4281c17.208,2.6214,30.75-41.257,6.3541-20.802-5.2154,4.0812-22.103,18.433-6.3541,20.802zm11.405-2.3219zm169.34-4.8372zm17.226-2.1628zm-207.41,2.2938zm15.036-19.544zm-25.927-8.7554c24.996-5.4386-9.4499-34.486-7.1176-7.7473,0.41005,4.706,0.77908,19.722,7.1176,7.7473zm28.17,3.1056zm129.26-9.3502zm-58.365-11.46zm51.708-3.599zm-122.84,3.5002zm43.875,0.52781c6.3068-19.488-29.898,1.423-5.286,0.32295l2.6496-0.001,2.6364-0.32148zm-30.951-4.109zm-16.959-4.794c8.1385-8.6146-4.27-3.995-4.169,0.97553l0.68193,0.14799,3.487-1.1235zm-23.12-3.88zm103.95-1.5547c10.206-15.36-21.267,1.4423-0.055,0.99595l0.055-0.99592-0.0003-0.00003h0.0003zm12.264-14.915zm-12.986-0.7182zm-7.5-4zm133.93,306.89zm54.569-28.888zm-372-23zm394.67-36.667zm-424.97-0.97281c-3.2157-6.5659-0.79477,3.0787,1.7274,1.0447l-1.7274-1.0447zm-21.027-1.0272zm36.039-2.1062zm15.794,0.77284zm-59.52-7.0753zm8.5092-5.9427zm-3.795-5.6215zm480.76-8.5775zm-420.11,0.64975zm403.15-1.063zm-403.55-8.37zm371-3c-19.124,6.9568-12.079-33.751,3.3237-19.881-16.414,0.70484,5.767,14.158-3.3237,19.881zm-334-2zm312.25-1.6592zm54.769-4.8221zm-403.27-0.26076zm353.27-23.26zm-291-4zm-24.316-5.4522zm315.32,4.5702zm-327-7.059zm356,0zm-355.49-10.77c-3.9982-14.765,17.546-32.021,10.641-6.3233-1.0372,4.3539-5.9657,9.2905-10.641,6.3233zm-7.213-8.9993c-8.8407,0.0805-3.6347-4.0119,0.97482-0.83118l-0.97482,0.83118zm-9.171-8.7109zm7.921-11.982zm9.5-13.601zm237.85-31.47zm-15.878-14.526zm-100.19-15.415zm-26.806-4.5851zm-8.2292-2.6042zm118.63-5.0112zm-121.35-3.2251c-27.998-13.679,33.694-35.667,12.095-5.2288-2.3313,3.9569-7.3094,8.945-12.095,5.2288zm3.9493-7.1596z"/>
   <path id="path3068" fill="#33530b" d="m1072.5,669.88zm8-4.5604zm-2.1084-8.6978zm-40.959-2.3603c10.807-35.237,50.748-63.864,87.583-49.384,11.539,2.2262,31.677-6.5314,8.1572-7.6596-26.089-10.609-60.141-4.0195-75.843,20.718-23.738,19.586-56.763,9.0067-80.898-4.0291-17.561,0.13881-22.598-51.651-36.278-19.191-4.1954,14.46-25.331,16.348-12.503-2.1056,10.27-25.068-21.777-50.342-18.511-67.854,32.563-13.051,37.075,28.997,51.998,45.295,13.121,20.268,26.585,47.85,54.523,47.972,22.293-2.6644-16.147-15.125-21.519-21.564-18.813-12.633-31.649-34.92-28.339-57.988,4.1531-19.881-23.774-44.582-15.081-56.752,29.017,1.4484,11.899,42.789,25.402,60.432,11.389,22.813,38.08,39.835,63.931,33.597,26.016-19.143,59.125-19.93,88.547-29.547,23.579-12.066,65.586-17.249,62.701-51.801-5.2133-24.1,5.5048-49.048-5.4584-71.878-9.7559-24.469-31.095-41.763-54.212-52.959-13.842-2.4821-24.636-42.539-9.1578-20.186,12.913,8.0386,47.197,3.7788,37.817,28.031,17.301,18.122,54.059,30.775,43.17,62.307-0.3062,34.229,3.8266,72.996-19.318,101.43-9.4329,3.2301-40.136,21.822-14.798,10.355,24.719-7.0461,40.612-39.157,64.569-39.116,17.957,16.63-14.661,32.653-22.298,37.997-6.6522,26.842-16.301,54.968-37.633,73.762-23.325,9.7216-49.207-17.332-70.597,4.8147-24.05,4.3306-45.698,11.642-65.957,25.302zm23.136-23.331zm-14.531-16.312c-7.6092-22.532-41.923-17.462-48.027-43.859-29.035-13.876-2.3321,33.008,15.531,34.87,10.155,4.953,21.24,8.0169,32.497,8.989zm-117.54-6.9383zm136.79-6.539zm73.206-4.913c13.301-22.433-40.897-7.7435-9.4735-2.9696,2.7323,1.5627,6.0338,4.0379,9.4735,2.9696zm-5.5412-6.6145zm-192.08,2.5146zm215.12-1.4481zm-106.4-4.7156zm135.22-19.931c-0.8523-33.498-47.282,17.441-9.235,11.944,6.4042,0.74491,15.949-5.1307,9.235-11.944zm-4.1707,2.4555zm-4.1498,13.132zm-159.93,0.0238zm131.36-2.8428zm-81.424-14.181zm-94.441-4.845zm246.34-32.346zm12.048-1.9298zm-45.944-111.76zm-11,216.17zm-229.03-28.66zm-35.5-16.572zm298.01-2.0061zm-0.5055-11.935zm-169.16-5.1692zm-127.84-5.8898zm94.163-0.8784zm-112.09-8.3716zm197.1,0.37385c-5.18-17.613-50.539-5.188-34.317-30.827,26.937,2.4417,57.029,7.7756,81.024-8.3259,14.524-14.976-26.953-44.172,4.3225-47.397-3.1944,18.308,7.4347,30.362,19.914,38.932-9.2776,23.218-44.828,22.155-58.518,43.87-3.3332,2.859-7.9256,5.0559-12.426,3.7474zm18.948-21.308zm-46.114-3.8159zm-8.9695,22.74c-22.248-16.569-46.295-32.513-61.178-56.583,32.902-14.255,33.286,36.529,57.985,45.246,3.3678,2.564,5.6315,7.345,3.1925,11.337zm185.97-0.34666zm9.549-0.64301zm-212.05-4.75zm-27.268-5zm109.77-5zm-184-7.5087zm50.057-4.4564zm163.94-1.0349zm-243.59-4.25zm42.589,0.75zm39-6.5zm38.694-0.63948zm-82.069-3.4855zm277.89-2.018zm49.989,2.0976zm-379.82-0.60311zm278.32-3.7682zm-257.96-5.1432c-13.641,2.9751-7.9953-14.808,0.60677-12.98,1.2542-9.4876-18.268-43.74-1.957-20.609,5.945,9.311,29.092,37.013,1.3502,33.59zm144.73-2.2846zm122.8,1.9492zm-12.565-1.899zm-145.33-3.8724zm72.847-6.7677zm-51.514,1.851zm-12.921-3.1476zm40.421-1.269zm-85.384-6.5796c-4.6232-15.14-58.714-4.5391-28.596-22.341,12.37,0.51025,31.447,6.3309,28.596,22.341zm-62.967-4.6716zm121.85-2.7572zm182.63-1.8427c-5.254-32.678-21.307-62.439-39.938-89.359-24.842-3.8557-21.727-51.253,2.4692-23.097,24.653,25.493,30.472,61.807,40.71,94.359,0.891,6.1312,0.386,12.852-3.241,18.098zm-127.83-1.6364zm55.774-1.2624c-16.163-0.90645-18.591-45.855-4.0833-18.922,1.4645,6.2844,1.9019,12.811,4.0833,18.922zm-156.08-3.25zm14.857-1.5127zm27.102,0.4462zm39.541-1.9335zm20.5,0zm84.44-3.25c-21.542,8.6208-4.0322-36.566-0.8048-8.7774,1.5453,2.262,3.3587,6.3737,0.8048,8.7774zm-191.94-0.75zm-19-3.441zm-22.69-14.47c3.5674-14.031,32.069-52.753,32.854-21.373-7.0608,11.693-20.577,17.039-32.854,21.373zm78.145-1.3356zm128.84-0.58831zm-104.42,0.17164zm-14.667-8.7743zm62.232-0.55902zm-36.232-1.0346zm-63.316-0.7154zm126.82-0.25c-9.8299,16.936-34.031-22.213-11.347-8.2992,3.9545-19.219,33.348-13.433,11.347,8.2992zm-85.75-4.7329c-18.84-25.394,53.454-19.978,16.995-6.4948-4.7592,3.6914-10.428,9.0085-16.995,6.4948zm191.32-0.20419zm-243.32-0.82081zm-46.38-3.4921zm50.279-14.435c-3.1852-17.857,33.403-12.57,10.003-1.4318-2.9364,1.7752-6.6836,2.745-10.003,1.4318zm118.35-7.4526zm-159.33-1.45zm132.39-1.9182zm-115.66-3.7795c-19.961,4.4052-32.181-46.476-9.6668-39.691,0.32943,18.241,36.927-1.5977,22.027,22.844-2.1717,11.995-26.486-3.738-13.728,14.356l1.3675,2.4912zm144.66-2.56c-20.595-9.409,13.654-9.8612,3.4443-1.014l-3.4443,1.014zm59-4.1605zm-71.45-5.8876zm-71.279-16.717zm-16.271-2.8958zm78.992-4.009c-21.146,3.1614-7.4845-25.217,3.9017-6.5951,1.9954,2.8594-0.37,7.2864-3.9017,6.5951zm59.085-0.0799zm38.476-0.32569zm-203.15-1.4741zm21.596-0.44615zm37.5-0.16512zm154.75-0.2205zm-200.75-0.78263zm56.502-3.5283zm-76.388-4.7878zm9.4171-0.47181zm52.554-5.0748zm36.432-2.8842zm-102.33-3.3632zm144.32-0.13771c-17.786,16.872-22.943-33.504-1.7078-9.4992,3.2885,2.025,11.456,9.9146,1.7078,9.4992zm-12.441-7.2808zm-148.68,5.2337zm94.122-9.2019zm-7-5.941zm7.6666-7.2257z"/>
   <path id="path3066" fill="#192f06" d="m1050.9,629.1zm20.242-3.2211zm-54.242-0.8357zm84.386-3.0622zm-7.3857-0.0357zm-53.5-2.0068zm104.5-0.90193zm-75.347-2.8693c24.97-19.546,58.084-10.732,87.098-11.266-27.294,13.704-59.163,0.25441-87.098,11.266zm117.35-8.5431zm-217.25-2.9872zm79.012-4.2304c13.93-27.454,43.335-45.516,73.768-47.801,19.772-4.5749,45.086-34.011,61.95-21.857-11.264,10.788-58.753,15.847-37.266,37.015-19.468,8.1274,0.3184,15.892,6.5431,18.973-24.708,0.29761-48.862-15.038-73.435-4.7356-11.989,3.4478-21.592,11.332-31.559,18.405zm124.24-1.429zm-179.32-4.1526c-16.784,3.2193-12.672-33.306-2.5438-8.0152,1.6123,2.3232,2.8,5.1222,2.5438,8.0152zm37.645-1.4382c2.1071-8.6666-12.27-20.777,6.2755-17.459,16.697-0.16279-2.751,13.791-6.2755,17.459zm30.851-0.0797zm-100.74-10.46zm226.1-0.50134zm-125.69-5.2543zm-118-0.88448zm243.52-7.4296zm-251.02-5.1112zm16.501,3.0813zm-23.455-2.6903c-6.1696-11.256,15.381-26.678,4.6435-7.3416l-2.1444,3.7834-2.4992,3.5582zm256.46-2.5114c9.5348-10.922-27.801-11.181-3.4304-19.702,19.026-11.01,20.464,16.73,3.4304,19.702zm-209.57-8.8941c-17.729-1.1657,6.3759-28.507,0.47804-5.7538l-0.0322,2.8898-0.44583,2.864zm-51.926-9.6672zm121.58-3.5897zm38.263-1.1603c-9.6535,3.609-36.351-14.675-12.436-10.182,14.993-11.847,54.75,15.95,12.436,10.182zm-161.8-0.17701zm-3.0684-8.1107zm106.1-2.881zm96.875-3.0013c2.0996-13.019,28.213-2.6565,30.143-15.766,2.1347,11.385-21.049,15.171-30.143,15.766zm-53.953-2.0799zm-133.94-4.5556zm85.251-2.3676c-21.413,7.1476-4.1969-36.165,1.0924-10.581,0.5113,2.4273,6.6496,15.758-1.0924,10.581zm174.99,0.67318c5.0233-29.551,0.3193-59.534,1.8821-89.268-15.061-10.211,6.7936-20.621,4.6599-1.8797,3.5992,29.37,4.1504,60.315-5.0147,88.637l-1.5273,2.5111zm-55.297-15.108c-19.343-5.2545,10.488-34.639,5.4416-9.3274,0.5313,3.6812-0.8074,9.1678-5.4416,9.3274zm-178.47,0.19066zm-31.734-8.3622zm-11.33-10.47zm266.07-10.635zm-63.631-3.9169zm-167.29-5.049c8.3902-16.901,13.49,21.143-0.72612,2.5436-0.46136-1.0731,0.0962-1.7802,0.72612-2.5436zm272.54-1.5994c8.8489-18.878-21.167-38.029-9.1284-54.19,9.4178,16.22,11.993,35.815,9.1284,54.19zm-89.076-2.61zm12.623-4.1763zm-132.06-3.2636-0.01-0.52082,0.01,0.52082zm156.41-2zm-31.9-16.389zm-87.332-2.8605zm-79.695-7.1667zm127.83-1.3333zm-35.5,0zm61.5-1c-11.512,10.917-21.97-18.329-4.6519-2.4425,1.5529,0.80988,3.1011,1.6287,4.6519,2.4425zm-87.525-6.0155zm87.734-5.5066zm-151.82-2.3686zm84.363-3.815zm68.829-5.7109zm-77.579-0.58333zm144.6-7.4023c-4.3344-12.858-47.218-45.391-15.258-42.315,9.4146,8.2201,38.373,33.511,15.258,42.315zm-198.71,6.2308zm166.61-4.8285zm-155.69-1.6359zm105.69-0.0703zm1.5-12.021zm26.426-3.1832c-23.723-3.1832,9.3588-13.269,3.0288-1.8283l-3.0288,1.8283zm-160.12-19.75zm170.56-7.6508zm-30.886-23.794zm-143.29-0.70007z"/>
  </g>
 </g>
</svg>
