<?xml version="1.0" encoding="UTF-8" standalone="no"?>
<!-- Created with Inkscape (http://www.inkscape.org/) -->
<svg
   xmlns:dc="http://purl.org/dc/elements/1.1/"
   xmlns:cc="http://web.resource.org/cc/"
   xmlns:rdf="http://www.w3.org/1999/02/22-rdf-syntax-ns#"
   xmlns:svg="http://www.w3.org/2000/svg"
   xmlns="http://www.w3.org/2000/svg"
   xmlns:xlink="http://www.w3.org/1999/xlink"
   xmlns:sodipodi="http://sodipodi.sourceforge.net/DTD/sodipodi-0.dtd"
   xmlns:inkscape="http://www.inkscape.org/namespaces/inkscape"
   id="svg2544"
   sodipodi:version="0.32"
   inkscape:version="0.44.1"
   width="126.26986"
   height="91.067215"
   version="1.0"
   sodipodi:docbase="D:\_petr_\School\INKSCAPE\svg\06.Zvirata"
   sodipodi:docname="beruska_1.svg">
  <metadata
     id="metadata2549">
    <rdf:RDF>
      <cc:Work
         rdf:about="">
        <dc:format>image/svg+xml</dc:format>
        <dc:type
           rdf:resource="http://purl.org/dc/dcmitype/StillImage" />
        <cc:license
           rdf:resource="http://web.resource.org/cc/PublicDomain" />
        <dc:title>beruska</dc:title>
        <dc:creator>
          <cc:Agent>
            <dc:title />
          </cc:Agent>
        </dc:creator>
        <dc:publisher>
          <cc:Agent>
            <dc:title>ZS a MS Machovo nam.</dc:title>
          </cc:Agent>
        </dc:publisher>
        <dc:language>cz</dc:language>
        <dc:subject>
          <rdf:Bag>
            <rdf:li>beruska</rdf:li>
          </rdf:Bag>
        </dc:subject>
      </cc:Work>
      <cc:License
         rdf:about="http://web.resource.org/cc/PublicDomain">
        <cc:permits
           rdf:resource="http://web.resource.org/cc/Reproduction" />
        <cc:permits
           rdf:resource="http://web.resource.org/cc/Distribution" />
        <cc:permits
           rdf:resource="http://web.resource.org/cc/DerivativeWorks" />
      </cc:License>
    </rdf:RDF>
  </metadata>
  <defs
     id="defs2547">
    <linearGradient
       inkscape:collect="always"
       id="linearGradient3271">
      <stop
         style="stop-color:#b3b3b3;stop-opacity:1;"
         offset="0"
         id="stop3273" />
      <stop
         style="stop-color:#b3b3b3;stop-opacity:0;"
         offset="1"
         id="stop3275" />
    </linearGradient>
    <linearGradient
       inkscape:collect="always"
       id="linearGradient3251">
      <stop
         style="stop-color:#b3b3b3;stop-opacity:1;"
         offset="0"
         id="stop3253" />
      <stop
         style="stop-color:#b3b3b3;stop-opacity:0;"
         offset="1"
         id="stop3255" />
    </linearGradient>
    <radialGradient
       inkscape:collect="always"
       xlink:href="#linearGradient3251"
       id="radialGradient3257"
       cx="86.541542"
       cy="76.54541"
       fx="86.541542"
       fy="76.54541"
       r="58.128677"
       gradientTransform="matrix(1,0,0,0.814962,0,14.16382)"
       gradientUnits="userSpaceOnUse" />
    <radialGradient
       inkscape:collect="always"
       xlink:href="#linearGradient3251"
       id="radialGradient3259"
       cx="112.88141"
       cy="50.105999"
       fx="112.88141"
       fy="50.105999"
       r="48.949635"
       gradientTransform="matrix(1,0,0,0.601065,0,19.98904)"
       gradientUnits="userSpaceOnUse" />
    <radialGradient
       inkscape:collect="always"
       xlink:href="#linearGradient3271"
       id="radialGradient3277"
       cx="150.22057"
       cy="111.00799"
       fx="150.22057"
       fy="111.00799"
       r="36.034592"
       gradientTransform="matrix(1,0,0,1.011728,0,-1.301861)"
       gradientUnits="userSpaceOnUse" />
    <radialGradient
       inkscape:collect="always"
       xlink:href="#linearGradient3251"
       id="radialGradient3295"
       gradientUnits="userSpaceOnUse"
       gradientTransform="matrix(1,0,0,0.814962,47.98499,66.04279)"
       cx="28.60914"
       cy="16.844707"
       fx="28.60914"
       fy="16.844707"
       r="58.128677" />
    <radialGradient
       inkscape:collect="always"
       xlink:href="#linearGradient3251"
       id="radialGradient3297"
       gradientUnits="userSpaceOnUse"
       gradientTransform="matrix(1,0,0,0.601065,47.98499,71.86801)"
       cx="81.574501"
       cy="-50.308018"
       fx="81.574501"
       fy="-50.308018"
       r="48.949635" />
    <radialGradient
       inkscape:collect="always"
       xlink:href="#linearGradient3271"
       id="radialGradient3299"
       gradientUnits="userSpaceOnUse"
       gradientTransform="matrix(1,0,0,1.011728,47.98499,50.5771)"
       cx="105.74721"
       cy="54.091572"
       fx="105.74721"
       fy="54.091572"
       r="36.034592" />
  </defs>
  <sodipodi:namedview
     inkscape:window-height="975"
     inkscape:window-width="1280"
     inkscape:pageshadow="2"
     inkscape:pageopacity="0.0"
     guidetolerance="10.0"
     gridtolerance="10.0"
     objecttolerance="10.0"
     borderopacity="1.0"
     bordercolor="#666666"
     pagecolor="#ffffff"
     id="base"
     inkscape:zoom="4.5882353"
     inkscape:cx="86.095815"
     inkscape:cy="37.72079"
     inkscape:window-x="-4"
     inkscape:window-y="-4"
     inkscape:current-layer="svg2544" />
  <g
     id="g3279"
     transform="matrix(0.7449,0,0,0.707774,-12.99816,-14.21284)"
     inkscape:export-filename="/media/KINGSTON/inkscape/8.b/Patrik Flemmer/beruska.png"
     inkscape:export-xdpi="90"
     inkscape:export-ydpi="90">
    <path
       id="path2553"
       d="M 53.417158,28.624219 L 44.637202,32.659689 L 39.049956,39.721759 L 31.866355,48.599791 L 27.476377,59.697329 L 26.877743,73.417923 L 32.0659,87.945611 L 35.6577,95.209453 L 34.460433,97.630735 L 31.866355,96.218322 L 27.675921,93.393493 L 24.084121,91.173985 L 20.49232,90.770439 L 18.696419,90.770439 L 17.898242,92.586399 L 20.292775,93.797039 L 27.476377,96.823646 L 31.068177,99.850247 L 36.056789,103.88571 L 39.449045,107.31586 L 45.235835,112.56197 L 51.222169,113.36906 L 56.809415,114.78148 L 66.587094,119.82581 L 75.965684,123.25596 L 84.945185,126.48434 L 86.142452,130.5198 L 80.355662,135.56414 C 80.355662,135.56414 73.172061,137.98542 72.174339,138.79252 C 71.176616,139.59961 68.782083,145.04749 68.782083,145.04749 L 69.580261,148.27587 L 71.974794,148.07409 L 75.36705,144.64394 L 78.759307,139.80138 L 85.14473,134.95882 L 94.323776,129.51094 L 105.29872,126.68611 L 115.67504,123.6595 L 118.46866,125.27369 L 121.46183,127.89675 L 128.84497,136.16947 L 134.63176,145.85458 L 137.42539,147.67055 L 139.02174,146.25813 L 138.42311,142.62621 C 138.42311,142.62621 135.82903,138.99429 135.03085,138.38897 C 134.23267,137.78364 131.03996,134.55528 131.03996,134.55528 L 130.04223,132.94109 L 128.44588,130.11625 L 127.04907,127.08965 L 126.84952,125.47547 L 130.44132,126.08079 L 139.42082,127.89675 L 148.20079,127.4932 L 157.77891,127.29143 L 162.1689,128.70384 L 166.95797,128.50207 L 170.54976,124.66838 L 174.14157,119.01872 L 175.93747,113.77261 L 175.93747,107.92118 L 174.7402,102.67507 L 177.13473,102.67507 L 181.32516,105.29812 L 184.51788,106.71054 L 186.51332,107.92118 L 185.11651,103.68394 L 180.92608,101.06089 C 180.92608,101.06089 178.13245,98.236059 177.13473,97.83251 C 176.13701,97.42896 172.34566,92.989946 172.34566,92.989946 L 166.55888,81.287087 L 161.76981,65.952305 L 156.3821,52.635259 L 148.20079,41.134173 L 132.03768,29.633087 L 105.69781,21.965697 L 84.546096,20.553283 L 69.97935,22.369243 L 53.417158,28.624219 z "
       style="fill:none;fill-rule:evenodd;stroke:black;stroke-width:0.92065632px;stroke-linecap:butt;stroke-linejoin:miter;stroke-opacity:1" />
    <path
       id="path2555"
       d="M 130.64087,110.74601 L 130.24178,121.44 L 134.23267,122.85241 L 140.41855,122.85241 L 144.20989,121.23823 L 143.61126,118.81695 L 140.21901,115.18503 L 137.82447,112.76374 L 134.63176,110.14069 L 130.64087,110.74601 z "
       style="fill:white;fill-rule:evenodd;stroke:black;stroke-width:0.92065632px;stroke-linecap:butt;stroke-linejoin:miter;stroke-opacity:1" />
    <path
       id="path2557"
       d="M 144.20989,80.479993 L 142.41399,84.515461 L 130.24178,100.85911 L 124.65454,111.14955 L 114.27822,120.02759 L 100.50965,123.45774 L 82.550651,121.84355 L 67.185727,117.20276 L 54.813969,110.74601 L 40.446768,96.823646 L 32.464988,84.717235 L 28.873188,71.400189 L 29.471821,63.329251 L 33.8618,52.029939 L 40.047678,42.344813 L 49.426269,34.475649 L 56.809415,30.238407 L 66.786638,29.633087 L 76.763861,30.440181 L 84.346552,31.449048 L 99.911021,35.080969 L 110.08779,40.125305 L 123.45727,48.801563 L 130.04223,55.661861 L 129.64315,57.477821 L 124.45499,61.916837 L 123.45727,70.391321 L 125.05363,77.856939 L 132.03768,79.471125 L 139.81992,80.479993 L 144.20989,80.479993 z "
       style="fill:red;fill-rule:evenodd;stroke:black;stroke-width:0.92065632px;stroke-linecap:butt;stroke-linejoin:miter;stroke-opacity:1" />
    <path
       id="path2559"
       d="M 149.19851,78.865805 L 156.3821,79.067579 L 161.17117,77.251618 L 161.37072,73.417923 L 160.57254,69.382454 L 159.77436,64.741665 C 159.77436,64.741665 158.5771,60.100875 157.97846,59.293783 C 157.37983,58.486689 155.18484,55.05654 155.18484,55.05654 L 150.99441,49.810431 L 147.60215,44.766095 C 147.60215,44.766095 142.81308,40.932399 142.41399,39.923533 C 142.01491,38.914665 138.42311,35.888063 138.42311,35.888063 L 135.42994,33.668555 L 131.43904,34.273877 C 131.43904,34.273877 131.03996,34.677423 129.44361,36.089837 C 127.84725,37.502251 119.86547,36.291611 119.86547,36.291611 L 113.08095,32.457915 L 108.69098,28.624219 L 106.69553,23.579884 L 106.29645,22.974563 C 106.29645,22.974563 96.319221,20.956829 94.922409,21.158603 C 93.525598,21.360377 81.952018,21.965697 81.952018,21.965697 L 71.376161,23.983431 L 66.986182,26.202939 L 64.392105,27.211805 L 70.178894,27.615353 L 77.961129,27.817127 L 86.341997,30.440181 L 94.922409,32.457915 L 103.70236,35.282743 L 112.68186,39.721759 L 123.05818,45.976735 L 130.84042,53.442353 L 132.43677,55.05654 L 136.42766,55.258313 L 144.20989,56.872501 L 149.39805,57.679595 L 152.98986,61.109743 L 153.38894,65.548759 L 151.79258,71.601961 L 149.39805,76.242751 L 149.19851,78.865805 z "
       style="fill:red;fill-rule:evenodd;stroke:black;stroke-width:0.92065632px;stroke-linecap:butt;stroke-linejoin:miter;stroke-opacity:1" />
    <path
       transform="matrix(0.915557,0,0,0.925784,9.118285,3.200767)"
       d="M 103.08974 57.320515 A 16.237179 13.076923 0 1 1  70.615383,57.320515 A 16.237179 13.076923 0 1 1  103.08974 57.320515 z"
       sodipodi:ry="13.076923"
       sodipodi:rx="16.237179"
       sodipodi:cy="57.320515"
       sodipodi:cx="86.852562"
       id="path2561"
       style="fill:black;fill-opacity:1"
       sodipodi:type="arc" />
    <path
       transform="matrix(0.915557,0,0,0.925784,4.728306,1.183033)"
       d="M 60.807693 64.730766 A 12.967949 13.948718 0 1 1  34.871796,64.730766 A 12.967949 13.948718 0 1 1  60.807693 64.730766 z"
       sodipodi:ry="13.948718"
       sodipodi:rx="12.967949"
       sodipodi:cy="64.730766"
       sodipodi:cx="47.839745"
       id="path2563"
       style="fill:black;fill-opacity:1"
       sodipodi:type="arc" />
    <path
       transform="matrix(0.915557,0,0,0.925784,9.118285,3.200767)"
       d="M 104.17949 110.60897 A 15.583333 12.532051 0 1 1  73.01282,110.60897 A 15.583333 12.532051 0 1 1  104.17949 110.60897 z"
       sodipodi:ry="12.532051"
       sodipodi:rx="15.583333"
       sodipodi:cy="110.60897"
       sodipodi:cx="88.596153"
       id="path2565"
       style="fill:black;fill-opacity:1"
       sodipodi:type="arc" />
    <path
       sodipodi:nodetypes="ccccccccccccccccccccccccccccccccc"
       id="rect2572"
       d="M 129.89258,57.730038 L 130.40392,55.66186 L 123.64748,48.84262 L 116.82049,44.306187 L 108.16227,38.676481 L 103.69449,36.502148 L 99.575915,34.58003 L 92.613825,33.111903 L 84.176091,30.991964 L 65.386987,29.502567 L 56.836008,29.861647 L 64.498018,26.941909 L 67.370961,27.805422 L 77.876479,28.013172 L 92.860278,31.769884 L 106.97507,36.884614 L 111.11265,39.250183 L 120.78758,44.264026 L 132.1624,55.20787 L 136.91406,55.51053 L 149.14862,58.032698 L 152.84019,61.349349 L 153.48871,66.02797 L 151.44338,71.967676 L 149.19851,76.192308 L 148.83683,79.319796 L 144.78358,80.076447 L 140.28137,80.12689 L 132.13746,79.118022 L 125.1534,77.718219 L 123.60693,70.82009 L 124.70443,61.80334 L 129.89258,57.730038 z "
       style="fill:black;fill-opacity:1" />
    <path
       sodipodi:nodetypes="cccccccccccccccccccccccccccccccccccccccccccccccc"
       id="rect2575"
       d="M 144.64411,79.829787 L 149.19456,78.759722 L 156.35535,79.11641 L 161.4702,77.190293 L 164.32746,74.550799 L 171.94682,93.027259 L 175.12155,96.665485 L 180.32458,100.78524 L 185.45266,104.29416 L 185.92445,105.59161 L 186.25515,106.81773 L 185.59817,107.68716 L 177.74953,102.53301 L 174.4866,102.30116 L 175.82705,107.72282 L 175.79177,114.21455 L 172.72286,121.34832 L 167.04362,128.41075 L 162.21097,128.48209 L 157.99564,127.00182 L 138.89431,127.73304 L 126.51727,125.18718 L 130.9984,135.23534 L 136.22821,139.79834 L 138.59391,143.3289 L 138.63146,146.28876 L 137.75187,147.46518 L 134.96745,145.93077 L 132.29568,141.36254 L 129.05954,135.7956 L 127.40286,134.0017 L 122.14815,128.28424 L 115.592,123.46281 L 114.18597,120.28215 L 125.05557,111.10913 L 129.999,101.86477 L 130.35672,110.45482 L 129.93836,121.68438 L 134.45851,123.14068 L 140.56546,122.87761 L 144.69702,121.54449 L 143.86807,118.35213 L 134.6437,109.91645 L 130.35781,110.68335 L 129.8816,101.67696 L 133.28562,97.378857 L 142.73927,84.680751 L 144.64411,79.829787 z "
       style="fill:black;fill-opacity:1" />
    <path
       sodipodi:nodetypes="cccccccccccccccccccccccccccccc"
       id="rect2578"
       d="M 110.437,23.806879 L 115.25101,25.143629 L 121.96069,27.136141 L 132.01274,30.061857 L 137.62493,33.971216 L 148.08855,41.482548 L 157.28006,54.366097 L 157.62537,55.661565 L 157.97067,56.957034 L 162.68102,69.274377 L 164.23275,75.10918 L 161.40434,77.509538 L 161.61899,73.402702 L 160.10272,64.457602 L 158.66128,59.875853 L 152.63441,51.538905 L 150.02474,47.640974 L 146.19287,43.768264 L 140.56821,37.281563 L 135.50477,33.252399 L 131.46399,33.990133 L 128.27128,36.695158 L 120.13984,35.96373 L 116.82242,34.097326 L 113.38028,32.205699 L 110.11274,29.582645 L 108.96535,28.214368 L 107.81798,25.181461 L 106.59576,22.627767 L 110.437,23.806879 z "
       style="fill:black;fill-opacity:1" />
    <path
       sodipodi:nodetypes="ccccccccccccccccccccccccccccccccccccccccccccccccccccccccccccccccccccccccccc"
       id="rect2581"
       d="M 36.094482,95.262251 L 33.720548,90.318123 L 31.649147,86.637895 L 29.469961,79.365546 L 27.290774,73.448612 L 27.386812,70.438689 L 27.923785,59.563786 L 32.114632,48.685813 L 44.935313,33.014072 L 59.163863,26.42989 L 69.749506,22.822059 L 84.109555,20.569643 L 87.629018,21.246031 L 83.070548,21.6014 L 81.580987,21.63575 L 80.691098,21.955449 L 64.820632,26.836802 L 56.755499,29.918877 L 49.360589,34.071016 L 39.887587,42.047717 L 33.589319,52.200217 L 32.471307,54.591053 L 29.025157,63.206102 L 28.450974,71.503201 L 30.663502,79.568453 L 32.135258,84.958543 L 35.669284,90.270702 L 38.788053,94.768074 L 39.187143,95.650832 L 40.085093,96.962365 L 41.195059,98.097339 L 47.256222,103.92355 L 49.675699,106.23133 L 51.371827,107.85812 L 52.768638,109.35882 L 54.564539,110.98561 L 60.700531,114.17616 L 67.21067,117.50542 L 79.167749,121.16887 L 82.619245,122.1336 L 100.38806,123.85498 L 114.46452,120.40119 L 115.52069,122.09262 L 115.62904,123.33005 L 93.438297,129.8136 L 83.245159,136.34759 L 78.639267,139.35055 L 75.018432,145.09518 L 71.768575,147.60326 L 69.815758,148.04316 L 68.860663,145.25468 L 70.000785,143.02109 L 72.316398,138.92927 L 80.368914,135.74543 L 86.588309,130.52612 L 85.076136,126.32039 L 77.003939,123.19921 L 66.487321,119.37183 L 57.158616,114.60493 L 55.412603,114.02483 L 53.791304,113.79784 L 50.448934,112.99074 L 45.335607,112.20887 L 42.841301,110.1407 L 36.535417,103.88587 L 27.857813,96.597866 L 24.859454,95.248718 L 18.315976,92.557291 L 18.651087,91.720643 L 18.792186,91.044505 L 23.942308,91.616776 L 28.069462,94.119868 L 32.531725,97.033151 L 34.648214,98.216497 L 36.094482,95.262251 z "
       style="fill:black;fill-opacity:1" />
    <path
       style="opacity:0.63551402;fill:url(#radialGradient3295);fill-opacity:1;fill-rule:evenodd;stroke:black;stroke-width:0.92065632px;stroke-linecap:butt;stroke-linejoin:miter;stroke-opacity:1"
       d="M 144.20989,80.479993 L 142.41399,84.515461 L 130.24178,100.85911 L 124.65454,111.14955 L 114.27822,120.02759 L 100.50965,123.45774 L 82.550651,121.84355 L 67.185727,117.20276 L 54.813969,110.74601 L 40.446768,96.823646 L 32.464988,84.717235 L 28.873188,71.400189 L 29.471821,63.329251 L 33.8618,52.029939 L 40.047678,42.344813 L 49.426269,34.475649 L 56.809415,30.238407 L 66.786638,29.633087 L 76.763861,30.440181 L 84.346552,31.449048 L 99.911021,35.080969 L 110.08779,40.125305 L 123.45727,48.801563 L 130.04223,55.661861 L 129.64315,57.477821 L 124.45499,61.916837 L 123.45727,70.391321 L 125.05363,77.856939 L 132.03768,79.471125 L 139.81992,80.479993 L 144.20989,80.479993 z "
       id="path3247" />
    <path
       style="opacity:0.63551402;fill:url(#radialGradient3297);fill-opacity:1;fill-rule:evenodd;stroke:black;stroke-width:0.92065632px;stroke-linecap:butt;stroke-linejoin:miter;stroke-opacity:1"
       d="M 149.19851,78.865805 L 156.3821,79.067579 L 161.17117,77.251618 L 161.37072,73.417923 L 160.57254,69.382454 L 159.77436,64.741665 C 159.77436,64.741665 158.5771,60.100875 157.97846,59.293783 C 157.37983,58.486689 155.18484,55.05654 155.18484,55.05654 L 150.99441,49.810431 L 147.60215,44.766095 C 147.60215,44.766095 142.81308,40.932399 142.41399,39.923533 C 142.01491,38.914665 138.42311,35.888063 138.42311,35.888063 L 135.42994,33.668555 L 131.43904,34.273877 C 131.43904,34.273877 131.03996,34.677423 129.44361,36.089837 C 127.84725,37.502251 119.86547,36.291611 119.86547,36.291611 L 113.08095,32.457915 L 108.69098,28.624219 L 106.69553,23.579884 L 106.29645,22.974563 C 106.29645,22.974563 96.319221,20.956829 94.922409,21.158603 C 93.525598,21.360377 81.952018,21.965697 81.952018,21.965697 L 71.376161,23.983431 L 66.986182,26.202939 L 64.392105,27.211805 L 70.178894,27.615353 L 77.961129,27.817127 L 86.341997,30.440181 L 94.922409,32.457915 L 103.70236,35.282743 L 112.68186,39.721759 L 123.05818,45.976735 L 130.84042,53.442353 L 132.43677,55.05654 L 136.42766,55.258313 L 144.20989,56.872501 L 149.39805,57.679595 L 152.98986,61.109743 L 153.38894,65.548759 L 151.79258,71.601961 L 149.39805,76.242751 L 149.19851,78.865805 z "
       id="path3249" />
    <path
       style="opacity:0.37850467;fill:url(#radialGradient3299);fill-opacity:1"
       d="M 144.64411,79.829787 L 149.19456,78.759722 L 156.35535,79.11641 L 161.4702,77.190293 L 164.32746,74.550799 L 171.94682,93.027259 L 175.12155,96.665485 L 180.32458,100.78524 L 185.45266,104.29416 L 185.92445,105.59161 L 186.25515,106.81773 L 185.59817,107.68716 L 177.74953,102.53301 L 174.4866,102.30116 L 175.82705,107.72282 L 175.79177,114.21455 L 172.72286,121.34832 L 167.04362,128.41075 L 162.21097,128.48209 L 157.99564,127.00182 L 138.89431,127.73304 L 126.51727,125.18718 L 130.9984,135.23534 L 136.22821,139.79834 L 138.59391,143.3289 L 138.63146,146.28876 L 137.75187,147.46518 L 134.96745,145.93077 L 132.29568,141.36254 L 129.05954,135.7956 L 127.40286,134.0017 L 122.14815,128.28424 L 115.592,123.46281 L 114.18597,120.28215 L 125.05557,111.10913 L 129.999,101.86477 L 130.35672,110.45482 L 129.93836,121.68438 L 134.45851,123.14068 L 140.56546,122.87761 L 144.69702,121.54449 L 143.86807,118.35213 L 134.6437,109.91645 L 130.35781,110.68335 L 129.8816,101.67696 L 133.28562,97.378857 L 142.73927,84.680751 L 144.64411,79.829787 z "
       id="path3269"
       sodipodi:nodetypes="cccccccccccccccccccccccccccccccccccccccccccccccc" />
  </g>
</svg>
