<?xml version="1.0" encoding="iso-8859-1"?>
<!-- Generator: Adobe Illustrator 13.0.2, SVG Export Plug-In . SVG Version: 6.00 Build 14948)  -->
<!DOCTYPE svg PUBLIC "-//W3C//DTD SVG 1.1//EN" "http://www.w3.org/Graphics/SVG/1.1/DTD/svg11.dtd">
<svg version="1.1" id="leaves_xA0_Image_1_" xmlns="http://www.w3.org/2000/svg" xmlns:xlink="http://www.w3.org/1999/xlink"
	 x="0px" y="0px" width="294.333px" height="334.646px" viewBox="0 0 294.333 334.646"
	 style="enable-background:new 0 0 294.333 334.646;" xml:space="preserve">
<g>
	<path style="fill:#B3D335;" d="M294.3,262.378c-1.516-0.656-3.322,0.439-5.047,0.315c-1.633-0.116-3.381-1.565-5.363-1.893
		c-0.818-0.135-1.811,0.185-2.523,0c-0.402-0.104-0.535-0.768-0.947-0.946c-1.141-0.493-2.891-0.33-4.1-0.946
		c-1.656-0.845-2.318-2.119-3.156-3.155c-0.229-0.965,0.545-0.928,0.316-1.894c-5.047,0.554-8.934-0.218-11.988-1.262
		c-2.133-0.728-3.615-1.235-4.732-2.523c0.039-0.908,1.346-0.547,1.264-1.577c-3.355,0.188-3.553-4.289-2.525-6.625
		c3.26-1.368,6.42-2.833,6.625-7.255c-1.223-0.231-2.26-0.588-2.838-0.946c-0.16-0.099-1.029-0.132-1.262-0.315
		c-0.553-0.433-1.664-2.64-2.209-3.47c-0.873-1.331-1.883-2.995-1.893-3.787c-0.049-3.593,5.389-4.849,3.785-8.833
		c-2.633,0.178-6.818,0.494-6.941-2.523c-0.117-2.879,3.84-3.775,6.311-5.047c0.586-0.571,0.719-1.593,0.947-2.523
		c3.482-1.775,5.027-5.488,7.57-8.203c0.748-0.645,1.469,0.653,1.578-0.63c1.525-3.669-2.484-5.192-2.84-7.887
		c-0.262-1.972,1.443-5.128,1.578-7.887c0.033-0.702-0.424-1.563-0.316-2.209c0.418-2.539,2.541-4.869,2.207-7.571
		c-1.07-0.789-2.658,0.629-3.154-0.945c2.205-2.372-0.365-6.809,1.264-8.834c-4.658,0.392-8.502,1.595-12.305,2.839
		c-1.281-1.082-0.26-2.51-1.578-3.47c-2.605,0.073-4.307,2.894-6.939,4.102c-0.594,0.273-1.424,0.062-2.209,0.315
		c-1.041,0.338-1.701,1.162-2.523,1.262c-1.801,0.22-4.049,0.023-5.363-1.577c-0.211-1.538,0.557-2.093,0-3.155
		c-1.059,0.003-1.68,1.338-2.838,1.577c-1.213,0.252-2.699,0.012-3.154-0.945c3.531-0.844,5.738-2.352,8.201-4.417
		c2.127-1.783,4.057-2.968,3.471-5.993c-1.996-0.95-3.416-1.761-3.785-3.786c-0.424-2.312,1.045-6.4,1.576-7.256
		c2.334-3.754,5.682-8.176,7.572-11.356c-0.127-1.558-1.398-1.968-1.578-3.471c0.492-2.972,2.656-5.623,3.471-8.833
		c0.32-1.263,0.021-2.789,0.314-4.102c0.906-4.06,4.316-8.093,2.523-12.302c-2.633,2.014-5.568,1.891-9.463,3.153
		c-1.631,0.529-3.307,1.7-5.049,2.208c-3.453,1.009-7.814,0.819-11.355,1.264c-2.182,0.271-4.465,1.128-5.363,0.945
		c-2.627-0.533-2.701-3.988-3.785-5.679c-1.646-0.369-2.574,1.325-3.785,1.894c-1.211,0.566-2.561,0.498-3.787,0.946
		c-4.146,1.517-7.645,4.599-11.986,5.679c0.02-1.389-0.158-2.576-1.262-2.84c-6.012,0.93-8.803,5.078-13.881,6.941
		c-0.621-0.758-1.98-0.965-1.262-2.21c1.584,0.369,2.861-0.694,3.785,0c5.543-5.183,13.002-8.447,21.451-10.726
		c0.273-1.534-0.902-1.62-0.631-3.154c1.742-4.252,4.588-7.399,6.311-11.672c2.791-2.991,6.381-5.186,6.623-10.726
		c-1.709-0.312-3.936,0.257-5.047-1.262c-0.924-4.611,2.178-8.653,1.893-12.934c-0.105-1.606-1.172-3.012-0.945-5.049
		c0.668-6.046,3.934-13.809,0.945-17.35c-3.77,0.999-7.5,1.928-11.672,3.154c-2.912,0.857-5.762,2.188-7.256,2.208
		c-3.779,0.054-5.219-3.711-6.309-6.94c-4.299-1.085-6.83,5.886-11.043,5.047c-2.15-0.429-1.344-2.821-4.1-3.154
		c-1.709,2.393-2.107,6.094-4.416,7.886c-2.217-0.893-0.914-3.359-1.895-5.363c1.41-3.818,3.279-7.655,2.523-12.303
		c-0.199-1.232-1.199-2.436-1.576-3.786c-0.973-3.475-1.641-7.298-1.262-10.411c-0.725-0.433-1.016-1.299-1.578-1.893
		c-1.953-0.167-3.424,0.151-4.732,0.631c-2.037-2.205-3.787-4.738-5.361-7.571c-1.631-2.935-1.986-6.493-4.102-9.148
		c-0.314,0-0.631,0-0.947,0c-3.643,3.087-8.725,4.734-12.617,7.571c-0.928,3.881-5.057,1.576-7.572,3.155
		c-0.267,3.989-2.359,8.465-5.047,11.042c-0.767,4.386-2.969,7.335-3.786,11.672c-4.157,4.313-8.532,0.498-13.88,0
		c-1.639-0.153-3.58-0.247-5.047,0c-0.526,0.088-2.084,0.558-2.523,1.262c0.484,3.857-0.033,9.427-0.316,12.934
		c-1.262,0-2.523,0-3.785,0c-1.16,4.306,2.467,6.531,2.208,9.78c-1.236-1.507-1.013,0.443-1.893,0.946
		c-7.289,0.349-10.626-3.254-15.773-5.047c-0.469,1.182-0.47,3.539-0.315,4.416c-2.376,2.807-5.904,0.137-9.148-0.314
		c-0.673-0.094-1.555,0.322-2.208,0.314c-5.758-0.063-9.901-3.737-12.934-5.678c-3.208,8.622,2.566,14.579,3.155,21.452
		c-2.306-0.623-2.12,1.245-3.155,1.893c1.884,7.054,11.436,13.666,11.356,22.398c-0.004,0.426-0.055,2.196-0.315,2.839
		c-1.084,2.674-6.074,2.343-4.732,6.939c4.678,0.056,7.46,2.004,8.518,5.679c-1.697,0.515-3.074,1.801-4.732,1.894
		c-4.211,0.233-7.472-3.467-9.779-5.679c-2.8-0.34-3.245,1.815-5.363,1.894c-0.807,0.029-2.515-0.731-3.785-1.262
		c-3.826-1.6-5.933-4.885-10.411-4.733c-0.069,4.645-2.23,9.771-1.893,14.512c0.222,3.123,2.06,5.414,2.208,7.887
		c-0.361,1.849-2.856,1.561-2.839,3.785c3.713,2.431,5.774,5.513,9.148,9.148c1.85,1.994,5.883,4.548,5.363,7.257
		c-0.295,1.535-2.357,1.481-2.524,3.153c-0.171,1.713,0.647,1.176,1.577,3.155c-3.331,1.191-5.751,3.293-8.202,5.363
		c2.594,1.989,6.079,2.8,9.148,4.102c3.175,1.347,6.145,3.051,8.833,4.731c-2.212,0.925-2.84,3.211-5.363,3.471
		c-2.493,0.256-4.122-1.881-6.94-1.894c0.13,1.393-0.086,2.438-0.631,3.155c-8.825,2.105-13.656-6.556-22.082-2.839
		c-4.105-1.44-10.833-0.116-15.773-0.948c-2.412-0.405-3.939-1.658-5.679-2.523c-1.215,2.804,0.621,5.225,1.262,7.887
		c0.84,3.485,1.366,6.261,2.208,8.834c2.011,2.666,2.825,5.626,4.732,8.201c1.898,2.564,4.392,4.471,5.994,7.257
		c-0.563,1.014-2.076,1.078-2.208,2.523c2.241,3.753,7.271,4.716,10.726,7.255c-0.054,1.629-1.33,2.036-1.578,3.471
		c1.493,0.106,2.341,1.61,3.786,2.208c2.301,0.952,5.281,0.326,6.94,2.208c-1.25,1.906-2.749,3.562-6.31,3.155
		c-1.99,4.388,2.362,5.047,2.208,8.202c-0.23,4.71-7.831,4.669-8.203,9.465c6.532,0.687,11.962,5.022,19.244,5.993
		c-0.629,6.101-8.275,5.185-11.357,8.832c0.084,3.907,4.639,4.095,4.417,7.572c-0.104,1.616-2.886,3.658-4.417,4.416
		c-3.041,1.506-7.833,1.797-11.041,0.946c-1.11,1.204-2.482,2.145-2.208,4.732c-1.975,3.389-4.79,5.937-7.887,8.202
		c-1.511,0.645-3.595,0.753-3.786,2.523c-0.182,1.689,2.387,2.848,3.786,4.416c1.267,1.423,2.966,5.059,5.362,7.257
		c1.635,1.498,3.705,1.839,3.786,4.415c0.059,1.882-1.258,2.109-1.578,4.417c2.255,2.506,6.391,0.725,11.357,1.262
		c1.322,0.145,2.592,0.822,3.786,0.946c3.58,0.375,5.914-0.711,7.887-0.314c0.248,2.14-1.148,2.638-1.893,3.785
		c0.401,1.492,2.584,1.202,3.155,2.524c-0.652,3.027-2.822,4.538-4.417,6.624c0.443,1.66,2.922,1.284,4.101,2.208
		c-0.14,1.04,0.388,1.445,0.315,2.208c-0.268,2.82-3.472,2.955-5.363,4.417c0.034,2.259,1.847,1.774,3.155,2.523
		c0.715,0.411,1.057,1.312,1.893,1.578c3.514,1.118,8.528,0.29,12.618,0.315c0.89,0.057,0.394,1.499,1.578,1.262
		c3.225-1.111,9.222-1.552,12.303,0.316c1.25,0.756,1.945,3.261,3.155,3.469c2.777,0.478,6.746-5.55,7.571-7.886
		c2.965-0.433,5.818-7.08,9.779-5.68c1.499,0.53,1.499,2.133,1.578,3.786c3.042,0.624,3.174-1.664,4.732-2.523
		c0.102-1.557,1.085-2.353,1.577-3.786c0.952-2.777,0.568-6.087,1.262-8.832c1.048-4.154,5.198-8.52,9.464-7.887
		c-0.322,2.833-3.181,3.128-4.417,5.047c1.011,1.302,2.533,2.094,4.101,2.84c0.472,3.521-2.012,4.085-2.208,6.94
		c7.446,2.988,9.849-3.85,14.827-5.363c0.782,0.374,0.38,1.934,1.893,1.576c2.312-0.026,4.086-2.049,5.678-3.47
		c2.771-2.472,6.127-5.785,10.726-4.731c1.904,2.074,0.957,6.499,0.631,9.779c2.836,3.505,10.145,0.599,13.564-0.946
		c0.984-3.936,2.906-5.902,6.625-6.94c3.807-1.062,6.477,4.622,7.887,6.94c3.104,0.311,4.664,1.747,5.994,3.785
		c0.703,1.076,0.795,2.612,1.578,3.785c1.418,2.129,4.342,4.53,5.678,4.417c1.561-0.132,1.246-1.612,2.84-2.207
		c2.131,0.707,3.637,2.041,4.73,3.785c1.018,0.14,1.711,0.604,2.84,0.63c1.238,2.103,4.262,2.037,6.941,2.523
		c2.475,0.449,5.342,2.161,6.623,0.316c-1.598-4.289-4.033-7.743-4.416-13.25c0.949-1.787,3.342-2.126,3.471-4.731
		c-1.484-1.146-3.359-1.898-3.785-4.101c-1.676-1.203-4.578-2.732-3.787-5.363c8.42,3.568,13.096,10.88,19.561,16.403
		c3.951-0.552,5.047,0.789,7.254,1.894c1.334,0.666,2.881,0.98,3.787,1.577c3.73,2.46,5.621,7.636,11.672,6.31
		c-0.113-1.599-0.475-3.178,0.314-4.417c1.338-2.095,5-1.9,7.258-1.893c7.67,0.024,19.143,0.199,23.66-2.523
		c0.09-1.562-0.6-2.347-0.947-3.471c-4.023-1.024-6.646-3.449-7.256-7.887c0.061-1.609,3.002-1.702,2.207-3.154
		c-1.037-2.307-3.656-2.612-4.416-5.362c-0.225-0.815,0.121-1.975-0.314-3.155c1.836-0.478,3.164-1.462,3.469-3.47
		c-2.496-1.534-4.822-1.853-8.516-2.523c0.98-2.334,3.408-2.533,5.678-3.472c1.512-0.624,2.57-1.721,3.785-1.892
		c1.656-0.233,3.354,0.991,5.047,0c0.102-3.58,2.188-5.173,4.416-6.625c2.016,0.154,3.426,1.881,5.363,1.892
		c2.715,0.019,7.393-2.778,9.465-4.731c0.406-0.384,0.463-1.37,0.945-1.892c1.547-1.667,3.244-3.127,4.732-4.732
		C291.687,267.664,294.683,265.227,294.3,262.378z M81.36,177.517c-5.046-1.19-9.44,0.221-14.196,0.316
		c-0.549-4.077-4.042-5.212-6.625-7.255c5.098,1.532,13.392,6.411,20.505,3.153C80.917,175.226,81.608,175.904,81.36,177.517z
		 M89.878,247.867c-1.057-0.521-2.223-0.933-2.523-2.208C89.244,245.42,90.539,246.483,89.878,247.867z M90.824,189.505
		c-1.082-3.546-3.545-5.708-5.363-8.517c1.604-0.611,2.871,0.654,5.678,0C94.084,182.296,95.253,189.004,90.824,189.505z
		 M104.074,258.909c-4.311,0.104-4.592-3.821-7.256-5.363c2.539-1.173,6.915-2.23,9.148,0
		C106.419,255.361,104.874,257.352,104.074,258.909z M103.443,130.83c-0.35-0.598-0.402-1.49-0.631-2.208
		c2.627,0.105,5.523-0.056,6.94,1.262C109.12,132.888,105.331,131.973,103.443,130.83z M183.255,252.915
		c-1.023-0.7-1.457-3.768-0.314-4.731c2.893,0.051,5.23,0.655,7.57,1.262C189.839,252.213,186.399,253.638,183.255,252.915z
		 M203.446,176.255c-1.377-1.389-1.486,0.338-2.84,0.632c-2.445,0.025-2.092-2.744-2.523-4.731c1.727-1.289,5.076-2.081,6.939-0.632
		C204.618,173.222,204.692,175.4,203.446,176.255z"/>
</g>
<g>
	<path style="fill-rule:evenodd;clip-rule:evenodd;" d="M178.96,66.563c-0.566-0.041-0.665,0.385-1.263,0.314
		c-0.685-2.769-0.553-6.138,0.632-8.517c1.207,0.686,0.099,4.226,0,5.679c0.265,0.366,0.416,0.844,0.316,1.576
		C178.812,65.87,178.974,66.128,178.96,66.563z"/>
	<path style="fill-rule:evenodd;clip-rule:evenodd;" d="M127.539,111.674c0.315,0,0.631,0,0.946,0
		c3.074,2.816,5.98,5.568,8.833,8.834c0.841,0.961,2.136,1.817,2.523,3.153c-1.577,0.75-2.409-1.373-3.155-2.207
		c-2.611-2.927-5.94-5.955-9.147-8.519C127.539,112.516,127.539,112.095,127.539,111.674z"/>
	<path style="fill-rule:evenodd;clip-rule:evenodd;" d="M141.42,222.403c-1.526,0.201-2.231-0.417-3.155,0
		c0.354,1.329,2.361,1.004,3.471,1.578c0.056,10.12-0.898,19.189-1.262,29.338c-1.433-0.115-2.055,0.398-3.155,1.262
		c-6.925-2.854-10.907-8.652-17.035-12.303c0.052-1.525-1.117-1.828-1.893-2.524c-0.125-9.133-5.942-14.452-8.518-22.082
		c-1.288-3.816-1.437-7.144-3.786-9.78c-0.98-1.1-2.342-2.001-3.47-2.839c-0.931-0.69-2.952-1.045-2.524-2.84
		c3.139,2.08,6.695,3.468,8.518,6.94c1.06,2.021,1.245,4.794,2.208,7.257c0.416,1.062,1.108,2.179,1.577,3.154
		c1.15,2.393,1.999,6.207,4.417,7.886c0.175,3.085,1.908,4.612,3.155,6.625c0.247,1.824-0.458,2.697-0.315,4.417
		c1.051-0.39,1.605,1.235,1.893,2.523c5.37,3.147,8.819,8.217,14.196,11.356c1.438-0.279,0.829-2.315,2.839-1.262
		c0.113-8.035,2.81-18.771,0.316-26.499c-2.079-1.691-4.846-1.242-6.94-2.523c-0.707-0.432-0.861-1.317-1.578-1.893
		c-0.908-0.729-2.339-0.953-3.155-1.577c-1.254-0.96-1.97-2.526-3.154-3.47c-1.431-1.142-3.341-1.746-5.047-2.523
		c-1.3-0.594-3.685-1.146-4.101-3.155c2.859,1.14,5.073,1.765,7.256,3.155c2.966,1.888,5.096,3.852,8.202,5.993
		c2.132,1.47,4.939,2.766,9.148,2.839c-0.307-5.019,2.107-12.179-1.262-14.511c-0.647-0.448-1.578-0.35-2.523-0.946
		c-1.199-0.759-1.682-1.821-2.523-2.209c-0.9-0.414-2.865-0.949-4.417-1.262c-4.988-1.006-11.709-2.232-14.827-2.208
		c-1.843,0.014-3.925,0.541-5.362,0.315c-2.482-0.392-4.792-2.347-7.256-3.155c-4.403-1.444-8.108-1.981-12.619-2.523
		c-0.51,0.089-0.543-0.298-0.947-0.315c0.14-0.28,0.277-0.563,0.631-0.631c8.504,0.435,14.778,3.099,21.136,5.678
		c2.86-0.736,6.741-0.865,10.411-0.314c0.771,0.115,1.395,0.726,2.208,0.946c5.311,1.438,9.379,0.858,12.619,3.155
		c0.696,0.492,1.159,1.145,1.892,1.576c0.762,0.448,1.897,0.237,2.525,0.631c2.929,1.84,1.779,5.629,1.892,10.095
		C141.162,218.046,141.797,220.246,141.42,222.403z"/>
	<path style="fill-rule:evenodd;clip-rule:evenodd;" d="M118.391,245.432c-1.454,1.444-4.366,1.515-7.571,1.263
		c-1.11-0.089-3.188,0.558-3.155-0.947c3.437-0.034,7.162,0.222,9.464-0.946c-2.314-2.816-5.209-4.334-8.203-7.255
		c-1.315-1.285-2.554-3.284-4.416-4.733c-0.592-0.459-1.851-0.914-2.839-1.577c-3.227-2.164-3.317-1.556-6.625,0.631
		c-3.599,2.38-7.262,3.696-12.303,4.732c2.006-2.583,5.778-2.187,8.518-3.47c2.9-1.359,4.68-3.824,7.256-5.048
		c0.21,0,0.42,0,0.631,0c7.238,3.698,12.067,9.806,18.613,14.196C117.737,243.561,118.789,243.772,118.391,245.432z"/>
	<path style="fill-rule:evenodd;clip-rule:evenodd;" d="M104.825,245.432c-0.243,2.048-2.681,0.504-3.785,0.631
		c-2.181,0.25-3.933,1.186-5.363,1.894c-0.533,1.197-2.875,3.035-3.47,0.63c0.421,0,0.841,0,1.262,0
		C95.541,246.031,100,244.183,104.825,245.432z"/>
	<path style="fill-rule:evenodd;clip-rule:evenodd;" d="M137.948,296.852c-1.075,0.369-2.266,1.031-3.153,0
		c-0.392-1.653,1.805-0.719,1.577-2.208c-1.197-0.59-2.182-1.394-3.154-2.207c0-0.422,0-0.843,0-1.262
		c-6.064-8.237-12.825-15.779-21.137-21.769c0.985-5.717-4.192-5.271-7.256-6.939c0.272-1.418,2.179-0.394,3.47,0
		c2.933,0.896,5.2,2.105,5.363,5.678c2.248,2.869,5.628,4.418,8.202,6.94c2.151,2.108,3.95,4.683,5.994,6.941
		c2.042,2.254,4.064,4.566,6.31,6.624c0.162,1.939,1.296,2.909,2.522,3.786c1.206-1.094,0.534-2.779,0.632-4.102
		c0.357-4.866,0.883-10.226,0.946-15.143c0.041-3.142-1.25-6.634-1.578-9.463c-0.128-1.114,0.287-2.004,0-2.84
		c-0.621-1.825-2.238-2.767-3.784-3.471c-6.063,1.696-12.885-0.543-17.666-2.839c0.43-1.254,2.192-0.155,2.838,0
		c1.903,0.456,3.519,1.027,5.994,1.577c1.855,0.412,3.249,0.711,5.994,0c-1.646-3.086-5.646-6.551-9.779-8.201
		c-1.708-0.225-2.462,1.792-4.101,0.63c-0.058-2.266,3.111-1.306,3.47-3.154c1.815,0.791,4.36,2.316,5.994,3.786
		c2.433,2.188,3.859,5.178,6.94,6.625c1.472,0.69,3.428,0.352,4.416,1.892c1.102,1.716,2.226,4.738,2.523,7.257
		c0.6,5.054-0.122,10.937-0.314,16.719C139.025,287.254,139.687,292.669,137.948,296.852z"/>
	<path style="fill-rule:evenodd;clip-rule:evenodd;" d="M248.047,286.758c-0.548,1.953-5.801-0.064-7.572-0.316
		c-1.598-0.226-3.064,0.188-4.415-0.314c-2.131-0.793-3.548-3.008-5.048-3.785c-1.471,0.103-2.487-0.247-3.471-0.632
		c0-0.315,0-0.632,0-0.946c3.756-1.141,5.335,2.685,8.519,3.786c1.351,0.467,3.329,0.569,5.047,0.945
		C243.75,286.074,245.463,286.683,248.047,286.758z"/>
	<path style="fill-rule:evenodd;clip-rule:evenodd;" d="M90.314,220.195c0.997,1.745,4.271,2.15,3.155,5.048
		c1.749,0.775,4.792,0.255,5.047,2.523c-1.652,0.777-2.502-0.941-4.101-1.262c-1.243-0.249-3.164,0.006-4.732,0
		c-4.865-0.02-11.952,0.88-16.719,2.523c-0.302,1.275-0.907,2.247-1.262,3.47c-3.225,1.403-5.632,3.621-8.202,5.679
		c-0.369-4.175,6.782-3.508,6.31-8.833c-2.216-2.506-6.131-0.324-9.149-0.631c-1.278,0.72-1.757,2.238-1.577,4.417
		c-1.431,1.242-3.036,3.844-5.047,3.47c0.334-1.875,2.504-1.913,3.47-3.154c0.25-1.433,0.447-2.919,0.947-4.102
		c-9.786-0.002-18.505,3.784-28.076,5.048c0.544-1.828,2.348-1.643,3.785-1.894c4.957-0.866,11.123-2.261,16.404-3.47
		c4.657-1.066,12.202-1.665,18.928-1.578c0.051,0.37,0.575,0.268,0.947,0.316c0.541,0.405,0.855,1.037,0.946,1.894
		c0.625-1.479,1.843-2.363,3.786-2.524c-1.111-0.992-3.006-1.2-3.47-2.839c-1.901-0.519-4.605-0.232-5.363-1.894
		c4.83-1.218,6.29,3.034,10.41,3.785c2.158,0.395,3.911-0.434,5.994-0.63c2.981-0.282,5.994,0.438,9.78-0.315
		c-1.017-4.184-6.275-5.319-9.78-7.257c-3.542-1.957-6.993-4.586-10.726-5.993c-1.947,2.083-5.015,1.094-9.148,1.262
		c-2.358,0.097-4.85,1.025-6.309,0.946c-1.351-0.073-2.479-1.14-3.786-1.262c-2.583-0.241-4.843,1.635-6.94,0.315
		c-0.074-1.481,1.768-0.547,2.523-0.63c0.845-0.096,1.91-0.61,2.839-0.632c1.671-0.038,3.407,0.901,5.047,0.946
		c1.243,0.034,2.525-0.526,3.785-0.631c3.685-0.304,8.052,1.029,10.411-0.945c-7.934-4.476-16.282-8.536-24.606-12.62
		c-1.373,0.297-2.253,2.265-4.102,2.524c-2.097,0.294-5.062-0.365-8.518-0.631c-2.217-0.171-4.597,0.151-6.625,0
		c-2.487-0.188-5.35-0.905-7.887-0.632c0.149-0.935,1.281-1.156,1.893-1.262c2.208-0.377,6.299,0.104,9.464,0.316
		c4.999,0.335,10.408,2.729,13.88-0.632c-0.562-1.75-2.654-1.584-4.101-2.208c-1.317-0.567-2.462-1.649-3.786-2.208
		c-2.828-1.193-5.848-1.925-8.518-3.471c-1.208-0.699-2.232-1.806-3.47-2.523c-2.649-1.535-4.995-2.729-7.571-4.416
		c-3.029-1.984-5.407-3.785-8.202-6.311c-1.354-1.222-3.461-2.406-3.471-4.415c5.737,4.989,11.747,9.705,18.613,13.563
		c-1.612-2.699-2.419-8.937-4.416-12.302c3.784,1.364,2.889,6.67,4.732,10.095c0.739,1.373,2.103,1.833,2.208,3.471
		c3.126,2.508,7.327,3.475,11.041,5.678c1.911,1.133,5.301,2.373,7.571,3.471c6.711,3.243,13.177,6.861,21.137,9.148
		c3.323,2.564,7.931,3.846,11.988,5.678c0.644,0.682,0.66,1.986,1.893,1.262c0.712-3.094-1.768-5.536-3.155-7.571
		c-1.586-2.327-3.307-4.402-4.731-6.625c-4.404-0.537-5.484-4.401-8.833-5.993c0.678-0.992,2.504,0.172,3.155,0.631
		c1.433,1.01,3.015,4.108,5.679,4.417c-0.567-5.438-6.679-8.034-8.518-13.25c-5.35,0.71-9.23-5.195-12.619-8.519
		c3.711,0.624,4.816,4.362,7.571,5.995c1.285,0.761,2.852,0.816,4.417,1.577c0.753-2.066-1.36-3.676-2.208-5.363
		c-0.949-1.888-1.392-3.982-2.523-5.679c2.23-0.021,2.235,2.53,2.838,3.786c0.875,1.821,2.473,3.425,3.471,5.362
		c0.67,1.302,0.628,3.11,1.262,4.417c1.311,2.704,4.995,5.106,6.94,8.201c0.751,1.196,0.911,2.444,1.577,3.472
		c2.337,3.599,5.292,6.631,7.571,10.726c0.691,1.241,1.808,2.664,2.208,3.785c0.152,0.428-0.226,1.19,0,1.578
		c1.266,2.174,3.582,2.526,5.678,3.785c2.453,1.471,4.242,3.556,6.625,4.102c-0.073-1.617-0.188-4.499-0.631-7.257
		c-0.687-4.274-3.574-7.344-4.417-11.04c-0.283-1.24-0.573-3.248,0.315-4.417c1.014,0.455,0.302,1.601,0.631,3.153
		c0.834,3.932,4.171,8.058,4.732,12.62c0.569,4.624,0.543,9.166,4.732,10.726c1.018,0.282,0.443-1.029,0.946-1.262
		c0.647,0.51,0.795,1.518,1.262,2.208c3.731,2.976,8.166,5.957,11.673,9.464c0.902,0.902,2.256,1.92,2.208,3.154
		c-2.428-1.252-4.446-2.915-5.994-5.048c-4.274-2.245-6.813-6.226-11.672-7.887c-0.592-0.985-1.932-1.222-2.523-2.207
		c-0.42,0-0.841,0-1.262,0c-1.402-1.438-3.202-2.478-5.048-3.47C90.689,220.451,90.63,220.194,90.314,220.195z M81.165,213.254
		c-0.197,0.644-1.593,0.089-1.262,1.262c3.239,2.02,6.506,4.01,10.095,5.679c-1.795-2.201-5.37-2.622-6.94-5.047
		c-0.69-2.465-1.598-4.712-3.155-6.311C79.491,211.144,81.421,211.106,81.165,213.254z"/>
	<path style="fill-rule:evenodd;clip-rule:evenodd;" d="M150.884,0c2.115,2.655,2.47,6.213,4.102,9.148
		c1.573,2.833,3.324,5.366,5.361,7.571c1.309-0.48,2.778-0.798,4.732-0.631c0.562,0.594,0.853,1.46,1.578,1.893
		c-0.379,3.112,0.289,6.936,1.262,10.411c0.377,1.35,1.376,2.554,1.576,3.786c0.756,4.648-1.114,8.485-2.523,12.303
		c0.98,2.004-0.323,4.47,1.894,5.363c2.309-1.792,2.708-5.494,4.417-7.886c2.755,0.333,1.948,2.726,4.1,3.154
		c4.212,0.839,6.744-6.132,11.042-5.047c1.091,3.229,2.53,6.994,6.309,6.94c1.494-0.021,4.344-1.352,7.257-2.208
		c4.171-1.227,7.902-2.156,11.672-3.154c2.987,3.542-0.277,11.304-0.946,17.35c-0.226,2.037,0.84,3.443,0.946,5.049
		c0.284,4.281-2.817,8.323-1.894,12.934c1.112,1.519,3.339,0.95,5.048,1.262c-0.243,5.541-3.832,7.735-6.624,10.726
		c-1.723,4.272-4.568,7.42-6.311,11.672c-0.271,1.534,0.904,1.62,0.632,3.154c-8.449,2.278-15.909,5.543-21.452,10.726
		c-0.924-0.694-2.2,0.369-3.785,0c-0.718,1.245,0.641,1.452,1.262,2.21c5.078-1.863,7.87-6.012,13.881-6.941
		c1.104,0.264,1.282,1.451,1.262,2.84c4.342-1.08,7.841-4.162,11.987-5.679c1.226-0.448,2.576-0.38,3.786-0.946
		c1.211-0.568,2.14-2.263,3.786-1.894c1.083,1.69,1.157,5.146,3.785,5.679c0.898,0.183,3.181-0.674,5.363-0.945
		c3.54-0.444,7.901-0.255,11.355-1.264c1.742-0.508,3.418-1.679,5.048-2.208c3.895-1.263,6.831-1.14,9.464-3.153
		c1.792,4.209-1.617,8.242-2.523,12.302c-0.293,1.312,0.005,2.839-0.315,4.102c-0.814,3.21-2.978,5.861-3.47,8.833
		c0.18,1.503,1.451,1.913,1.577,3.471c-1.891,3.181-5.238,7.603-7.572,11.356c-0.531,0.855-2,4.943-1.576,7.256
		c0.37,2.025,1.79,2.836,3.785,3.786c0.587,3.025-1.344,4.21-3.471,5.993c-2.462,2.065-4.67,3.573-8.201,4.417
		c0.456,0.957,1.942,1.197,3.154,0.945c1.159-0.239,1.779-1.574,2.839-1.577c0.557,1.062-0.212,1.617,0,3.155
		c1.313,1.601,3.562,1.797,5.363,1.577c0.821-0.1,1.481-0.924,2.523-1.262c0.784-0.254,1.614-0.042,2.208-0.315
		c2.633-1.208,4.334-4.028,6.94-4.102c1.317,0.96,0.296,2.388,1.578,3.47c3.802-1.244,7.646-2.447,12.304-2.839
		c-1.628,2.025,0.941,6.462-1.264,8.834c0.497,1.574,2.084,0.156,3.155,0.945c0.333,2.702-1.789,5.032-2.208,7.571
		c-0.106,0.646,0.35,1.507,0.316,2.209c-0.135,2.759-1.839,5.915-1.578,7.887c0.355,2.694,4.366,4.218,2.84,7.887
		c-0.109,1.283-0.829-0.015-1.578,0.63c-2.543,2.715-4.088,6.428-7.57,8.203c-0.228,0.931-0.361,1.952-0.947,2.523
		c-2.47,1.271-6.428,2.168-6.31,5.047c0.123,3.018,4.308,2.701,6.94,2.523c1.604,3.984-3.834,5.24-3.785,8.833
		c0.011,0.792,1.021,2.456,1.893,3.787c0.545,0.83,1.657,3.037,2.209,3.47c0.232,0.184,1.103,0.217,1.262,0.315
		c0.579,0.358,1.616,0.715,2.838,0.946c-0.204,4.422-3.365,5.887-6.625,7.255c-1.026,2.336-0.829,6.812,2.525,6.625
		c0.082,1.03-1.225,0.669-1.264,1.577c1.118,1.288,2.601,1.796,4.733,2.523c3.055,1.044,6.941,1.815,11.987,1.262
		c0.229,0.966-0.544,0.929-0.315,1.894c0.837,1.036,1.499,2.311,3.155,3.155c1.21,0.616,2.96,0.453,4.1,0.946
		c0.412,0.179,0.546,0.842,0.947,0.946c0.713,0.185,1.705-0.135,2.523,0c1.982,0.327,3.731,1.776,5.363,1.893
		c1.726,0.124,3.531-0.972,5.047-0.315c0.384,2.849-2.613,5.285-4.731,7.571c-1.488,1.605-3.187,3.065-4.732,4.732
		c-0.483,0.521-0.539,1.508-0.946,1.892c-2.071,1.953-6.749,4.75-9.464,4.731c-1.938-0.011-3.349-1.737-5.363-1.892
		c-2.229,1.452-4.315,3.045-4.417,6.625c-1.693,0.991-3.39-0.233-5.047,0c-1.215,0.171-2.273,1.268-3.785,1.892
		c-2.27,0.938-4.697,1.138-5.678,3.472c3.694,0.671,6.021,0.989,8.517,2.523c-0.306,2.008-1.634,2.992-3.47,3.47
		c0.437,1.181,0.09,2.34,0.314,3.155c0.76,2.75,3.379,3.056,4.417,5.362c0.795,1.452-2.146,1.545-2.208,3.154
		c0.61,4.438,3.232,6.862,7.256,7.887c0.348,1.124,1.037,1.908,0.947,3.471c-4.518,2.723-15.989,2.548-23.66,2.523
		c-2.257-0.008-5.919-0.202-7.257,1.893c-0.79,1.239-0.429,2.818-0.315,4.417c-6.05,1.326-7.941-3.85-11.672-6.31
		c-0.905-0.597-2.452-0.911-3.786-1.577c-2.207-1.104-3.303-2.445-7.255-1.894c-6.464-5.523-11.141-12.835-19.56-16.403
		c-0.791,2.631,2.11,4.16,3.786,5.363c0.426,2.202,2.302,2.954,3.786,4.101c-0.129,2.605-2.522,2.944-3.471,4.731
		c0.382,5.507,2.817,8.961,4.416,13.25c-1.282,1.845-4.149,0.133-6.624-0.316c-2.68-0.486-5.702-0.421-6.941-2.523
		c-1.129-0.026-1.822-0.49-2.839-0.63c-1.095-1.744-2.6-3.078-4.731-3.785c-1.593,0.595-1.278,2.075-2.84,2.207
		c-1.336,0.113-4.259-2.288-5.677-4.417c-0.783-1.173-0.876-2.709-1.578-3.785c-1.331-2.038-2.891-3.475-5.994-3.785
		c-1.411-2.318-4.08-8.002-7.887-6.94c-3.72,1.038-5.642,3.005-6.625,6.94c-3.42,1.545-10.729,4.451-13.564,0.946
		c0.326-3.28,1.272-7.705-0.631-9.779c-4.599-1.054-7.956,2.26-10.727,4.731c-1.592,1.421-3.366,3.443-5.678,3.47
		c-1.513,0.357-1.11-1.202-1.893-1.576c-4.978,1.514-7.38,8.352-14.827,5.363c0.196-2.855,2.68-3.42,2.208-6.94
		c-1.568-0.746-3.089-1.538-4.101-2.84c1.235-1.919,4.094-2.214,4.417-5.047c-4.266-0.633-8.417,3.732-9.464,7.887
		c-0.693,2.745-0.31,6.055-1.262,8.832c-0.492,1.434-1.476,2.229-1.577,3.786c-1.558,0.859-1.69,3.147-4.732,2.523
		c-0.079-1.653-0.079-3.256-1.578-3.786c-3.961-1.4-6.814,5.247-9.779,5.68c-0.826,2.336-4.794,8.363-7.571,7.886
		c-1.209-0.208-1.905-2.713-3.155-3.469c-3.082-1.868-9.079-1.428-12.303-0.316c-1.184,0.237-0.688-1.205-1.578-1.262
		c-4.09-0.025-9.104,0.803-12.618-0.315c-0.835-0.266-1.178-1.167-1.893-1.578c-1.308-0.749-3.121-0.265-3.155-2.523
		c1.892-1.462,5.096-1.597,5.363-4.417c0.072-0.763-0.456-1.168-0.315-2.208c-1.179-0.924-3.658-0.548-4.101-2.208
		c1.594-2.086,3.764-3.597,4.417-6.624c-0.571-1.322-2.754-1.032-3.155-2.524c0.745-1.147,2.141-1.646,1.893-3.785
		c-1.973-0.396-4.307,0.689-7.887,0.314c-1.194-0.124-2.463-0.802-3.786-0.946c-4.966-0.537-9.102,1.244-11.357-1.262
		c0.32-2.308,1.637-2.535,1.578-4.417c-0.082-2.576-2.151-2.917-3.786-4.415c-2.396-2.198-4.095-5.834-5.362-7.257
		c-1.399-1.568-3.968-2.727-3.786-4.416c0.191-1.771,2.275-1.879,3.786-2.523c3.097-2.266,5.912-4.813,7.887-8.202
		c-0.274-2.588,1.098-3.528,2.208-4.732c3.208,0.851,8,0.56,11.041-0.946c1.531-0.758,4.313-2.8,4.417-4.416
		c0.222-3.478-4.333-3.665-4.417-7.572c3.082-3.647,10.728-2.731,11.357-8.832c-7.281-0.971-12.712-5.307-19.244-5.993
		c0.372-4.796,7.973-4.755,8.203-9.465c0.153-3.155-4.199-3.814-2.208-8.202c3.561,0.407,5.06-1.249,6.31-3.155
		c-1.659-1.882-4.64-1.256-6.94-2.208c-1.445-0.598-2.293-2.102-3.786-2.208c0.248-1.435,1.523-1.842,1.578-3.471
		c-3.455-2.539-8.485-3.502-10.726-7.255c0.132-1.445,1.646-1.51,2.208-2.523c-1.602-2.786-4.096-4.692-5.994-7.257
		c-1.907-2.575-2.721-5.535-4.732-8.201c-0.842-2.573-1.368-5.349-2.208-8.834c-0.641-2.662-2.477-5.083-1.262-7.887
		c1.739,0.865,3.267,2.118,5.679,2.523c4.94,0.832,11.668-0.492,15.773,0.948c8.426-3.717,13.257,4.944,22.082,2.839
		c0.545-0.718,0.761-1.763,0.631-3.155c2.818,0.013,4.447,2.149,6.94,1.894c2.523-0.26,3.151-2.546,5.363-3.471
		c-2.688-1.681-5.658-3.385-8.833-4.731c-3.069-1.302-6.555-2.112-9.148-4.102c2.451-2.07,4.871-4.172,8.202-5.363
		c-0.93-1.979-1.749-1.442-1.577-3.155c0.167-1.672,2.229-1.618,2.524-3.153c0.52-2.709-3.514-5.263-5.363-7.257
		c-3.374-3.636-5.436-6.718-9.148-9.148c-0.017-2.225,2.479-1.937,2.839-3.785c-0.149-2.473-1.986-4.764-2.208-7.887
		c-0.337-4.74,1.823-9.867,1.893-14.512c4.478-0.151,6.584,3.134,10.411,4.733c1.271,0.53,2.979,1.291,3.785,1.262
		c2.119-0.078,2.563-2.233,5.363-1.894c2.307,2.212,5.568,5.912,9.779,5.679c1.658-0.093,3.035-1.379,4.732-1.894
		c-1.057-3.675-3.84-5.623-8.518-5.679c-1.341-4.597,3.648-4.266,4.732-6.939c0.26-0.643,0.311-2.413,0.315-2.839
		c0.079-8.732-9.472-15.345-11.356-22.398c1.035-0.648,0.849-2.516,3.155-1.893c-0.589-6.873-6.363-12.83-3.155-21.452
		c3.033,1.941,7.176,5.615,12.934,5.678c0.654,0.008,1.536-0.408,2.208-0.314c3.244,0.452,6.772,3.122,9.148,0.314
		c-0.155-0.877-0.154-3.233,0.315-4.416c5.147,1.793,8.485,5.396,15.773,5.047c0.88-0.503,0.657-2.453,1.893-0.946
		c0.259-3.249-3.368-5.475-2.208-9.78c1.262,0,2.523,0,3.785,0c0.283-3.507,0.8-9.076,0.316-12.934
		c0.439-0.704,1.997-1.174,2.523-1.262c1.467-0.247,3.408-0.153,5.047,0c5.348,0.498,9.724,4.313,13.88,0
		c0.816-4.337,3.019-7.287,3.786-11.672c2.688-2.576,4.781-7.053,5.047-11.042c2.515-1.579,6.644,0.727,7.571-3.155
		c3.894-2.837,8.976-4.484,12.618-7.571C150.252,0,150.568,0,150.884,0z M101.355,77.92c2.551,8.279,8.561,13.101,11.356,21.136
		c2.429,1.275,3.879,5.131,6.625,5.047c-1.606-3.952-0.991-8.684-1.262-12.304c1.825-0.017,1.204,1.97,1.262,2.84
		c0.076,1.14-0.383,2.56-0.315,3.471c0.191,2.575,1.612,4.895,1.577,7.571c1.425,0.993,2.364,2.472,4.101,3.155
		c0.116-1.99-0.155-4.009,0-5.995c0.09-1.155,0.045-2.955,0.947-3.47c1.506,2.147-0.141,6.29,0.315,9.465
		c0.218,1.515,1.694,2.176,0.947,3.47c-3.566-1.273-5.47-5.887-9.148-5.995c2.792,2.466,4.865,5.65,8.518,7.257
		c0.771,2.097,2.711,3.034,4.101,4.101c1.842,1.413,3.068,3.812,4.732,5.363c0.959,0.895,2.027,1.135,2.838,2.208
		c3.721,4.915,3.376,11.744,4.418,19.874c-0.038,0.909-1.346,0.547-1.263,1.578c1.806,3.949,2.196,12.659-2.207,13.88
		c-0.88,0.118-1.921-1.201-2.524-0.316c2,0.63,3.293,1.966,4.731,3.155c0.726,1.782,0.767,4.895,0.632,6.941
		c-0.275,4.161,0.228,11.172,0,14.511c-0.21,3.072-0.604,6.916-4.417,5.678c-0.276-0.984-0.857-1.666-1.262-2.523
		c-3.663-2.764-7.495-6.222-10.726-9.148c-1.17-1.061-2.367-2.31-3.785-2.523c2.687,2.886,6.771,4.376,7.571,9.148
		c0.996,0.153,1.114-0.569,2.209-0.316c5.215,4.374,11.152,10.604,9.463,19.875c-1.511,0.761-3.357-0.551-3.785-1.893
		c0.318-1.229,1.086-0.049,2.209-0.315c-0.036-8.271-4.293-12.323-8.518-16.405c-4.339,2.028-9.857,1.355-14.512,1.264
		c-2.305-0.047-4.792,0.555-6.625-0.316c5.841-0.994,13.12-0.55,17.666-2.839c-0.279-2.106-2.475-3.607-4.101-5.047
		c-3.313-2.938-6.064-5.942-10.726-6.941c-1.542,0.555-2.891,1.959-5.047,2.208c-1.329,0.154-2.963-0.303-4.417-0.314
		c-2.768-0.024-4.769,0.005-7.256-0.315c-1.405-0.182-3.843,0.034-4.417-0.946c4.132-1.069,10.157,0.996,14.512,0.63
		c2.635-0.221,4.555-1.905,6.625-2.839c-0.608-2.188-2.674-3.306-4.101-4.731c-1.525-1.525-2.868-3.231-4.732-4.417
		c-4.635,2.319-10.444,0.808-16.088,0.632c-1.124-0.036-2.351,0.373-3.47,0.314c-3.348-0.174-6.659-1.255-9.464-1.576
		c-1.333-0.154-2.835,0.183-4.101,0c-2.086-0.305-3.996-1.356-5.994-1.578c-3.259-0.362-6.908-0.456-10.095-0.315
		c-2.349,0.103-5.021,1.589-7.571,0.315c5.764-2.279,14.71-1.989,20.821-0.632c-1.03-4.649-7.683-5.354-9.779-7.887
		c3.234,0.706,6.15,1.312,8.202,3.155c1.394,1.252,1.752,3.46,3.47,4.417c2.607,1.388,6.502,1.489,10.095,1.893
		c-0.645-1.952-1.852-3.756-3.47-5.048c-1.286-1.026-3.788-1.211-3.786-2.839c4.622,1.057,6.944,4.413,9.148,7.887
		c6.257,0.628,15.978,2.743,21.136-0.316c-5.393-4.238-11.721-7.143-17.666-10.725c-5.962-3.593-11.67-7.583-17.351-11.357
		c-3.758,3.303-8.104,0.566-12.619-0.63c-1.594-0.424-3.387-0.228-5.047-0.632c-1.785-0.434-3.338-1.504-4.732-2.208
		c-1.651-0.834-3.915-1.27-3.785-2.839c4.376,1.933,8.266,4.353,14.511,4.417c1.605,1.548,4.083,2.226,6.94,2.523
		c0.403-1.069,2.735-0.209,2.524-1.894c-5.507-4.167-11.508-7.841-15.458-13.565c-2.391-1.503-4.541-3.552-6.31-5.678
		c-1.751-2.104-3.588-4.667-4.417-7.57c3.313,5.468,8.333,9.353,12.619,13.88c2.162,2.284,4.479,4.315,6.94,6.309
		c2.404,1.947,4.701,4.512,7.887,5.363c-1.07-6.816-7.295-8.478-8.833-14.827c3.649,5.394,9.573,8.515,10.41,16.721
		c3.902,1.565,7.582,5.034,10.726,6.309c-1.115-1.915-0.696-3.848-1.262-5.679c-1.063-3.44-4.013-5.597-4.732-9.148
		c3.919,3.336,6.263,8.249,6.94,14.827c3.292,3.387,7.409,5.503,11.673,7.887c2.523,1.411,4.862,3.585,7.571,3.785
		c-2.189-2.516-3.974-5.518-5.363-8.518c-0.766-1.653-0.988-3.718-1.893-5.362c-0.654-1.189-1.808-2.295-2.523-3.471
		c-2.433-3.997-4.561-8.062-5.994-12.618c-0.309-0.908-2.275-1.279-1.262-2.523c3.156,1.748,3.857,6.316,5.047,9.778
		c4.462,4.438,6.238,10.85,9.464,16.405c1.611,2.773,3.317,5.234,5.047,7.887c7.965,4.863,13.031,12.627,21.136,17.351
		c1.445,2.235,4.197,3.163,5.363,5.678c2.476,1.955,5.259,3.556,7.571,5.679c1.203,1.104,1.744,2.906,3.471,3.47
		c-0.268-9.978,5.123-26.11-4.732-28.707c-8.014-9.337-18.847-15.854-27.446-24.606c-0.373-0.363-1.115-0.356-1.893-0.315
		c0.042-0.778,0.047-1.52-0.316-1.893c-0.929-0.543-2.561-0.384-3.154-1.262c-1.217-8.879-8.321-11.869-13.25-17.036
		c-0.004,2.194-0.678,4.788-3.47,5.049c-2.56-3.015-5.502-5.646-9.464-7.257c-3.042,1.787-7.6,3.589-11.672,3.472
		c-4.652-0.137-6.601-3.421-9.464-5.363c-5.179,4.418-11.698-1.632-16.719-3.155c-0.786,3.92-2.099,8.984-1.262,13.565
		c0.499,2.73,2.701,4.749,2.839,6.939c-0.708,0.764-2.074,0.87-2.523,1.894c0.113,1.401,1.713,2.471,2.839,3.785
		c0.987,1.151,1.921,2.502,3.154,3.785c2.426,2.525,6.119,4.581,6.94,6.94c1.255,3.603-0.919,4.55-2.208,6.625
		c0.594,1.404,2.606,1.389,2.524,3.47c-2.965,0.715-5.455,1.906-6.625,4.417c7.195,2.208,14.522,8.153,21.452,10.727
		c2.559,0.949,6.626,2.142,8.833,2.207c2.967,0.089,6.077-1.466,8.518-1.577c0.326,3.287,0.109,5.164,1.578,7.256
		c4.339,0.639,5.824-0.483,8.202,0c6.945,1.412,3.94,15.283-2.523,13.25c-1.138-0.358-2.421-3.315-3.47-5.363
		c-0.999-1.952-1.848-4.469-3.155-5.679c-2.562-2.37-6.179-2.404-9.464-0.945c-2.277-1.354-5.967-0.29-8.518,0
		c-0.169-1.305-0.462-2.483-0.631-3.786c-2.692-1.304-4.131-3.861-6.625-5.362c-2.594,1.487-5.627,4.527-9.779,2.523
		c-5.463,6.482-14.789-0.628-21.452-1.578c-6.054,1.745-13.678,0.022-21.136,0c-0.894-0.139-2.517-1.527-2.839-0.315
		c1.061,3.673,1.729,7.735,2.839,11.357c2.002,2.203,3.043,5.161,5.363,8.201c2.173,2.849,7.261,6.562,5.047,11.042
		c2.521,3.262,8.039,3.528,10.095,7.255c-0.018,1.035-0.897,1.207-0.631,2.525c1.074,3.131,6.538,1.872,9.148,3.47
		c1.613,5.104-3.259,6.113-6.625,7.255c1.735,2.716,3.179,5.259,1.577,9.148c-1.625,1.528-3.731,2.577-5.047,4.417
		c3.186,1.249,7.221,4.249,12.304,5.362c3.199,0.701,6.436,0.377,8.833,1.578c2.905,1.455,4.057,4.041,4.732,7.255
		c8.861,1.091,12.602-4.721,20.505-4.731c1.944,0.738,1.582,4.191,1.893,5.679c0.075-1.936,0.897-0.76,2.208-0.632
		c1.69,0.166,2.928-0.186,3.786-0.631c0.976-0.506,2.237-1.342,3.154-1.893c0.196-0.118,0.15-0.843,0.315-0.945
		c0.299-0.187,0.972,0.197,1.262,0c0.404-0.276,0.324-0.987,0.631-1.263c0.406-0.365,1.202-0.355,1.577-0.631
		c1.076-0.794,1.243-1.56,2.839-1.578c2.841-0.03,4.613,2.925,3.154,6.94c4.632,1.251,10.586-0.988,15.458,0
		c1.904,4.32,0.977,10.518-2.838,11.042c-4.634,0.637-7.255-6.361-10.411-7.256c0.1-0.731-0.051-1.211-0.315-1.578
		c-4.188,0.166-5.688-2.484-6.625-4.731c-3.427,0.576-5.98,3.403-9.463,4.417c-2.449,0.712-5.749,1.407-7.572,0.631
		c-0.404-1.982,1.257-1.897,0.947-3.786c-0.538-0.724-1.169-1.355-1.894-1.893c-5.82,2.429-13.688,6.018-21.767,4.101
		c-0.212-1.579,0.292-2.441,0.315-3.785c-1.472-1.683-2.823-3.486-5.994-3.47c-0.653,2.381-1.368,3.813-3.154,5.047
		c-2.32,1.602-6.485,1.816-7.571,4.417c1.241,2.056,4.612,4.185,3.785,7.887c-0.477,2.134-4.185,4.049-6.31,5.048
		c-2.632,1.236-6.866,1.651-10.095,1.577c-0.408,1.905-1.985,2.641-2.208,4.731c-2.151,1.727-3.646,4.162-5.994,5.679
		c-1.316,0.85-3.092,0.89-3.786,2.523c0.521,1.228,1.187,3.268,2.524,1.893c0.265,0.892,0.366,1.947,0.631,2.839
		c0.686,0.682,1.648,1.086,2.523,1.578c1.304,5.247,8.154,5.803,5.994,13.565c4.003,0.306,8.36,0.31,11.357,0.946
		c4.12,0.875,7.788-1.697,11.357,0.315c1.197,2.042-0.702,3.424-1.262,4.731c3.41,2.371-1.037,6.363-1.262,9.148
		c1.243,1.396,3.012,1.176,3.47,2.84c1.041,3.777-3.404,4.952-3.47,7.255c3.834,1.925,11.15,2.736,15.458,0.632
		c0.626,0.425-0.099,2.202,0.947,2.207c6.909-2.291,12.091,1.084,15.458,3.472c1.811-3.832,5.522-7.212,8.833-10.096
		c1.79-1.561,3.736-3.282,5.363-3.47c2.933-0.339,4.167,1.107,5.362,3.785c0.512-1.706,1.984-2.213,2.524-3.785
		c0.925-2.694,0.045-6.068,0.63-9.148c0.913-4.804,7.085-9.584,11.673-10.727c1.254,0.971,2.156,2.07,2.208,3.47
		c0.082,2.168-2.203,3.596-2.523,5.363c0.776,0.695,2.418,0.526,2.523,1.894c-0.355,2.168-1.937,3.109-1.893,5.679
		c5.873,0.914,8.653-8.29,14.827-5.049c3.46-3.164,7.256-5.992,11.672-8.201c-0.459-0.593-2.065-0.038-2.524-0.632
		c-0.012-2.543-2.323-2.49-4.101-3.153c-1.417-0.53-2.476-1.951-3.155-2.209c-1.603-0.608-3.533-0.554-5.363-1.263
		c-1.584-0.613-3.084-1.558-4.732-2.207c-3.184-1.256-7.984-3.183-10.411-3.155c-4.126,0.046-7.197,3.2-10.41,5.047
		c0.334,1.544-1.448,2.776-1.893,4.417c-0.331,1.221-0.082,2.86-0.316,4.417c-0.216,1.444-0.95,3.061-0.946,4.102
		c0.006,1.579,2.075,3.896-0.316,4.415c-1.533-4.227-0.347-10.945,0.316-15.772c-3.141,2.854-8.497,3.491-10.411,7.57
		c0.955,2.364-0.494,5.106-0.946,7.887c-0.573,3.528,0.61,7.535-2.524,8.202c0.363-1.395,1.057-2.4,1.262-4.101
		c0.158-1.32-0.182-2.784,0-4.102c0.267-1.932,1.201-3.816,1.262-5.678c0.047-1.459-0.126-3.025-0.631-4.101
		c-2.075,1.711-5.545,2.025-7.256,4.101c-0.329,2.012,0.686,2.68,0.631,4.416c-0.439,1.507-1.747,2.482-2.208,3.471
		c-0.184,0.395,0.447,1.592-0.631,1.262c-1.275-2.223,1.367-3.182,1.578-5.047c0.151-1.339-0.801-1.993-0.631-3.785
		c-1.902-0.116-2.587,0.988-4.102,1.262c0.286,3.14-3.028,4.627-3.785,7.57c-0.718,2.787,1.149,7.394-2.524,8.833
		c0.791-2.993,1.946-4.328,1.262-7.571c-2.186,0.457-4.448,1.978-6.625,3.47c-0.951,0.652-2.233,1.393-3.155,2.209
		c-0.891,0.789-1.391,3.264-3.155,1.893c4.499-6.227,14.251-7.201,16.404-15.773c-3.208,0.921-6.235-0.03-9.148,0.316
		c-2.533,0.301-5.07,2.93-7.571,1.262c2.881-0.696,5.102-1.878,7.887-2.208c3.757-0.445,7.657,0.232,11.041-0.947
		c1.203-0.419,2.806-1.545,4.102-2.208c4.287-2.197,8.95-4.657,12.934-6.94c2.786-1.597,5.234-3.644,7.887-5.363
		c2.696-1.748,5.804-2.847,8.203-5.047c-5.026-2.284-11.824-2.734-17.666-1.578c-2.885,3.942-7.449,5.53-11.357,8.202
		c-2.839,1.941-6.621,3.62-9.779,4.733c-2.345,2.492-5.558,5.797-9.148,5.993c-0.882-1.448,2.217-1.253,3.154-1.894
		c2.727-2.846,6.191-4.955,9.463-7.255c2.362,0.152,2.765-1.652,4.732-1.894c1.893-4.205,7.145-5.053,9.148-9.148
		c-1.757-0.872-4.652-0.604-7.256-0.63c-1.468,1.266-2.554,2.913-3.47,4.731c-1.343,0.345-1.954,1.323-3.155,1.893
		c-0.874,0.415-1.94,0.448-2.838,0.946c-2.63,1.457-4.501,5.068-7.887,4.102c1.333-1.556,3.244-1.58,4.732-2.84
		c2.103-1.78,3.213-4.903,6.625-5.362c0.418-1.37,1.235-2.339,1.577-3.786c-5.107-0.663-12.25-0.915-17.666-0.315
		c-0.934,1.169-1.743,2.463-2.208,4.102c-2.681,2.471-6.19,4.115-10.095,5.362c-0.451,0.987-1.953,1.87-3.154,2.523
		c-0.957,0.521-2.869,2.137-3.786,0.632c4.578-1.837,7.242-5.588,12.303-6.94c1.05-1.789,2.506-3.172,3.155-5.363
		c-10.822,0.232-19.83-3.292-29.339-1.577c1.709-1.416,4.591-1.642,6.941-1.578c5.085,0.141,11.243,1.656,15.458,1.894
		c4.553,0.257,8.623-1.043,12.619-1.262c-0.628-1.789-3.917-0.92-4.101-3.155c3.664,0.683,9.278,4.442,14.196,2.209
		c-1.638-1.517-3.333-2.978-4.417-5.047c-1.723-0.081-2.527-1.918-4.101-2.84c-3.255-1.906-8.058-2.59-8.203-6.624
		c2.194,2.303,3.947,3.355,6.94,5.047c1.46,0.824,3.333,1.493,4.732,2.523c2.42,1.782,4.318,5.598,6.625,6.625
		c2.708,1.205,6.269,0.245,9.464,0.946c-0.555-2.389-3.678-2.212-3.786-5.048c2.863,0.697,3.615,3.855,6.625,5.048
		c5.211,2.065,12.464,0.616,18.928,1.894c-1.677-2.215-4.109-3.673-6.94-4.733c-5.554-5.382-12.375-9.496-17.35-15.457
		c-0.79-0.578-2.596-0.138-2.524-1.578c3.581-0.399,5.537,3.488,7.571,5.679c7.011,4.767,12.923,10.633,20.505,14.827
		c0.487,0.669,0.908,1.406,1.262,2.208c6.011,0.737,10.673,1.779,14.827,3.786c6.587,1.292,12.247,3.662,17.666,5.994
		c1.75,0.752,3.953,1.916,5.993,1.262c-2.969-9.544-11.241-13.786-17.035-20.506c-2.758-0.922-4.721-2.64-6.94-4.102
		c-8.794,0.043-14.393-8.246-23.029-8.832c-2.332-0.158-4.814,1.263-6.94-0.316c7.386-1.516,13.528-0.092,17.35,2.84
		c1.102,0.845,1.592,0.688,2.839,1.262c1.295,0.596,2.301,2.078,3.47,2.523c0.888,0.339,2.191,0.33,3.155,0.632
		c2.269,0.71,3.546,1.351,5.994,1.577c0.472-1.335-1.31-2.028-0.316-2.839c1.334,0.682,1.88,2.895,0.947,4.101
		c1.758,1.081,3.355,2.322,5.362,3.154c1.074,2.291,2.883,3.849,5.363,4.732c2.488,3.295,5.667,5.899,8.202,9.148
		c0.691,2.147,2.535,3.143,2.839,5.678c0.676,1.008,2.215,1.151,2.209,2.84c-1.938,0.223-2.4-0.779-4.417,0.315
		c-2.144-1.467-4.792-1.645-7.255-2.523c-2.567-0.917-4.884-2.604-7.571-3.47c-1.232-0.398-2.55-0.574-3.786-0.947
		c-5.106-1.545-11.446-3.28-15.773-5.048c-0.042,0.904-2.166-0.271-2.208,0.632c1.504,0.493,3.632,0.363,3.786,2.208
		c-3.439,4.026-9.377,5.555-13.25,9.148c3.434-1.792,7.41-4.403,11.041-6.31c1.975-1.037,3.581-2.271,5.994-1.893
		c5.738,0.899,13.35,4.761,18.297,6.309c3.104,0.973,4.973,1.775,7.255,2.84c1.706,0.796,2.762,1.78,4.102,2.523
		c0.961,0.534,2.121,0.353,3.155,0.947c4.272,2.453,4.853,8.558,4.416,13.564c2.892,0.052,4.479-1.2,7.256-1.263
		c1.048-4.255,3.647-6.15,6.625-8.517c2.771-2.202,7.955-3.08,12.934-2.523c4.306,0.481,7.55,3.136,10.727,3.47
		c-2.312-2.241-6.32-4.271-10.096-5.047c-1.398-0.288-3.516,0.46-4.102-1.263c4.168-3.299,10.185-4.748,15.459-6.94
		c0.854,0.407,1.121,1.402,2.523,1.262c0.171-1.116-1.118-0.775-0.945-1.892c3.415-2.554,9.844-4.866,15.457-4.417
		c3.257,0.261,6.29,2.338,9.464,3.47c3.541,1.265,6.756,2.25,9.463,3.471c-1.376-1.63-3.548-2.334-5.677-3.155
		c-3.848-1.483-7.26-2.682-10.41-4.417c0.364-1.106,1.977-0.967,3.469-0.946c2.452-2.149,6.239-1.76,9.78-2.207
		c4.294-0.543,8.967-2.167,12.935-2.524c1.181-0.106,2.99-0.479,3.785,0.631c-1.518,1.743-6.776-0.257-7.571,2.209
		c2.647,1.742,5.6,3.163,8.518,4.731c4.179,2.246,8.822,3.626,14.511,3.785c-1.539,1.056-3.685,0.783-5.047,0.632
		c-2.475-0.277-6.193-1.748-9.148-3.155c-2.992-1.425-6.238-2.883-8.202-4.102c-1.155-0.716-1.804-1.979-3.155-2.207
		c-1.225-0.207-3.458,0.638-5.993,0.945c-4.904,0.596-7.082,1.052-10.727,1.894c2.352,2.546,6.293,3.052,9.464,4.416
		c3.384,1.455,6.367,3.359,9.465,4.732c2.16-1.657,7.268-0.802,10.726-1.262c1.715-0.229,2.833-1.356,3.786-0.315
		c-0.949,1.633-3.363,0.998-5.363,1.262c-2.738,0.359-5.616,0.507-8.202,0.63c1.471,1.619,3.36,2.75,5.362,4.102
		c2.975,2.009,5.685,4.178,10.095,4.417c4.95-4.204,15.255-0.48,17.667,2.523c-4.389-1.222-10.707-5.311-15.773-1.894
		c-0.647-0.088-2.083-0.694-2.208,0.316c3.046,3.372,8.254,4.877,13.248,7.256c2.912,1.385,5.212,3.383,8.519,3.47
		c0.466,0.796,1.22,1.305,2.208,1.578c-1.199-3.55-6.53-7.848-3.47-11.673c-1.612-2.488-2.318-5.884-3.47-8.834
		c0.758-1.029,2.25-1.324,2.838-2.523c-1.614-2.22-4.949-0.399-7.255-0.946c-0.191-0.965-0.67-1.643-0.946-2.523
		c0.97-2.9,4.236-2.824,6.939-4.417c0.901-0.53,1.168-1.279,1.894-1.576c2.302-0.943,4.74-0.47,6.94-0.947
		c0.646-3.3,2.266-5.897,5.363-6.309c3.099-0.412,3.642,1.429,5.678,1.577c0.951,0.069,2.282-0.265,3.155-0.632
		c2.585-1.083,4.499-3.54,6.624-5.677c2.176-2.189,5.241-4.077,5.679-6.941c-1.324,0.073-2.076,1.103-3.154,1.578
		c-0.905,0.397-1.974,0.27-2.84,0.63c-1.066,0.444-1.841,1.484-2.84,1.894c-1.678,0.687-3.675,1.078-5.362,1.577
		c-1.849,0.546-3.833,0.615-5.678,1.263c-0.728,0.254-1.271,1.001-1.894,1.262c-2.604,1.091-5.438,1.744-7.887,2.207
		c-1.996,0.378-4.243-0.196-5.993,1.263c0.771,2.279,4.229,1.868,5.678,3.469c-3.726,1.399-4.955-2.705-8.517-3.153
		c-3.194-0.402-7.481,1.777-11.358,2.208c-1.404,0.156-3.062-0.099-4.415,0c-0.967,0.07-2.112,1.257-2.84,0
		c0.976-2.15,3.657-0.917,5.679-1.262c0.938-0.161,1.891-0.802,2.838-0.946c3.501-0.534,7.488-0.411,10.412-1.894
		c-1.779-1.079,0.573-3.659-0.315-4.731c-0.892,6.418-8.225,5.283-15.773,6.31c-1.669,0.227-3.628,0.599-5.363,0.945
		c-3.453,0.692-6.952,1.827-9.78,2.209c-0.88,0.12-1.964-0.153-2.839,0c-1.546,0.272-3.066,1.175-4.731,1.263
		c-1.91,0.1-3.719-0.53-5.363-0.316c-2.428,0.316-3.52,2.415-5.679,0.316c1.89-5.053,7.757-7.807,9.78-11.673
		c-1.023,0.659-1.575,1.79-3.47,1.576c-0.166,1.553-1.168,2.995-2.209,4.102c-2.402,2.556-5.925,5.444-9.148,6.94
		c-4.704,2.185-10.344,3.33-15.143,5.679c-0.892,0.261-0.817-0.445-1.577-0.315c-0.963,1.836-2.825,1.722-4.731,2.208
		c-1.042,0.267-2.066,1.179-3.155,1.577c-3.969,1.455-7.264,2.583-10.41,4.102c-0.739,0.522-0.849,1.675-2.208,1.577
		c-1.866-2.359,0.188-5.825,1.262-7.57c2.049-3.336,4.625-6.84,6.939-9.465c1.068-1.21,2.622-2.164,2.523-3.471
		c-5.811,5.021-10.24,11.421-13.248,19.244c-2.054,2.258-5.016,3.607-8.202,4.731c-1.097-0.71-2.176-1.561-2.524-2.839
		c-0.869-3.19,0.072-8.843,0.314-14.196c0.377-8.256-0.772-15.921,1.578-19.874c1.274,1.02,3.435,0.928,5.363,0.315
		c-1.986-0.537-4.103-0.944-6.31-1.262c-1.995-3.883-1.506-11.793,4.731-10.41c-3.507-3.261-0.081-5.015,3.155-7.256
		c2.081-1.44,4.446-3.011,6.31-3.154c1.758-0.138,2.984,1.169,4.101,0.315c-1.267-0.731-2.693-1.303-3.155-2.839
		c1.956-2.987,5.638-4.248,9.465-5.363c-0.041-0.778-0.048-1.52,0.315-1.894c2.977-1.44,5.29-3.543,9.464-3.785
		c-0.345-1.396,0.534-1.568,0.631-2.523c4.296-1.375,7.016-5.679,12.304-5.048c0.727-0.764-0.321-1.532-0.316-2.523
		c0.9-0.572,1.399-1.545,3.155-1.262c2.429-3.037,6.453-5.605,9.779-7.256c1.283-0.636,3.222-0.647,3.786-2.208
		c-1.354-1.578-2.771,0.304-3.786,0.945c-3.334,1.312-5.412,3.272-8.201,5.048c-5.398,3.438-11.682,7.508-16.721,10.726
		c-0.584,0.374-1.393,0.284-1.893,0.632c-2.394,1.666-4.101,4.204-7.57,4.416c-0.929,0.77-1.194-1.142-2.525-0.946
		c-0.014,1.248-0.694,1.829-0.946,2.839c-7.271,5.031-14.904,9.702-21.136,15.773c-0.496-0.839-1.592-1.363-1.893-2.523
		c-0.282-1.086,0.252-2.772,0.314-4.417c0.23-5.872,0.084-13.031,1.578-16.719c-0.317-0.63-1.395-0.498-1.262-1.578
		c0.698-5.19-0.404-12.182,3.471-14.195c-1.695,0.119-1.931,2.571-3.787,1.577c1.396-5.966-1.927-14.732,2.21-17.982
		c-0.972-0.234-0.607,0.866-1.578,0.632c-2.551-8.324,2.697-15.94,10.727-16.72c0.839-0.933-1.173-0.927-0.632-2.523
		c6.561-3.114,9.413-9.937,16.721-12.304c-0.947-3.425,4.409-4.229,4.415-6.625c-2.043,1.006-2.774,3.323-5.047,4.102
		c-0.649-0.403-1.6-0.503-1.577-1.577c0.707-0.841,1.581,0.445,2.209-0.316c3.951-3.62,8.022-7.119,12.618-10.095
		c-0.533-3.696,0.085-6.757,1.262-9.464c0.498-1.144,1.61-1.836,1.894-3.154c0.287-1.345-0.211-2.962,0-4.732
		c0.929-2.384,2.427-5.013,3.153-7.887c0.326-1.289-0.263-3.099,0.946-4.101c1.747,4.586-2.183,8.45-2.838,12.619
		c-0.29,1.841,0.242,3.661-0.316,5.363c-0.494,1.503-1.66,2.761-2.207,4.415c-0.582,1.756-1.223,3.6-0.632,5.679
		c1.274,0.142,2.18-1.196,2.839-1.893c2.674-2.826,3.202-7.402,5.048-11.041c4.733-9.331,11.64-16.616,23.029-18.297
		c-0.731,2.014-2.621,1.348-4.101,1.892c-4.715,1.736-9.969,5.097-12.936,8.834c-0.928,1.17-1.017,2.822-2.523,3.47
		c-1.146,4.962-5.117,8.751-5.048,13.88c3.519-1.413,6.759-3.379,9.465-5.047c1.014-0.625,2.307-1.061,2.839-2.208
		c0.82-1.178-0.275-4.271,1.262-4.732c0.621,0.853,0.188,2.757,0.316,4.101c2.55-0.287,3.81-1.867,5.993-2.523
		c1.137-3.541,3.511-6.978,6.309-9.148c1.252-0.97,3.241-2.008,4.733-2.208c-2.939,3.476-7.576,5.254-9.148,10.095
		c12.726-5.045,21.689-13.852,29.652-23.66c-3.762,1.517-8.178,3.002-12.934,3.472c-5.956,0.588-9.701,1.573-15.773,1.576
		c-0.019-2.399-2.36-2.477-2.523-4.731c-7.129,1.935-11.911,6.104-17.981,8.517c-1.104-0.788-1.249-2.538-2.524-3.153
		c-1.683,0.217-2.362,2.377-4.416,1.262c-1.933,3.562-11.477,8.325-12.619,0.945c0.731-1.161,1.808-1.978,3.155-2.523
		c1.255-0.204,1.269,0.836,2.523,0.632c5.788-4.203,12.497-7.482,19.875-10.096c-0.183-4.216,1.589-5.756,3.154-8.201
		c0.954-1.49,1.938-3.104,2.839-4.417c2.022-2.95,4.915-5.281,5.994-8.833c-1.354-1.591-4.378-1.511-5.363-3.471
		c0.354-1.434,0.77-2.806,1.578-3.786c-0.396-1.946,0.729-3.722,0.946-5.679c0.333-3-0.606-6.151-0.316-9.148
		c0.233-2.405,1.17-4.957,1.578-7.255c0.451-2.548,1.646-5.245,0.315-7.572c-0.605,1.918-1.567,3.48-2.523,5.048
		c-0.645,0.302-1.249,0.645-1.894,0.946c-4.467,6.048-10.223,10.808-14.827,16.719c1.849,0.263,3.412-1.415,5.049-0.314
		c-1.528,1.101-3.839,1.419-6.625,1.262c-2.927,2.438-5.748,4.978-9.148,6.939c-0.821,1.598-2.127,2.711-3.785,3.471
		c-2.594,4.1-5.877,7.705-8.519,11.357c-0.927,1.28-1.905,2.621-2.523,4.101c4.843,2.629,9.242,0.475,13.88-1.262
		c1.883-0.705,3.816-0.928,5.048-1.894c2.827-2.217,3.914-6.505,7.571-6.309c-3.204,1.99-4.984,6.688-8.834,8.518
		c-0.961,0.457-2.405,0.438-3.785,0.946c-1.069,0.395-2.091,1.273-3.154,1.578c-4.323,1.237-8.352,0.603-12.619,0.63
		c-2.873,2.069-4.714,5.172-7.255,7.572c-0.76,0.128-0.686-0.576-1.578-0.315c-0.873,3.544-3.826,5.006-5.362,7.886
		c5.13,1.231,9.665-0.446,13.881-0.945c1.326-0.158,2.612,0.122,3.785,0c4.86-0.507,7.837-3.097,11.356-4.102
		c0.805-0.231,1.473,0.15,2.208,0c1.392-0.285,2.855-1.825,4.417-0.632c-1.67,1.064-3.799,1.67-6.625,1.578
		c-2.009,0.878-3.977,2.39-6.309,3.155c-0.979,0.32-2.392-0.118-3.155,0.945c1.226,0.94,5.635,0.169,4.417,2.524
		c-1.545-1.358-3.934-0.701-5.679-1.262c-0.714-0.23-1.149-0.848-1.893-0.946c-5.229-0.701-10.896,2.736-16.721,0.946
		c-4.17,2.776-6.644,8.906-5.993,15.457c1.575-0.212,2.228-1.348,3.155-2.208c6.565-2.478,13.767-6.001,19.873-7.887
		c-2.486,3.066-6.893,3.642-10.725,5.363c-1.069,0.48-2.066,1.417-3.155,1.892c-1.355,0.592-2.989,0.672-4.102,1.263
		c-0.752,0.4-1.237,1.57-2.207,1.577c-1.934,2.887-2.689,7.255-2.21,11.988c0.053,0.507,0.644,1.058,0.632,1.577
		c-0.059,2.701-1.054,4.408,0,5.993c5.059-1.082,8.678-4.32,12.304-6.309c1.984-1.089,2.207-1.844,3.47-3.155
		c0.583-0.604,1.342-1.372,1.894-1.893c1.364-1.287,2.598-2.661,3.785-3.785c2.792-2.646,6.122-3.07,9.778-4.732
		c0.497-0.225,2.833-1.347,3.155-1.576c1.747-1.249,2.873-4.393,5.679-4.417c-2.288,3.819-6.093,5.777-10.096,7.57
		c-3.157,1.416-5.883,3.032-7.887,5.047c-3.142,3.165-5.74,6.313-8.832,9.149c-3.653,2.341-7.251,4.736-11.356,6.624
		c-0.099,1.689-1.489,2.088-1.894,3.472c-0.152,6.256,0.44,13.24,0.315,20.188c3.457,1.331,5.333-0.322,7.887-2.523
		c2.621-2.258,4.211-4.31,5.994-6.31c0.234-6.073-0.669-13.286,3.154-15.772c-1.391,3.96-2.885,10.506-1.577,15.143
		c1.779-0.664,4.114-1.898,5.363-3.471c0.522-0.657,1.772-3.061,1.892-3.47c0.994-3.389-0.045-7.365,3.155-9.148
		c0.231-1.256,0.231-1.269,0-2.523c2.956-3.653,4.563-8.521,7.571-11.988c1.152-1.328,2.915-2.169,4.101-3.471
		c0.963-1.056,1.275-3.127,3.155-2.838c-0.671,4.177-4.529,4.981-6.625,7.57c-0.621,0.767-1.037,1.966-1.577,2.84
		c-1.872,3.022-3.47,5.255-5.047,8.201c-0.493,1.479,1.007,1.794,0.315,2.524c-3.325,2.144-3.715,7.222-4.732,11.672
		c-1.992,1.688-4.003,3.358-5.994,5.048c-0.736,0-1.472,0-2.209,0c-1.282,3.186-3.977,4.609-6.309,6.625
		c-2.525,2.182-4.327,4.827-8.201,5.047c-3.93-2.323-1.547-7.621-2.209-13.25c-0.138-1.17-0.633-2.091-0.631-3.155
		c0.002-1.239,0.608-2.737,0.631-4.1c0.022-1.463-0.459-2.706-0.316-3.471c0.549-2.922,3.583-3.181,4.417-4.731
		c-1.116,0.857-3.136,1.262-4.417,0.315c0.318-8.703-0.454-17.933-0.63-25.869c-0.031-0.609-1.231,0.546-1.262-0.63
		c-1.366-5.181-0.99-10.159-1.894-15.773c-1.185,4.407,0.913,9.735,0,13.88c0.074,0.966,1.567,3.038-0.314,3.155
		c-2.387-6.624,0.697-19.832-4.417-23.66c-0.894-0.33-1.314-0.33-2.208,0c-1.129-1.793-3.181-2.201-4.732-3.471
		c-1.118-0.914-2.175-2.086-3.155-2.838c-3.548-2.729-5.634-6.772-9.463-9.15c0.456-1.192-0.867-0.604-0.632-1.576
		c-5.062-4.878-10.823-9.775-15.142-15.143c-1.411-1.753-3.64-3.671-3.155-6.309c0.948,2.138,2.304,3.299,3.471,4.731
		c1.721,2.115,2.891,3.539,4.732,5.363c1.177,1.167,2.313,2.109,3.47,3.155c7.274,6.58,13.459,13.725,20.189,20.505
		c2.053,0.156,2.892,1.524,4.102,2.523c2.606-0.188,3.253,1.584,5.047,2.209c0.687-3.291-0.136-7.328,0.316-10.726
		c-3.979-4.266-8.71-7.425-12.304-11.988c-3.229-4.101-5.495-10.518-10.726-11.356c-1.656-0.266-3.213,0.047-5.047-0.316
		c-3.349-0.664-5.029-2.08-7.256-3.47c-1.255-0.784-3.196-1.37-3.155-2.839c5.15,2.631,9.55,6.013,17.982,5.363
		c-1.811-5.178-3.979-9.954-6.625-14.197c-1.307-2.097-3.013-3.999-4.416-5.994c-1.475-2.094-2.969-4.315-4.102-6.625
		c3.656,1.497,4.602,5.703,7.256,8.203c1.496,3.47,4.236,6.293,5.994,9.779c2.244,4.451,3.356,9.47,5.993,13.565
		c2.679,4.159,6.781,6.579,8.834,11.042c2.564,1.641,4.72,3.69,7.255,5.363c0.105-6.748,0.284-14.975,0.946-22.084
		c-1.188-1.335-2.638-2.409-4.416-3.154c-2.646-5.64-8.433-11.612-9.149-18.613c-0.361-3.526,0.618-7.356,0.947-11.357
		c0.123-1.5-0.62-3.762,0.631-4.732c1.046,6.735-1.521,14.228,0.946,20.821c0.499,1.331,1.687,3.005,2.523,4.417
		c2.312,3.897,4.381,8.3,8.518,9.778c0.33-5.873,1.66-10.749,2.209-16.403c-3.849-5.204-8.416-11.672-7.887-21.136
		c0.148-2.649,0.402-5.68,0.946-7.887c1.891,2.754-0.056,6.877,0,10.095c0.09,5.312,2.519,9.193,4.417,12.303
		c0.975,1.598,1.706,3.425,3.154,4.101c2.112-9.29,2.926-20.319,4.732-29.654c0.507-2.624,0.601-5.842,2.838-7.255
		c-2.783,13.867-4.788,30.073-7.255,43.218c1.16-0.063,1.835-1.637,2.523-2.208c1.303-1.081,3.091-1.66,4.417-2.839
		c2.391-2.128,3.763-5.083,5.363-7.887c1.928-3.38,3.314-6.59,5.047-9.779c0.771-1.42,1.625-3.865,3.785-3.786
		c-2.907,3.522-4.593,9.087-6.624,12.935c-1.326,2.511-3.255,5.076-4.733,6.94c-3.071,3.874-7.066,5.985-10.094,9.464
		c-1.134,12.623-3.566,25.812-1.263,38.171c4.18-4.321,9.201-7.947,13.25-12.62c2.054-2.371,4.218-4.413,6.31-6.624
		c2.068-2.19,4.465-4.349,6.309-6.625c1.864-2.3,2.656-6.43,5.049-6.625c-0.547,1.662-1.628,2.79-1.894,4.732
		c-2.312,2.191-4.059,5.089-6.625,7.571c-0.475,0.459-1.11,0.498-1.577,0.947c-2.89,2.782-4.938,6.399-7.887,9.463
		c-1.402,1.458-3.403,2.857-5.048,4.417c-1.344,1.276-2.341,2.715-3.47,3.47c-0.487,0.326-1.354,0.229-1.893,0.632
		c-0.804,0.602-2.097,3.519-2.208,4.415c-0.268,2.135,0.557,5.623,0.63,8.519c0.089,3.44,0.462,6.234,0.632,9.464
		c0.197,3.759,0.296,6.213,0.946,9.148c3.096-4.687,6.618-8.944,10.41-12.934c0.82-2.473,2.129-4.816,2.523-8.202
		c0.697-5.983-0.065-12.674,4.102-14.196c-2.896,4.361-2.418,12.094-3.47,18.297c3.015-1.401,4.664-4.169,6.624-6.624
		c-0.825,0.088-1.356-0.116-1.262-0.946c1.182-1.44,0.457-3.474,0.631-5.049c0.727-6.594,3.684-12.355,7.256-15.773
		c-2.381,6.251-6.977,11.222-5.679,20.19c3.809-2.948,6.628-7.962,9.78-11.988c1.099-1.404,2.801-2.914,3.153-4.101
		c0.406-1.358-0.159-3.308,0-4.731c0.628-5.602,3-9.732,4.417-14.827c1.272-4.574,1.991-9.532,4.731-11.988
		c-1.531,4.521-2.304,8.782-3.469,13.25c-1.399,5.363-4.979,9.807-4.417,17.035c5.801-4.896,12.251-9.241,17.351-15.142
		c2.481-2.871,5.37-5.364,7.887-8.202c1.233-1.392,2.491-3.099,3.785-4.417c1.19-1.212,3.62-2.214,3.155-4.417
		c-2.254,0.616-4.995,1.333-7.887,2.208c-2.693,0.814-5.384,2.254-7.571,2.524c-5.121,0.631-6.289-2.694-8.202-5.678
		c-4.287,1.047-8.988,6.189-13.565,2.208c-1.322,3.093-2.687,6.146-5.047,8.202c-0.578-1-2.448-0.707-2.84-1.893
		c-2.894-6.395,1.947-12.715,1.262-18.928c-0.148-1.352-1.018-2.576-1.262-3.786c-0.702-3.484-0.884-6.787-1.577-10.095
		c-2.983-0.67-3.172,1.454-5.678,1.262c-1.491-6.921-7.099-9.727-7.887-17.351c-5.978,2.014-11.514,4.47-14.512,9.464
		c-1.367,0-2.734,0-4.102,0c-0.412,2.907-3.294,5.494-4.101,7.887c-0.174,0.519,0.25,1.347,0,1.893
		c-0.514,1.121-1.741,1.925-2.208,3.154c-0.217,0.573,0.128,1.351,0,1.893c-0.928,3.943-3.634,8.104-6.309,9.78
		c-1.997,1.251-3.615,1.038-5.679,0.631c-3.799-0.749-7.807-1.66-11.672-1.894c-2.171,3.525,2.385,14.111-4.102,13.881
		c0.114,3.251,1.661,5.069,1.263,8.833c-3.233,4.498-12.734,0.042-16.72-1.262c-2.838,5.652-7.684,3.757-13.564,2.524
		c-5.256-1.103-9.558-1.633-12.619-3.471c-0.175,4.532,1.044,6.733,2.208,10.095c0.924,2.67,2.418,5.05,2.208,6.625
		c-0.233,1.748-1.897,2-2.523,3.785c4.127,7.544,10.541,12.805,10.094,24.922c-0.966,1.977-3.843,2.045-4.731,4.102
		c2.968,0.923,5.776,2.005,7.256,4.417c0.889,0.478,0.384,2.349,1.577,2.523c1.782-0.217,1.033-2.963,2.208-3.785
		c2.637,2.304,5.164,4.72,8.518,6.309c0.583,0.993,1.459,3.021,2.523,2.523c0.759-1.976,0.675-4.793,2.523-5.679
		c1.302,0.382,1.628,1.738,2.208,2.84c4.356,3.32,7.903,7.448,11.672,11.356c4.457-0.363,9.539,1.348,9.148,5.047
		c-0.17,1.616-1.8,2.918-4.101,3.155c2.535,3.919,7.402,6.848,11.041,9.78c1.313,1.058,2.762,1.825,4.101,2.838
		c2.138,1.618,3.739,3.96,5.679,5.679c2.967,2.63,7.192,6.796,11.672,5.363c1.292-3.27,1.702-8.479,0-11.356
		c-1.585-2.682-6.099-4.362-9.148-6.94c-1.892-1.6-3.197-3.878-4.732-5.048c-0.926-0.706-2.345-1.146-3.47-1.894
		c-3.145-2.088-6.542-6.145-9.463-7.57c-1.858-0.906-3.99-1.104-5.678-2.208c-1.637-1.07-3.316-2.344-4.102-4.102
		c2.098,0.084,3.06,2.174,4.731,3.154c2.271,1.332,4.686,1.624,6.941,3.155c2.016,1.368,3.984,2.612,5.363,4.731
		c2.68,1.315,4.602,3.39,7.571,4.417c2.775,4.69,7.68,7.252,12.934,9.464c-1.459-4.087-0.673-9.258-1.892-13.249
		c-0.681-2.227-2.661-3.252-2.84-5.363c-4.36-3.418-8.396-8.334-12.619-11.988c-1.533-1.326-3.102-3.349-4.417-4.101
		c-2.687-1.535-5.367-0.325-8.833-0.314c-2.816,0.007-5.59-1.51-8.202,0c0.773-0.014,2.637,0.483,1.893,0.945
		c-1.41-0.273-2.599-0.766-4.417-0.631c-0.686-0.261-0.702-1.19-1.578-1.262c-3.568-0.225-8.192-1.411-11.041-1.893
		c-1.968-0.334-4.043-0.036-5.994-0.315c-1.836-0.264-4.684-0.905-5.994-2.208c13.332,1.573,24.819,4.621,41.01,3.47
		c-1.029-2.211-3.264-3.282-5.047-4.731c-3.904-3.176-7.392-6.14-11.356-9.148c-12.253-9.3-26.126-17.406-36.279-28.393
		c-1.745-1.888-3.862-3.876-4.417-6.625c4.988,5.464,10.381,10.569,15.773,15.143c1.649,1.397,3.365,2.604,5.048,3.785
		c5.929,4.162,12.069,8.606,17.981,12.302c1.996,1.248,3.559,2.264,5.363,3.471c2.545,1.704,5.546,4.227,7.887,4.731
		c-1.248-3.782-4.157-6.356-6.309-9.778c-2.148-3.417-3.155-7.371-5.679-10.41c-2.43-2.929-5.36-5.446-7.571-8.518
		c-2.296-3.192-3.688-6.997-6.309-10.095c0.316,0,0.375-0.255,0.631-0.316C90.449,65.272,95.45,72.047,101.355,77.92z
		 M117.129,105.049c-2.437-1.877-5.282-5.021-7.887-5.678C111.749,101.178,114.831,104.086,117.129,105.049z M220.602,200.321
		c0.379,2.798-1.239,3.598-2.209,5.047c1.113-0.044,1.411-0.902,2.523-0.946c0.959-0.562-1.165-1.235,0-1.893
		c0.407-0.435,1.371-0.312,2.21-0.316c0.902-1.474,2.438-2.339,3.785-3.47c1.264-1.062,3.295-2.229,4.101-3.47
		c1.487-2.292,0.23-5.732,2.84-7.57c-0.074,1.818-0.964,2.821-0.632,5.047c1.282-0.336,2.658-1.571,3.786-2.523
		c2.428-2.054,5.32-4.274,6.309-7.257c0.493-1.486,0.209-3.239,0.632-4.731c0.537-1.904,1.766-3.767,2.839-5.047
		c1.053-1.258,2.647-3.392,4.731-2.839c-4.093,2.74-6.334,7.336-6.94,13.563c0.954-0.106,1.609-0.949,1.894-1.262
		c0.269-0.294,0.646-0.047,0.946-0.314c1.641-1.466,2.884-3.511,4.732-5.049c4.024-3.349,8.106-6.173,9.148-11.986
		c-3.396,0.285-6.021,1.342-8.519,2.523c-1.325-0.462-2.389-1.186-2.839-2.523c-3.706,2.683-14.097,7.923-17.351,1.576
		c-6.181,0.398-7.603-3.965-11.356-5.993c-1.614,3.75-2.704,8.021-8.203,7.887c-0.226-0.789-1.138-1.014-1.576-1.577
		c-0.504-0.648-0.365-1.62-1.262-1.893c-4.855,2.332-2.131,11.906-7.887,13.564c-4.215,1.214-7.696-3.04-6.625-8.517
		c2.674-0.889,6.315-2.412,9.464-0.948c1.088-3.554,2.61-8.302,7.571-6.938c-0.7,2.138,0.137,3.323,1.263,4.415
		c4.593-0.559,4.183-6.121,7.255-8.201c2.132,0.497,2.939,2.318,4.732,3.154c5.547-0.866,9.764-3.064,11.672-7.571
		c-2.254-0.945-3.522-2.988-3.471-5.362c0.144-6.653,5.884-12.973,8.519-17.352c-2.225-3.451-0.039-6.916,1.577-11.04
		c2.154-5.503,2.456-10.268,4.416-14.512c-2.603-0.299-3.25,2.366-4.416,3.785c-2.345,2.852-4.853,4.661-7.256,6.941
		c-3.166,2.999-6.02,6.499-9.465,8.832c-1.393,0.943-3.125,1.203-4.101,2.84c1.182,0.255,2.029-1.433,2.524,0
		c-1.42,1.888-2.405,1.155-4.732,0.63c-3.592,2.298-8.139,3.64-11.673,5.995c1.225,1.654,4.241,0.384,5.048,1.892
		c-2.668,1.813-4.716-1.189-7.255-0.946c-1.627,0.155-3.821,2.271-5.679,3.47c-4.168,2.692-7.53,4.821-11.042,7.257
		c-1.998,1.385-4.031,2.499-5.363,4.101c6.222,0.929,11.716,2.586,18.929,2.524c0.528-1.411,2.408-1.941,4.101-2.524
		c1.465-0.505,3.827-1.84,5.048-0.315c-2.036,1.33-5.919,0.812-6.94,3.154c4.295,0.592,6.801,0.122,10.726-0.631
		c2.147-2.916,6.255-4.588,9.78-6.309c1.646-0.805,4.637-3.196,5.678-0.632c-3.106,0.106-5.41,1.874-7.571,3.155
		c-2.242,1.328-4.867,2.203-6.31,4.416c3.071,2.668,11.411,0.486,14.512,0.315c-0.691,2.667-4.548,1.532-6.625,1.577
		c-2.34,0.051-4.622,0.983-6.309,0.632c-1.501-0.314-2.376-1.592-3.471-1.894c-5.123,1.929-10.487-0.114-15.773-0.315
		c-1.436-0.054-2.938,0.418-4.416,0.315c-4.61-0.32-9.458-3.076-13.881-1.893c-2.417,2.84-5.985,4.529-7.571,8.202
		c1.638,1.091,5.89-0.57,6.625,0.632c-1.796,2.211-5.243,0.242-7.887,0.63c-1.646,0.241-2.385,1.589-3.785,1.577
		c-1.526,2.093-2.64,4.099-4.731,5.679c-2.236,1.688-5.5,2.804-6.311,5.994c3.224,0.878,6.498,1.704,8.834,3.469
		c-4.2,0.442-6.896-2.477-10.726-1.892c-2.402,0.367-4.367,2.138-6.31,2.84c0.52,1.239-1.475,1.789-2.209,3.153
		c-1.489,2.774-1.467,6.356,0.315,7.572c5.142,0.291,10.096-2.969,15.458-2.84c2.506,0.061,4.474,1.055,6.625,0.631
		c4.55-0.896,7.53-5.8,9.148-9.148c5.889-2.943,7.888-9.777,8.202-18.297c1.502,1.328,1.023,3.465,0.946,4.732
		c-0.102,1.703-0.533,3.857-0.946,5.362c-0.346,1.256-1.362,3.628-1.893,4.417c-1.287,1.908-3.576,2.912-5.048,4.732
		c-0.836,1.032-0.833,2.524-1.576,3.47c-0.706,0.896-2.524,1.833-3.787,2.839c-1.538,1.225-2.759,2.282-4.1,2.84
		c-2.96,1.228-6.248,0.31-10.412,0.946c-2.687,0.41-5.336,2.633-8.201,3.153c-1.851,0.338-4.144-0.581-5.362,1.262
		c-0.733,4.951-0.085,7.484-0.316,12.936c1.705,0.152,3.235-1.326,4.731-1.894c1.583-0.6,3.319-0.622,5.049-1.262
		c1.896-0.701,3.56-1.969,5.363-3.155c3.541-2.33,7.507-4.328,11.672-5.361c2.167-0.539,5.657-1.738,6.939,0
		c-6.86,0.659-11.631,2.547-15.773,5.678c-2.009,1.518-3.747,3.729-5.993,4.732c-2.621,1.169-5.362,1.258-8.519,2.523
		c-2.271,2.22-3.966,6.657-2.523,10.727c3.98,0.479,11.936-1.501,13.565,3.153c-1.52,0.959-1.356-0.991-3.155-0.63
		c-3.078,0.81-4.891,0.233-8.201,0.63c-0.743,1.76-2.471,3.302-2.839,5.679c-0.197,1.266,0.408,2.752,0.315,4.416
		c-0.06,1.047-0.625,2.184-0.632,3.155c-0.024,3.422-0.353,6.243,0.316,8.518c2.716-0.361,4.303-4.511,7.886-5.048
		c3.04-3.164,7.281-5.127,10.411-8.201c0.859-0.029,0.635,0.524,1.262,0c2.651-7.442,5.928-14.263,9.148-21.137
		c-1.513-3.487,0.785-7.554,3.785-8.518c-1.19,2.174-3.128,3.602-3.155,6.94c1.914,0.107,3.152-1.845,4.417-3.155
		c1.293-1.339,2.566-2.919,3.785-4.416c2.519-3.092,5.99-5.666,7.887-8.834c0.722-1.202,0.498-3.098,2.209-3.47
		c0.035,3.809-1.919,4.827-3.786,6.94c-4.155,4.706-7.654,10.396-12.618,13.564c-0.147,1.115-0.531,1.992-1.578,2.209
		c-1.227,2.563-2.625,5.574-3.785,8.518c-1.11,2.817-3.074,6.14-1.892,9.148c2.264-0.783,4.189-1.909,5.993-3.154
		c-0.049-1.004-0.715-1.389-0.632-2.523c0.808-1.505,1.477-3.426,2.525-5.049c0.902-1.399,2.104-3.42,3.47-3.47
		c-1.039,3.501-4.804,5.899-4.417,9.78c2.219-0.396,4.394-2.136,6.624-3.471c2.289-1.37,4.534-3.072,6.625-4.416
		c0.056-1.081-0.024-2.367,0.316-3.471c1.076-3.501,4.562-7.399,7.57-7.571c-0.915,1.714-2.679,2.579-4.416,3.47
		c-0.609,2.441-2.436,3.664-2.209,6.94c4.625-2.419,7.865-6.226,13.25-7.887c0.184-1.024-0.215-1.467-0.315-2.208
		c2.974-7.83,8.059-15.649,10.41-24.291c0.328-1.205,0.539-2.85,0.631-4.102c0.101-1.342-0.888-2.539,0.316-3.47
		c2.196,1.854-0.565,5.872,0.315,8.203c2.29-1.078,4.366-1.99,6.31-3.472c2.141-1.631,3.456-4.34,5.362-5.993
		c0.763-0.661,2.138-1.879,3.47-1.262c-4.504,4.539-8.65,9.438-14.827,12.304c-3.062,7.453-7.623,13.408-9.778,21.767
		c0.213,0.733,1.047,0.845,1.262,1.578c4.008-0.591,7.324-1.232,9.148-4.102c1.29-2.029,1.269-5.361,2.208-7.571
		c0.457-1.074,1.463-2.857,2.839-2.839C222.801,194.949,221.97,197.904,220.602,200.321z M102.933,130.603
		c1.888,1.144,5.677,2.059,6.31-0.946c-1.417-1.317-4.313-1.156-6.94-1.262C102.53,129.113,102.583,130.005,102.933,130.603z
		 M259.403,172.244c-0.73,0.896-1.282,2.226-1.892,2.84c-2.252,2.26-5.321,3.893-7.887,6.309c-4.282,4.03-9.286,7.488-13.565,11.042
		c-1.868,1.549-3.785,3.173-5.048,5.047c0.761,0.604,1.803-0.532,3.154-0.315c-0.021-1.073-0.098-2.201,0.632-2.523
		c0.688-0.167,2.039-0.763,2.208,0.315c-0.757,0.972-1.436,0.379-0.946,2.208c2.359,0.748,4.536,1.442,6.94,1.577
		c3.424,0.191,6.551-1.39,9.778-1.892c0.94-0.146,2.189,0.074,3.155,0c2.313-0.182,5.089-1.979,6.625-0.316
		c-2.472,0.227-4.517,1.619-6.94,1.578c-4.021-0.07-7.352,1.834-10.727,1.892c-2.989,0.052-5.779-1.467-9.464-1.577
		c-2.777-0.082-4.906,0.909-6.309,1.894c-0.689,0.482-1.289,1.151-1.893,1.577c-4.101,2.886-8.101,4.608-13.249,6.625
		c-6.396,2.505-12.4,5.845-16.721,10.095c-1.202,0.059-2.076,0.448-2.208,1.577c1.894,0.915,6.099,0.642,8.518,1.893
		c1.354-0.118,2.097-0.848,3.47-0.946c0.38,0.913-1.892,1.438-0.315,1.577c2.779,0.298,4.583,1.917,7.257,1.578
		c2.509-0.319,5.002-4.281,7.255-1.578c-1.618,0.18-4.465,0.426-5.363,2.208c2.765,0.453,5.051,1.908,7.887,1.578
		c2.598-0.302,4.876-3.232,7.887-4.102c2.763-0.797,5.711-0.47,8.202-0.946c1.311-0.25,3.061-2.182,4.102,0
		c-2.298,0.183-5.191,1.461-8.203,1.893c-1.441,0.208-2.78-0.086-4.101,0.315c-2.261,0.689-4.446,2.58-5.678,3.785
		c1.13,0.974,3.764,0.442,3.785,2.524c-2.777-0.098-5.64-1.93-8.834-2.524c-6.108-1.137-12.704-2.888-17.665-4.101
		c-1.009-0.247-2.193-0.522-3.155-0.631c-6.52-0.729-10.096,0.063-14.195,2.524c-1.481,0.888-3.475,2.141-3.786,3.785
		c1.566,1.531,5.392-0.836,6.625,1.262c-2.524,1.768-6.666-0.172-10.094,0.315c-2.457,0.35-4.619,1.833-5.995,3.47
		c1.33,2.089,4.991,0.574,6.31,0.632c3.284,0.144,5.16,1.505,7.571,2.523c1.682,0.711,4.206,0.976,4.101,2.84
		c-5.742-1.101-9.212-4.387-16.088-3.786c-1.828-0.852-4.051-0.483-5.995,0.315c-1.837,0.756-4.329,2.574-4.731,3.785
		c1.143,2.645,5.856,1.715,7.887,3.471c0.919-0.591,4.048-0.693,3.786,0.946c-3.502-0.652-6.812,0.85-10.411,0.315
		c-2.587-0.385-4.075-1.746-6.309-0.632c-2.556,1.275-5.267,3.509-7.256,5.363c4.014,4.693,13.216-0.912,18.928,2.523
		c-2.006,1.722-4.316-0.421-6.94,0c-1.914,0.309-3.633,2.294-5.993,2.524c-2.495,0.243-4.065-0.896-6.94-0.631
		c-0.009,1.779-2.089,1.486-3.155,2.208c-0.097,2.155,0.225,3.698,0.947,5.679c4.71,1.191,9.312,2.809,14.512,1.578
		c2.393-0.568,4.417-2.9,6.939-1.894c-0.904,1.095-2.538,1.458-4.416,1.577c-2.536,4.795-9.433,3.286-15.773,2.84
		c-1.437,1.678-1.573,3.857-1.577,5.993c-0.004,1.956-0.526,4.318-0.632,6.625c-0.315,6.948,0.471,13.988,0,19.244
		c1.421,0.457,2.165,0.081,3.785,0.63c1.155-0.736,2.28-1.506,3.471-2.208c2.721-7.374,7.29-12.9,11.673-18.612
		c-1.619-3.136,0.703-6.258,1.892-8.202c0.682-1.114,1.028-2.854,2.209-2.84c-0.287,3.903-4.84,6.604-2.839,10.727
		c4.387-2.694,8.875-5.878,11.672-9.779c0.561-0.783,0.957-2.446,2.208-2.209c-3.19,9.533-13.254,12.194-17.035,21.137
		c-2.461,1.956-4.185,4.647-4.731,8.518c2.56-1.029,4.936-2.31,7.887-3.471c2.809-1.105,6.597-1.599,8.832-3.154
		c2.521-1.756,3.417-6.061,5.679-8.202c0.861-0.815,2.011-1.218,2.84-1.894c2.856-2.325,4.877-5.436,7.571-7.57
		c0.735-2.816,2.331-4.876,3.785-6.625c0.796-0.958,1.695-2.534,2.839-2.208c-0.547,2.923-3.052,3.889-4.101,6.31
		c-3.019,8.443-12.472,10.451-15.458,18.928c10.182-3.488,20.797-6.544,26.184-14.827c-2.088-4.246-0.304-10.125,3.47-11.356
		c-0.862,2.97-4.638,5.513-2.839,9.148c2.803,0.981,5.009-2.149,6.624-3.785c2.06-2.085,5.638-5.153,5.995-8.202
		c0.511-4.379-3.415-10.88,0.63-12.619c-1.188,3.93,0.439,8.251,0.632,12.619c2.928-2.013,5.588-4.624,8.517-6.94
		c2.73-2.158,5.83-5.081,10.096-4.731c-5.971,3.701-11.228,8.12-16.089,12.934c-1.856,3.028-4.818,5.21-6.94,7.57
		c-0.8,0.89-1.358,2.003-2.208,2.84c-0.956,0.94-2.829,1.412-2.839,3.154c1.725,0.617,2.762-0.77,3.47,0.315
		c-0.702,1.892-3.065,0.253-5.048,0.632c-2.32,2.095-4.578,4.254-6.309,6.938c9.084-1.284,19.462-1.878,28.391-4.1
		c0.381-0.988,0.631-2.105,0.948-3.155c2.101-2.796,5.104-4.682,7.57-7.255c2.19-2.286,3.768-4.996,6.31-6.94
		c2.854-2.185,5.953-3.049,9.464-4.102c0.93-0.278,2.666-0.296,3.155-1.577c-2.789-2.469-6.763-3.754-6.625-9.148
		c-1.228-1.319-0.735-3.364-1.262-5.048c-0.621-1.979-2.336-2.867-2.84-4.731c-2.335,0.184-4.34,1.399-6.624,1.893
		c-2.314,0.499-4.673,0.291-6.625,1.262c-1.896,0.942-3.117,3.364-5.995,2.208c0.331-2.013-0.351-3.015-0.945-4.101
		c-2.775,1.412-5.799,2.08-9.465,2.524c-2.825,0.341-6.297,1.637-8.201,2.523c-2.915,1.356-3.94,2.939-5.679,5.047
		c-0.006-0.939-1.489-0.404-1.894-0.946c0.419-2.521-0.845-3.361-0.945-5.362c-7.45-0.514-7.359,9.308-11.988,13.249
		c-0.694,0.591-2.894,1.713-3.47,1.893c-3.613,1.126-6.938-1.454-6.94-4.731c0,0.049,0.373-2.107,0.632-2.523
		c2.018-3.276,8.075-0.929,11.672-0.947c1.757-5.183,5.57-8.308,11.672-9.148c0,0.842,0,1.683,0,2.523
		c1.241,0.126,0.272,2.462,1.577,2.524c1.966-1.416,4.146-3.69,7.571-4.417c0.49-0.104,1.102,0.15,1.578,0
		c0.655-0.208,1.254-0.809,1.892-0.945c1.665-0.359,3.465-0.481,5.047-0.316c2.702-1.092,5.783-3.079,7.572-3.471
		c0.968,1.45,2.101,2.736,2.838,4.417c4.704-2.764,11.727-3.207,16.721-5.679c2.247,1.749,3.318,4.674,5.048,6.94
		c2.651-0.082,4.078-1.389,5.679-2.523c-0.578-1.156-2.084-2.107-3.155-3.47c-0.754-0.958-1.314-2.516-2.208-3.785
		c-1.107-1.574-2.43-2.138-2.523-3.472c-0.224-3.146,3.061-3.872,4.1-6.938c-3.781-0.961-7.3-1.721-6.625-5.68
		c0.422-2.468,4.384-4.556,6.311-5.362c0.307-0.955,0.833-1.69,0.946-2.84c1.228-1.502,3.485-1.996,5.047-3.47
		c1.008-0.951,3.911-4.735,3.786-5.994c-0.131-1.312-2.326-2.424-2.524-3.785c-0.757-5.204,1.224-12.392,2.208-17.981
		c-0.671-0.8-1.974-0.971-2.208-2.208c0.104-0.63,1.019-3.111-0.315-3.155C261.55,170.607,260.354,171.077,259.403,172.244z
		 M117.76,172.559c-1.792-0.526-2.847-3.456-4.417-3.155C114.877,170.19,116.125,172.925,117.76,172.559z M66.654,177.607
		c4.756-0.096,9.15-1.507,14.196-0.316c0.248-1.613-0.443-2.291-0.316-3.785c-7.114,3.258-15.408-1.621-20.505-3.153
		C62.612,172.395,66.104,173.53,66.654,177.607z M197.572,171.929c0.432,1.987,0.079,4.757,2.523,4.731
		c1.354-0.294,1.464-2.021,2.84-0.632c1.246-0.855,1.172-3.033,1.577-4.731C202.649,169.848,199.299,170.64,197.572,171.929z
		 M119.968,174.453c-0.42,0.047-0.952-1.283-1.262-0.315C119.125,174.091,119.88,175.198,119.968,174.453z M90.314,189.279
		c4.429-0.501,3.26-7.209,0.315-8.517c-2.807,0.654-4.074-0.611-5.678,0C86.769,183.571,89.232,185.733,90.314,189.279z
		 M151.198,191.172c0.253,1.078,2.046,0.748,2.84,0.63c1.455-0.216,3.915-1.776,3.471-2.208
		C155.709,190.425,153.817,191.161,151.198,191.172z M152.46,207.261c0.088-0.649,1.176-0.298,1.262-0.947
		C153.251,206.405,151.443,206.721,152.46,207.261z M150.568,221.141c-1.04,0.113-3.343-0.687-3.155,0.946
		c1.587,0.319,4.396-0.856,6.309-1.262C152.758,220.578,151.835,221.003,150.568,221.141z M89.368,247.64
		c0.661-1.384-0.634-2.446-2.523-2.208C87.145,246.708,88.311,247.12,89.368,247.64z M182.431,247.957
		c-1.143,0.964-0.709,4.031,0.314,4.731c3.144,0.724,6.584-0.701,7.256-3.47C187.661,248.612,185.322,248.007,182.431,247.957z
		 M105.456,253.319c-2.234-2.23-6.61-1.173-9.148,0c2.664,1.542,2.945,5.468,7.256,5.363
		C104.364,257.125,105.909,255.134,105.456,253.319z M260.35,254.896c-3.625,2.08-7.665,2.01-11.041,3.786
		c-2.668,1.401-4.133,3.934-5.994,5.993c-3.369,3.73-9.317,6.844-10.095,11.988c2.375-0.205,4.437-0.64,6.625-0.946
		c2.25-0.315,5.087,0.041,6.94-0.947c1.591-0.849,1.709-2.821,2.523-4.102c1.93-3.03,6.149-4.477,8.518-6.624
		c2.364-2.143,4.295-4.786,7.256-5.994c0.659-0.268,2.216-1.023,3.154-0.315c-1.853,0.776-3.502,1.756-5.363,2.523
		c-2.937,3.162-5.09,7.109-9.148,9.148c-0.772,1.646-1.953,2.884-2.208,5.049c12.06-0.465,24.504-3.724,33.124-8.202
		c1.121-0.583,2.979-0.517,3.154-2.209c-4.922-1.913-11.685-1.985-15.457-5.048c-0.628-1.369-1.305-2.69-2.524-3.47
		C265.954,255.551,263.249,256.062,260.35,254.896z M72.963,282.027c-1.709-0.334-3.243-1.616-5.047-0.632
		c-1.938-1.045-4.116-0.031-6.94-0.316c-0.415-0.041-2.282-0.047-1.262,0.316c0.736,0,1.472,0,2.208,0
		c0.963,0.828,2.634-0.484,2.839,0.632c0.373,2.062-2.406,2.631-1.262,4.415c0.775-0.802,0.989-2.165,1.577-3.153
		c2.892-1.31,8.362-1.787,10.726,0.315c0.244,1.927-1.193,2.171-1.577,3.47c1.862-0.515,2.255-2.384,4.101-3.155
		c3.938-1.646,11.014,0.591,14.196,0C87.288,281.882,79.303,283.261,72.963,282.027z M57.19,281.079
		c-0.653,0.189-2.073-0.389-2.208,0.316C55.635,281.208,57.054,281.785,57.19,281.079z M42.679,284.234
		c0.151-0.945,2.347-1.97,0.946-2.523C43.439,282.49,41.75,283.387,42.679,284.234z M196.626,288.651
		c-4.018-1.038-9.217,0.324-11.987,1.262c-1.462,0.495-3.799,0.863-4.102,2.208c3.86,2.976,9.874,3.797,15.143,5.363
		c1.304,1.479,2.702,2.895,4.416,4.102c1.673,1.177,4.281,1.618,5.048,3.785c-3.779-0.776-6.99-5.349-11.988-6.31
		c-0.84-0.161-1.733,0.11-2.523,0c-5.009-0.699-8.665-4.19-12.618-4.732c-3.077-0.421-6.106,0.876-8.833,1.894
		c-1.755,0.654-3.793,1.499-4.732,2.839c3.43,0.042,5.221,1.721,7.887,2.524c1.475,0.34,2.054-1.26,3.155-0.316
		c0.235,1.078-1.282,0.4-0.946,1.578c2.768,1.543,4.833,3.789,7.57,5.363c1.563,0.013,3.399-0.246,3.786,0.945
		c-0.773,0.849-2.261-0.653-3.155,0.316c2.796,3.724,5.529,7.509,8.202,11.355c0.997,0.381,3.355,1.048,2.208,2.524
		c-6.112-4.823-10.172-11.7-16.72-16.088c-0.268-0.927-0.793,0.409-1.577,0c-3.43-3.692-13.421-5.656-18.611-2.84
		c3.927,0.7,5.63,3.623,7.57,6.31c1.343-0.187,2.086,0.227,3.154,0.315c3.051,3.573,5.263,7.986,8.834,11.041
		c1.115-0.987,2.649-1.557,4.416-1.893c2.025,2.293,4.099,3.991,7.256,5.678c2.649,1.416,5.04,2.512,7.255,1.894
		c1.109,0.047,0.759,1.556,2.21,1.262c-0.79-4.574-3.234-7.493-3.155-12.935c0.454-1.018,1.544-1.4,2.523-1.893
		c-1.778-2.849-2.796-6.458-6.31-7.571c-0.492-1.506-1.264-2.731-1.262-4.731c0.954-0.968,3.024-1.09,4.731-0.632
		c3.208,0.861,6.417,4.601,9.465,7.257c3.29,2.865,6.454,5.635,8.202,7.887c6.239,0.594,9.829,3.839,14.512,5.993
		c1.691,1.462,2.777,3.531,5.047,4.417c1.899-3.497,4.765-5.336,9.148-6.311c2.776-0.616,4.353-0.62,6.31-0.314
		c4.913,0.765,10.698,0.412,15.772-0.315c-0.194-1.382-1.938-1.217-3.153-1.578c-7.105-3.65-15.311-6.626-21.768-10.094
		c-2.631-1.414-4.814-2.802-7.256-4.102c-3.239-1.727-6.219-3.74-9.464-5.363c-0.882,6.875,3.646,8.343,5.047,12.934
		c0.573,0.796,2.072,0.663,2.524,1.578c-0.722,0.878-1.968-0.728-1.893,0.946c-0.319,1.696,1.401,3.001,0.946,3.785
		c-3.105-1.226-2.05-5.285-3.155-7.887c-0.854-2.009-3.249-3.486-4.102-5.993c-0.703-2.072-0.283-3.812-0.946-6.31
		c-4.683-1.837-9.086-3.952-13.88-5.679c-0.006,2.645-0.251,3.999,0.631,5.995c1.63,3.687,7.46,4.938,5.047,9.148
		c-1.017-0.351-0.997-1.737-0.946-3.155c-2.981-3.224-6.631-5.776-5.993-12.618C201.221,291.475,199.152,289.303,196.626,288.651z"
		/>
</g>
</svg>
