<?xml version="1.0" encoding="UTF-8" standalone="no"?>
<!-- Created with Inkscape (http://www.inkscape.org/) -->

<svg
   xmlns:dc="http://purl.org/dc/elements/1.1/"
   xmlns:cc="http://creativecommons.org/ns#"
   xmlns:rdf="http://www.w3.org/1999/02/22-rdf-syntax-ns#"
   xmlns:svg="http://www.w3.org/2000/svg"
   xmlns="http://www.w3.org/2000/svg"
   xmlns:sodipodi="http://sodipodi.sourceforge.net/DTD/sodipodi-0.dtd"
   xmlns:inkscape="http://www.inkscape.org/namespaces/inkscape"
   width="583.13629"
   height="586.93848"
   id="svg2"
   version="1.1"
   inkscape:version="0.47 r22583"
   sodipodi:docname="splash.svg"
   style="display:inline">
  <defs
     id="defs4">
    <linearGradient
       id="linearGradient3847">
      <stop
         style="stop-color:#65a9d6;stop-opacity:1;"
         offset="0"
         id="stop3849" />
      <stop
         style="stop-color:#65a9d6;stop-opacity:0;"
         offset="1"
         id="stop3851" />
    </linearGradient>
    <inkscape:perspective
       sodipodi:type="inkscape:persp3d"
       inkscape:vp_x="0 : 526.18109 : 1"
       inkscape:vp_y="0 : 1000 : 0"
       inkscape:vp_z="744.09448 : 526.18109 : 1"
       inkscape:persp3d-origin="372.04724 : 350.78739 : 1"
       id="perspective10" />
    <inkscape:perspective
       id="perspective2884"
       inkscape:persp3d-origin="0.5 : 0.33333333 : 1"
       inkscape:vp_z="1 : 0.5 : 1"
       inkscape:vp_y="0 : 1000 : 0"
       inkscape:vp_x="0 : 0.5 : 1"
       sodipodi:type="inkscape:persp3d" />
    <inkscape:perspective
       id="perspective3696"
       inkscape:persp3d-origin="0.5 : 0.33333333 : 1"
       inkscape:vp_z="1 : 0.5 : 1"
       inkscape:vp_y="0 : 1000 : 0"
       inkscape:vp_x="0 : 0.5 : 1"
       sodipodi:type="inkscape:persp3d" />
    <inkscape:perspective
       id="perspective3718"
       inkscape:persp3d-origin="0.5 : 0.33333333 : 1"
       inkscape:vp_z="1 : 0.5 : 1"
       inkscape:vp_y="0 : 1000 : 0"
       inkscape:vp_x="0 : 0.5 : 1"
       sodipodi:type="inkscape:persp3d" />
    <inkscape:perspective
       id="perspective3753"
       inkscape:persp3d-origin="0.5 : 0.33333333 : 1"
       inkscape:vp_z="1 : 0.5 : 1"
       inkscape:vp_y="0 : 1000 : 0"
       inkscape:vp_x="0 : 0.5 : 1"
       sodipodi:type="inkscape:persp3d" />
    <inkscape:perspective
       id="perspective3775"
       inkscape:persp3d-origin="0.5 : 0.33333333 : 1"
       inkscape:vp_z="1 : 0.5 : 1"
       inkscape:vp_y="0 : 1000 : 0"
       inkscape:vp_x="0 : 0.5 : 1"
       sodipodi:type="inkscape:persp3d" />
    <inkscape:perspective
       id="perspective3797"
       inkscape:persp3d-origin="0.5 : 0.33333333 : 1"
       inkscape:vp_z="1 : 0.5 : 1"
       inkscape:vp_y="0 : 1000 : 0"
       inkscape:vp_x="0 : 0.5 : 1"
       sodipodi:type="inkscape:persp3d" />
    <inkscape:perspective
       id="perspective3819"
       inkscape:persp3d-origin="0.5 : 0.33333333 : 1"
       inkscape:vp_z="1 : 0.5 : 1"
       inkscape:vp_y="0 : 1000 : 0"
       inkscape:vp_x="0 : 0.5 : 1"
       sodipodi:type="inkscape:persp3d" />
  </defs>
  <sodipodi:namedview
     id="base"
     pagecolor="#ffffff"
     bordercolor="#666666"
     borderopacity="1.0"
     inkscape:pageopacity="0.0"
     inkscape:pageshadow="2"
     inkscape:zoom="0.66415557"
     inkscape:cx="341.19846"
     inkscape:cy="261.27674"
     inkscape:document-units="px"
     inkscape:current-layer="layer3"
     showgrid="false"
     inkscape:window-width="1141"
     inkscape:window-height="914"
     inkscape:window-x="48"
     inkscape:window-y="48"
     inkscape:window-maximized="0" />
  <metadata
     id="metadata7">
    <rdf:RDF>
      <cc:Work
         rdf:about="">
        <dc:format>image/svg+xml</dc:format>
        <dc:type
           rdf:resource="http://purl.org/dc/dcmitype/StillImage" />
        <dc:title></dc:title>
      </cc:Work>
    </rdf:RDF>
  </metadata>
  <g
     inkscape:groupmode="layer"
     id="layer3"
     inkscape:label="Calque"
     style="display:inline"
     transform="translate(-96.657501,-249.35538)">
    <g
       id="g3883">
      <path
         sodipodi:nodetypes="cczzzs"
         id="path3686"
         d="m 562.36824,285.97547 c -3.5391,-0.75028 -2.33227,-4.46677 -2.06499,-7.59605 l 14.8632,-22.14096 c 5.21457,-7.76788 8.73959,-6.67625 12.04537,0.37643 3.30578,7.05268 -1.12726,12.09662 -5.64627,17.12701 -4.51901,5.03039 -13.2008,13.50483 -19.19731,12.23357 z"
         style="fill:#408000;fill-opacity:1;stroke:#000000;stroke-width:3;stroke-linecap:round;stroke-linejoin:round;stroke-miterlimit:4;stroke-opacity:1;stroke-dasharray:none;display:inline" />
      <path
         sodipodi:nodetypes="cszzc"
         id="path3686-3"
         d="m 296.43705,746.80998 c -4.62467,10.83206 -7.79509,22.55017 -9.36001,30.99151 -1.62876,8.7857 -7.9302,7.62003 -12.01089,0.98554 -4.08069,-6.63449 -0.24529,-12.14655 3.67707,-17.65486 3.92235,-5.5083 11.59215,-14.9085 17.69383,-14.32219 z"
         style="fill:#408000;fill-opacity:1;stroke:#000000;stroke-width:3;stroke-linecap:round;stroke-linejoin:round;stroke-miterlimit:4;stroke-opacity:1;stroke-dasharray:none;display:inline" />
      <path
         sodipodi:nodetypes="cszzsc"
         id="path3686-3-7"
         d="m 241.41991,796.82461 c -5.20486,9.48706 -12.09662,18.53027 -17.556,24.56611 -5.68208,6.28209 -1.38389,14.49236 6.56166,13.28361 7.94557,-1.20873 10.73484,-12.55144 12.0811,-17.59804 1.34626,-5.0466 4.54857,-11.87102 3.48509,-16.68487 -0.41461,-1.87676 -1.19631,-5.34791 -4.57185,-3.56681 z"
         style="fill:#408000;fill-opacity:1;stroke:#000000;stroke-width:3;stroke-linecap:round;stroke-linejoin:round;stroke-miterlimit:4;stroke-opacity:1;stroke-dasharray:none;display:inline" />
      <path
         sodipodi:nodetypes="cszzsc"
         id="path3686-3-7-4"
         d="m 246.52173,345.79692 c -4.6846,-9.57027 -9.2162,-20.04354 -16.07234,-25.56143 -6.5989,-5.31086 -12.88474,-6.77695 -14.77977,1.03341 -1.89506,7.81037 7.54234,14.69315 11.70131,17.85283 4.15896,3.15968 9.25899,8.711 14.11653,9.5527 1.89379,0.32816 5.40208,0.92135 5.03427,-2.87751 z"
         style="fill:#408000;fill-opacity:1;stroke:#000000;stroke-width:3;stroke-linecap:round;stroke-linejoin:round;stroke-miterlimit:4;stroke-opacity:1;stroke-dasharray:none;display:inline" />
      <path
         sodipodi:nodetypes="cszssc"
         id="path3686-3-7-4-5"
         d="m 152.51104,402.79514 c 0,0 -20.57699,-19.04583 -30.9213,-24.43651 -18.22109,-9.49548 -24.211717,-3.01059 -23.352726,5.64936 0.858958,8.65998 16.360276,11.94057 22.874306,14.40974 2.81048,1.06532 18.91883,5.75376 27.19057,6.18875 2.45954,0.12934 4.20915,-1.81134 4.20915,-1.81134 z"
         style="fill:#408000;fill-opacity:1;stroke:#000000;stroke-width:3;stroke-linecap:round;stroke-linejoin:round;stroke-miterlimit:4;stroke-opacity:1;stroke-dasharray:none;display:inline" />
      <path
         sodipodi:nodetypes="cscc"
         id="path3686-3-7-4-5-2"
         d="m 209.28057,694.16329 c -7.39415,3.17883 -12.43452,6.93969 -17.92295,11.28074 -5.31721,4.20564 -14.62715,25.0149 4.8908,8.21758 2.69298,-3.4833 5.67351,-5.54608 13.03215,-19.49832 z"
         style="fill:#408000;fill-opacity:1;stroke:#000000;stroke-width:3;stroke-linecap:round;stroke-linejoin:round;stroke-miterlimit:4;stroke-opacity:1;stroke-dasharray:none;display:inline" />
      <path
         sodipodi:nodetypes="csssssssssssssssssssssssssssssssssssssssssssssssssssssssssssssssssssssssssssssssssssssssssssssssssssssssssssssssssssssssssssssssssssssss"
         id="path2891-5"
         d="m 250.68449,491.41417 c -44.60157,-21.7653 -135.85185,-67.06868 17.03473,-12.77604 2.87125,1.01963 31.45364,6.46137 2.12934,-8.51736 -5.60856,-2.86483 -12.52957,-6.13524 -10.43219,-8.52582 2.86388,-3.26423 0.35276,-8.71764 -2.83698,-9.55437 -20.41164,-5.35435 4.36826,-7.81209 -6.87855,-15.41982 -12.32713,-8.33849 -20.77971,-20.17556 -30.64856,-28.075 -62.26894,-49.84268 -51.70262,-82.83237 12.91922,-14.26224 5.79786,6.15211 13.30277,3.39942 24.20131,9.63828 6.00141,3.43551 13.40126,14.49425 20.41701,22.25709 3.30175,3.65336 7.73603,-4.49271 5.22419,-8.85043 -20.41972,-35.42549 -0.23299,-23.45159 14.13035,-7.25512 10.83558,12.21848 8.07743,-1.41841 12.30189,-0.3312 5.10307,1.31332 8.55268,9.57842 9.57706,10.4037 12.16245,9.79848 16.57877,-1.00317 10.33566,-5.40807 -7.74368,-5.46363 -0.16241,-7.92997 2.19313,-9.49732 2.34729,-1.56185 -25.7633,-30.97265 -13.39305,-32.51361 13.16598,-1.64008 5.43036,-8.66121 2.86434,-11.0098 -27.39451,-25.07325 -30.10684,-73.55625 9.53685,-23.00312 6.05555,7.72195 10.86824,18.84531 17.86297,31.4318 1.90672,3.43101 -1.11311,18.32922 11.64315,7.68091 2.03648,-1.69995 1.96172,-1.1766 3.09875,-1.95942 2.55628,-1.75994 3.99397,10.18418 6.30662,13.29701 2.31636,3.11781 7.68518,10.18256 8.16586,5.82299 0.36905,-3.34716 5.0187,-6.60054 6.17116,-4.15881 16.76848,35.52768 10.44353,-2.66162 12.77499,-2.99909 7.83599,-1.13425 -8.26005,-32.29892 8.79203,-18.97204 1.23865,0.96806 6.64209,-2.14092 6.82108,-5.96358 3.13694,-66.99668 23.91838,-74.64371 17.11175,-3.4097 -0.22968,2.40368 -2.40542,3.95521 4.72756,7.09796 2.18851,0.96424 9.84662,-0.49178 6.89344,6.25049 -3.39226,7.74474 2.91381,29.23884 8.98359,7.58983 1.33261,-4.75299 8.5558,-23.66352 11.20067,-6.23959 0.56242,3.70511 2.19766,25.8939 9.34471,8.80783 55.5772,-132.86537 80.31632,-123.5775 21.89319,-4.97381 -16.95413,34.41827 3.92004,18.54697 7.33477,13.85079 6.05076,-8.32141 28.29835,-46.56651 28.40011,-28.44937 0.005,0.93685 -2.94413,3.39808 -2.77317,5.286 0.3788,4.1831 4.63054,7.63269 9.28528,0.17631 17.62195,-28.22848 30.11802,-30.15289 28.33743,-19.04111 -1.67932,10.47983 8.75064,-0.76321 13.47534,-6.4647 5.56055,-6.71013 10.22132,-13.63582 15.40466,-18.18697 27.11746,-23.81002 47.04093,-20.11234 17.64572,13.79757 -5.62564,6.48967 -17.43007,10.41057 -25.82896,20.11819 -8.02059,9.27039 -18.93578,13.81935 -23.10692,25.36674 -1.4751,4.08367 -19.52823,16.39738 -3.29173,12.68472 2.59845,-0.59417 2.42498,3.64726 3.44059,5.06763 3.62796,5.07385 5.50112,5.86691 12.69746,-0.80755 41.10001,-38.11943 67.38646,-9.98417 -12.73343,30.11151 -7.66622,3.83653 -39.9083,35.2443 -7.6848,17.29075 2.79572,-1.55765 12.04817,-1.3139 4.96457,7.25692 -2.38293,2.88324 -34.25994,27.21617 11.2376,5.52927 4.41402,-2.10399 6.44977,-0.19091 7.93841,9.34124 2.09026,13.38456 24.9354,-8.38658 31.06621,-10.36515 44.47615,-14.35361 63.40299,16.63028 -20.60091,21.96221 -20.70576,1.31424 -13.93922,7.27656 -6.46387,8.92122 24.98766,5.49756 -9.64096,11.91387 -13.00451,12.7273 -15.97207,3.86262 -34.94558,-2.92743 -33.51926,8.51169 1.33622,10.71653 13.24426,-4.62123 32.39853,0.0189 3.48484,0.8442 22.14638,14.40229 -13.33427,12.09583 -7.04833,-0.45818 -11.82999,8.93615 13.80109,8.16038 12.98612,-0.39305 16.34738,9.96007 -4.0767,7.41904 -5.81748,-0.72377 -26.37237,-1.43805 13.24797,10.37351 184.50265,55.00369 82.37618,57.65296 -9.0497,28.7461 -6.29035,-1.98887 -53.81082,-6.02963 -10.37374,10.64771 8.0077,3.07449 18.19531,11.33698 -4.03493,10.37149 -9.40011,-0.40826 -22.66697,4.88527 1.26184,12.00029 11.55152,3.43475 30.07041,14.68419 1.58549,10.56628 -18.29399,-2.64467 -12.56445,9.05615 2.02623,13.93321 45.41747,15.18119 78.17152,56.60306 15.50686,34.05263 -5.10724,-1.83788 -11.15445,-5.54232 -16.88462,-9.85815 -17.54937,-13.21776 -27.32421,-15.5799 -22.64721,-5.93414 1.16854,2.40998 13.35826,10.68303 -7.24584,2.78736 -26.53958,-10.17019 1.78854,13.58659 8.33347,20.71384 6.54493,7.12725 51.24067,40.41757 -7.53263,14.72689 -3.34549,-1.46236 30.28794,27.20135 5.48573,18.74022 -3.77786,-1.2888 -3.1156,5.57511 -1.38917,7.27767 15.42531,15.21199 13.86725,39.42203 -15.04374,5.18931 -4.5889,-5.43359 -4.04713,-11.74751 -11.66768,-7.1053 -4.7175,2.87377 -8.8963,-6.91544 -12.70549,-12.74437 -13.03913,-19.95289 -41.6499,-53.3721 -12.06982,0.95451 9.83974,18.07161 -4.4389,16.04115 -10.46909,8.23493 -29.46471,-38.14274 -22.23651,-11.48779 -13.39372,9.44229 1.74371,4.1272 -10.20333,0.0848 -10.74237,3.69517 -0.55381,3.70935 4.67483,23.69215 13.71065,34.94981 20.31383,25.30884 -5.49891,79.87093 -28.16251,11.17424 -3.15223,-9.55485 -0.81903,-27.04112 -4.61654,-41.30185 -1.3386,-5.0268 0.41327,-13.446 -2.81304,-18.5435 -5.60726,-8.85935 -17.67897,-13.72973 -10.28468,18.36164 0.83926,3.64242 -1.826,2.59618 -3.81714,1.07212 -3.73518,-2.85897 -14.2182,-6.70451 -8.86923,2.73443 12.27361,21.65834 -13.98536,51.40738 -16.02206,15.27586 -0.54648,-9.69471 1.64722,-11.29603 1.34868,-16.77121 -0.11718,-2.14907 -2.51116,-7.23967 -1.30454,-11.9819 3.94615,-15.50909 -8.10857,-21.72737 -9.51803,-2.78217 -2.22302,29.88053 -12.65218,1.60585 -12.13324,6.08438 5.30709,45.80094 -28.97147,54.70734 -15.1598,-0.76413 0.85952,-3.45205 -2.14293,-8.2637 -1.2772,-12.38193 2.31683,-11.02104 2.25206,-23.98625 1.07381,-34.71146 -2.06518,-18.79867 -7.55117,-30.71574 -9.62955,-13.22062 -0.58468,4.92167 -3.34817,11.79615 -5.06494,21.90114 -0.87217,5.13366 -8.97826,5.32306 -9.5359,1.27736 -1.61392,-11.70904 -5.75611,-15.42383 -7.96566,-5.88306 -8.58291,37.06068 -34.49839,77.05661 -23.98997,15.81778 0.62186,-3.62393 0.32148,-7.89946 2.01596,-12.02618 12.63724,-30.77653 -7.7125,-5.88147 -9.33736,-1.79529 -10.90046,27.41229 -16.83982,5.06947 -8.59886,-11.32937 11.53986,-22.9634 7.67714,-15.90729 8.21692,-16.99016 2.98905,-5.99642 1.84756,-11.13773 -3.75268,-3.95688 -4.4956,5.76444 -0.11247,-6.61705 -6.07783,-1.1677 -3.47966,3.17868 -12.1363,13.28616 -17.54161,17.98567 -6.00514,5.22102 -8.1815,1.72567 -4.64559,-2.93834 5.2397,-6.91137 -1.55428,-9.75689 -5.19896,-0.34305 -0.94532,2.44167 -4.23911,4.10264 -7.16998,6.37919 -22.34779,17.35856 -16.51045,-1.19402 2.62657,-17.06677 3.20919,-2.66178 6.95586,-5.24564 11.26511,-7.24772 1.3089,-0.60811 8.04273,-10.20922 3.07789,-9.25417 -19.57182,3.7649 1.88595,-6.29997 3.7984,-8.80178 3.84829,-5.03424 11.55906,-6.92228 13.85047,-7.72922 5.46758,-1.92545 12.58502,-3.00758 17.4192,-5.75528 14.81701,-8.42185 -30.46025,4.17201 -18.26755,-8.94857 33.73808,-36.30557 -1.56015,-18.5575 -23.4529,-2.25956 -34.51837,25.69702 -95.31014,10.76529 -6.94402,-12.77227 16.97337,-4.52109 24.30429,-9.83183 5.7016,-9.60521 -0.67805,0.008 -5.83751,-1.21895 -10.33682,1.2016 -12.59845,6.77772 -29.58672,2.45108 9.50989,-8.9585 2.63563,-0.76916 27.5494,-11.48069 -3.35012,-8.81979 -5.85048,0.50381 -10.48857,2.86401 -13.93434,4.16436 -18.80198,7.09541 -8.94795,-10.58221 4.44843,-14.18503 6.311,-1.69728 7.93274,-17.71883 -6.28184,-16.0132 -8.50864,1.02096 -20.1102,-4.3535 -29.81947,-4.75189 -8.85167,-0.36321 -17.42142,0.2743 -23.16104,0.72649 -60.26955,4.74822 -45.02223,-41.21747 37.64457,-25.7017 11.11948,2.08702 40.68433,13.02979 31.03559,-6.54687 -2.49741,-5.06707 7.61691,-7.25033 7.61691,-11.59306 0,-1e-5 1e-5,-2e-5 0,-2e-5 z"
         style="fill:#408000;fill-opacity:1;stroke:#000000;stroke-width:3;stroke-linecap:round;stroke-linejoin:round;stroke-miterlimit:4;stroke-opacity:1;stroke-dasharray:none" />
    </g>
  </g>
</svg>
