<?xml version="1.0" encoding="UTF-8" standalone="no"?>
<!-- Created with Inkscape (http://www.inkscape.org/) -->
<svg
   xmlns:dc="http://purl.org/dc/elements/1.1/"
   xmlns:cc="http://creativecommons.org/ns#"
   xmlns:rdf="http://www.w3.org/1999/02/22-rdf-syntax-ns#"
   xmlns:svg="http://www.w3.org/2000/svg"
   xmlns="http://www.w3.org/2000/svg"
   xmlns:sodipodi="http://sodipodi.sourceforge.net/DTD/sodipodi-0.dtd"
   xmlns:inkscape="http://www.inkscape.org/namespaces/inkscape"
   width="712.80127"
   height="786.46783"
   id="svg2"
   sodipodi:version="0.32"
   inkscape:version="0.46"
   sodipodi:docname="tomato.svg"
   inkscape:output_extension="org.inkscape.output.svg.inkscape"
   version="1.0">
  <defs
     id="defs4">
    <inkscape:perspective
       sodipodi:type="inkscape:persp3d"
       inkscape:vp_x="0 : 526.18109 : 1"
       inkscape:vp_y="0 : 1000 : 0"
       inkscape:vp_z="744.09448 : 526.18109 : 1"
       inkscape:persp3d-origin="372.04724 : 350.78739 : 1"
       id="perspective10" />
    <inkscape:perspective
       id="perspective2464"
       inkscape:persp3d-origin="372.04724 : 350.78739 : 1"
       inkscape:vp_z="744.09448 : 526.18109 : 1"
       inkscape:vp_y="0 : 1000 : 0"
       inkscape:vp_x="0 : 526.18109 : 1"
       sodipodi:type="inkscape:persp3d" />
  </defs>
  <sodipodi:namedview
     id="base"
     pagecolor="#ffffff"
     bordercolor="#666666"
     borderopacity="1.0"
     gridtolerance="10000"
     guidetolerance="10"
     objecttolerance="10"
     inkscape:pageopacity="0.0"
     inkscape:pageshadow="2"
     inkscape:zoom="0.49497475"
     inkscape:cx="254.41284"
     inkscape:cy="398.65989"
     inkscape:document-units="px"
     inkscape:current-layer="layer1"
     showgrid="false"
     inkscape:window-width="1280"
     inkscape:window-height="746"
     inkscape:window-x="0"
     inkscape:window-y="32" />
  <metadata
     id="metadata7">
    <rdf:RDF>
      <cc:Work
         rdf:about="">
        <dc:format>image/svg+xml</dc:format>
        <dc:type
           rdf:resource="http://purl.org/dc/dcmitype/StillImage" />
      </cc:Work>
    </rdf:RDF>
  </metadata>
  <g
     inkscape:label="Layer 1"
     inkscape:groupmode="layer"
     id="layer1"
     transform="translate(-14.153571,-41.439339)">
    <path
       style="fill:#b11e0e;fill-opacity:1;fill-rule:evenodd;stroke:none;stroke-width:14.52579021;stroke-linecap:butt;stroke-linejoin:miter;stroke-miterlimit:4;stroke-dasharray:none;stroke-opacity:1"
       d="M 193.65082,115.10587 L 225.81509,99.542502 L 270.43004,79.828941 L 322.30784,57.002707 L 357.58477,46.627138 L 418.80061,41.439339 L 453.03997,43.514464 L 483.12909,49.739812 L 520.48115,65.303151 L 548.49516,81.904038 L 568.20874,98.504954 L 589.99743,113.03074 L 623.19923,131.70676 L 649.13814,152.4579 L 677.15218,178.3968 L 692.71552,205.37326 L 710.35398,242.72531 L 720.72954,273.85199 L 723.84222,297.7158 L 724.87977,331.95515 L 723.84222,376.5701 L 722.80464,435.71081 L 722.80464,485.51353 L 719.69196,516.64022 L 714.5042,550.8796 L 709.31643,574.74338 L 692.71552,610.02031 L 663.66393,646.33477 L 641.87525,673.31123 L 612.82366,707.55061 L 585.8472,736.6022 L 559.90827,763.57865 L 542.26983,781.21711 L 519.44357,799.89313 L 486.24177,814.41891 L 438.51418,827.90716 L 402.1997,827.90716 L 359.65988,818.56914 L 330.60829,807.15602 L 294.29382,796.78045 L 259.01689,783.29224 L 228.92775,773.95422 L 182.23771,746.97776 L 147.99836,721.03882 L 116.87165,694.06238 L 89.895198,660.86057 L 72.256733,627.65877 L 62.918713,600.68229 L 49.430499,558.14249 L 38.017382,499.00175 L 28.67936,464.7624 L 17.266243,405.62169 L 14.153571,356.85651 L 23.491591,317.42936 L 35.942257,287.34024 L 54.618268,261.40133 L 78.48208,230.27462 L 103.38344,201.22304 L 125.17213,176.32168 L 150.07345,148.30767 L 168.7495,131.70676 L 193.65082,115.10587 z"
       id="path2470" />
    <path
       style="fill:#ca1513;fill-opacity:1;fill-rule:evenodd;stroke:none;stroke-width:1px;stroke-linecap:butt;stroke-linejoin:miter;stroke-opacity:1"
       d="M 458.22773,353.74384 L 469.64088,342.33072 L 468.6033,328.84248 L 460.30286,315.35426 L 441.62684,300.82847 L 439.55172,281.11488 L 426.06351,272.81444 L 421.91325,257.2511 L 418.80061,243.76286 L 410.50014,258.28865 L 404.27483,267.62667 L 387.67391,269.70177 L 378.33589,268.66422 L 374.18566,263.47642 L 371.07298,245.83799 L 361.735,232.34974 L 342.02141,208.48593 L 334.75852,198.11036 L 340.98386,192.9226 L 347.2092,190.84747 L 350.32188,184.62215 L 359.65988,173.20903 L 379.37347,157.64567 L 387.67391,128.59408 L 404.27483,165.94614 L 404.27483,186.69724 L 398.04947,197.07281 L 386.63636,210.56106 L 397.01193,212.63615 L 402.1997,220.93663 L 406.34991,217.82395 L 408.42504,203.29817 L 405.31238,186.69724 L 407.38746,157.64567 L 403.23725,136.89455 L 391.82413,117.18097 L 379.37347,103.69272 L 399.08702,104.7303 L 425.02593,102.65518 L 433.3264,100.58008 L 442.66439,119.2561 L 467.56575,100.58008 L 473.79111,104.7303 L 477.94132,113.03074 L 510.10558,116.14342 L 519.44357,109.91807 L 543.30738,118.21851 L 553.68295,125.48142 L 579.62186,137.9321 L 585.8472,143.11988 L 609.71098,154.53299 L 657.43859,187.73482 L 671.96437,216.7864 L 670.92682,226.1244 L 647.06301,252.06331 L 647.06301,265.55154 L 654.32591,270.73931 L 675.07705,268.66422 L 701.01596,272.81444 L 709.31643,283.19001 L 726.95486,311.20405 L 724.87977,366.19453 L 722.80464,413.92213 L 720.72954,452.3117 L 720.72954,485.51353 L 715.54175,534.27867 L 708.27885,577.85604 L 673.00195,632.84654 L 651.21327,660.86057 L 604.52322,720.00129 L 561.98339,763.57865 L 536.04448,790.55513 L 514.2558,799.89313 L 497.65489,803.00581 L 489.35445,798.85558 L 485.20422,770.84155 L 470.67843,758.39088 L 443.70195,741.78997 L 440.58929,763.57865 L 441.62684,771.87909 L 448.88974,783.29224 L 456.15264,793.66778 L 462.37799,814.41891 L 461.34041,819.60672 L 443.70195,827.90716 L 421.91325,827.90716 L 374.18566,822.71936 L 308.81961,800.93068 L 269.39245,785.36734 L 248.64135,774.99177 L 232.04043,770.84155 L 235.15311,754.24066 L 236.19065,739.71486 L 234.11556,718.96374 L 233.07798,710.66329 L 227.8902,699.25014 L 217.51464,688.8746 L 204.0264,673.31123 L 191.57574,669.16102 L 191.57574,669.16102 L 178.08749,658.78545 L 172.89972,654.63522 L 160.44902,658.78545 L 147.99836,648.40988 L 116.87165,631.80899 L 93.00787,614.17052 L 111.68388,580.96872 L 125.17213,564.36781 L 133.47257,543.61669 L 132.43502,529.0909 L 127.24722,527.01578 L 112.72143,529.0909 L 93.00787,522.86556 L 79.519628,490.70131 L 80.557176,470.98774 L 79.519628,450.2366 L 60.843616,420.14747 L 60.843616,368.26963 L 66.031385,362.04431 L 86.782524,352.70629 L 109.60876,350.63117 L 135.54766,355.81897 L 202.98884,370.34476 L 214.40197,384.87054 L 240.34088,393.17099 L 264.20468,393.17099 L 269.39245,402.50901 L 278.73047,409.7719 L 310.89473,382.79542 L 332.68342,366.19453 L 353.43456,361.00674 L 348.24675,372.41985 L 322.30784,393.17099 L 300.51916,415.99722 L 291.18114,441.93615 L 280.80557,470.98774 L 257.97934,484.47595 L 249.6789,500.03933 L 251.75399,507.30222 L 271.46758,514.56511 L 294.29382,520.79043 L 316.0825,547.76692 L 319.19518,550.8796 L 326.45807,549.84202 L 351.35943,548.80447 L 356.5472,558.14249 L 366.92277,563.33026 L 377.29834,566.44293 L 388.71145,566.44293 L 402.1997,562.2927 L 417.76304,549.84202 L 421.91325,545.69179 L 447.8522,528.05333 L 438.51418,511.45244 L 436.43905,503.15197 L 441.62684,475.13797 L 428.13861,467.87506 L 411.53772,455.42438 L 407.38746,427.41037 L 412.57527,424.2977 L 421.91325,419.1099 L 431.25127,410.80945 L 433.3264,372.41985 L 431.25127,363.08186 L 431.25127,357.89406 L 443.70195,362.04431 L 458.22773,353.74384 z"
       id="path2536" />
    <path
       style="fill:#c53e37;fill-opacity:1;fill-rule:evenodd;stroke:none;stroke-width:1px;stroke-linecap:butt;stroke-linejoin:miter;stroke-opacity:1"
       d="M 370.03545,269.70177 L 364.84767,276.96467 L 353.43456,274.88956 L 347.2092,270.73931 L 344.09654,254.13844 L 326.45807,247.91308 L 312.96982,241.68774 L 300.51916,224.0493 L 291.18114,216.7864 L 278.73047,211.59861 L 267.31736,204.33571 L 259.01689,193.96015 L 256.94179,180.47192 L 249.6789,171.1339 L 236.19065,157.64567 L 229.9653,146.23255 L 231.00288,144.15746 L 249.6789,137.9321 L 263.16713,132.74431 L 273.54268,123.40631 L 279.76802,125.48142 L 288.06847,127.55653 L 301.55671,127.55653 L 321.27031,123.40631 L 333.72097,119.2561 L 343.05899,113.03074 L 348.24675,108.88052 L 366.92277,106.8054 L 374.18566,103.69272 L 387.67391,115.10587 L 393.89925,122.36876 L 403.23725,149.34522 L 407.38746,176.32168 L 406.34991,196.03526 L 409.46259,214.71128 L 408.42504,225.08685 L 403.23725,221.97417 L 398.04947,213.67373 L 392.86168,207.44838 L 395.97436,199.14794 L 403.23725,191.88505 L 405.31238,187.73482 L 405.31238,169.05878 L 403.23725,156.60812 L 399.08702,140.0072 L 387.67391,123.40631 L 385.59878,131.70676 L 380.411,136.89455 L 379.37347,155.57057 L 377.29834,166.98369 L 370.03545,172.17145 L 366.92277,170.09637 L 358.62232,173.20903 L 353.43456,179.43435 L 352.39698,185.6597 L 350.32188,191.88505 L 344.09654,190.84747 L 336.83364,188.77237 L 333.72097,190.84747 L 334.75852,200.18549 L 337.87118,209.52351 L 349.2843,217.82395 L 367.96034,239.61264 L 368.9979,253.10088 L 370.03545,269.70177 z"
       id="path2472" />
    <path
       style="fill:#620011;fill-opacity:1;fill-rule:evenodd;stroke:none;stroke-width:1px;stroke-linecap:butt;stroke-linejoin:miter;stroke-opacity:1"
       d="M 363.81009,169.05878 L 363.81009,155.57057 L 358.62232,144.15746 L 350.32188,140.0072 L 343.05899,141.04478 L 337.87118,147.2701 L 342.02141,153.49544 L 349.2843,159.72079 L 355.50965,165.94614 L 363.81009,169.05878 z"
       id="path2474" />
    <path
       style="fill:#620011;fill-opacity:1;fill-rule:evenodd;stroke:none;stroke-width:1px;stroke-linecap:butt;stroke-linejoin:miter;stroke-opacity:1"
       d="M 325.42052,178.3968 L 328.5332,171.1339 L 323.34539,162.83346 L 319.19518,154.53299 L 310.89473,147.2701 L 302.59425,147.2701 L 300.51916,152.4579 L 303.63184,159.72079 L 307.78206,165.94614 L 314.0074,171.1339 L 325.42052,178.3968 z"
       id="path2476" />
    <path
       style="fill:#620011;fill-opacity:1;fill-rule:evenodd;stroke:none;stroke-width:1px;stroke-linecap:butt;stroke-linejoin:miter;stroke-opacity:1"
       d="M 312.96982,184.62215 L 299.48161,182.54703 L 285.99338,176.32168 L 277.69293,171.1339 L 270.43004,170.09637 L 266.27978,174.24658 L 270.43004,181.50947 L 283.91825,187.73482 L 295.33136,188.77237 L 305.70693,186.69724 L 312.96982,184.62215 z"
       id="path2478" />
    <path
       style="fill:#ca1513;fill-opacity:1;fill-rule:evenodd;stroke:none;stroke-width:1px;stroke-linecap:butt;stroke-linejoin:miter;stroke-opacity:1"
       d="M 75.369407,306.01624 L 133.47257,324.69226 L 158.37393,334.03028 L 201.95131,342.33072 L 254.86666,359.96919 L 281.84315,365.15695 L 294.29382,353.74384 L 311.93229,328.84248 L 315.04495,314.31669 L 288.06847,286.30269 L 274.58025,278.00222 L 263.16713,258.28865 L 237.2282,254.13844 L 226.85266,240.65019 L 202.98884,227.16195 L 187.42551,217.82395 L 173.93727,205.37326 L 166.67438,209.52351 L 160.44902,219.89904 L 160.44902,232.34974 L 152.14858,242.72531 L 142.81056,248.95063 L 138.66034,260.36378 L 116.87165,279.03979 L 111.68388,290.4529 L 75.369407,306.01624 z"
       id="path2534" />
    <path
       style="fill:#620011;fill-opacity:1;fill-rule:evenodd;stroke:none;stroke-width:1px;stroke-linecap:butt;stroke-linejoin:miter;stroke-opacity:1"
       d="M 332.68342,200.18549 L 320.23272,202.26062 L 303.63184,200.18549 L 297.40649,203.29817 L 295.33136,209.52351 L 298.44404,213.67373 L 308.81961,214.71128 L 318.15763,212.63615 L 329.57074,211.59861 L 337.87118,209.52351 L 334.75852,205.37326 L 332.68342,200.18549 z"
       id="path2480" />
    <path
       style="fill:#620011;fill-opacity:1;fill-rule:evenodd;stroke:none;stroke-width:1px;stroke-linecap:butt;stroke-linejoin:miter;stroke-opacity:1"
       d="M 361.735,245.83799 L 352.39698,238.57508 L 347.2092,235.46242 L 343.05899,241.68774 L 344.09654,247.91308 L 350.32188,251.02576 L 363.81009,252.06331 L 361.735,245.83799 z"
       id="path2482" />
    <path
       style="fill:#c53e37;fill-opacity:1;fill-rule:evenodd;stroke:none;stroke-width:1px;stroke-linecap:butt;stroke-linejoin:miter;stroke-opacity:1"
       d="M 166.67438,208.48593 L 179.12504,215.74883 L 193.65082,227.16195 L 212.32686,231.31219 L 227.8902,243.76286 L 237.2282,255.17597 L 247.60377,256.21352 L 264.20468,258.28865 L 269.39245,269.70177 L 277.69293,282.15246 L 292.21872,291.49045 L 309.85716,303.94115 L 315.04495,312.2416 L 316.0825,322.61717 L 308.81961,329.88006 L 295.33136,337.14295 L 284.95583,344.40585 L 269.39245,339.21804 L 259.01689,329.88006 L 242.416,314.31669 L 222.70241,296.67826 L 207.13907,287.34024 L 194.6884,282.15246 L 186.38793,281.11488 L 179.12504,283.19001 L 173.93727,293.56558 L 169.78704,300.82847 L 176.0124,309.12892 L 188.46306,319.50449 L 191.57574,330.9176 L 189.50061,335.06783 L 180.16261,337.14295 L 166.67438,336.10538 L 155.26125,331.95515 L 143.84813,323.65471 L 135.54766,315.35426 L 125.17213,306.01624 L 115.83411,297.7158 L 112.72143,289.41535 L 118.94678,276.96467 L 126.20967,269.70177 L 135.54766,263.47642 L 140.73547,259.3262 L 144.88568,248.95063 L 158.37393,239.61264 L 159.41148,229.23706 L 159.41148,224.0493 L 160.44902,217.82395 L 161.4866,214.71128 L 166.67438,208.48593 z"
       id="path2484" />
    <path
       style="fill:#620011;fill-opacity:1;fill-rule:evenodd;stroke:none;stroke-width:1px;stroke-linecap:butt;stroke-linejoin:miter;stroke-opacity:1"
       d="M 201.95131,278.00222 L 209.2142,268.66422 L 214.40197,257.2511 L 215.43952,247.91308 L 214.40197,240.65019 L 208.17662,235.46242 L 200.91372,231.31219 L 194.6884,231.31219 L 191.57574,236.49997 L 191.57574,243.76286 L 190.53818,254.13844 L 190.53818,259.3262 L 190.53818,268.66422 L 195.72595,278.00222 L 201.95131,278.00222 z"
       id="path2486" />
    <path
       style="fill:#620011;fill-opacity:1;fill-rule:evenodd;stroke:none;stroke-width:1px;stroke-linecap:butt;stroke-linejoin:miter;stroke-opacity:1"
       d="M 222.70241,293.56558 L 231.00288,283.19001 L 235.15311,278.00222 L 236.19065,269.70177 L 233.07798,261.40133 L 226.85266,257.2511 L 221.66486,259.3262 L 219.58977,265.55154 L 217.51464,278.00222 L 216.47709,284.22756 L 222.70241,293.56558 z"
       id="path2488" />
    <path
       style="fill:#620011;fill-opacity:1;fill-rule:evenodd;stroke:none;stroke-width:1px;stroke-linecap:butt;stroke-linejoin:miter;stroke-opacity:1"
       d="M 245.52867,308.09137 L 256.94179,300.82847 L 261.09202,293.56558 L 260.05447,288.37778 L 257.97934,281.11488 L 248.64135,279.03979 L 242.416,286.30269 L 235.15311,295.64068 L 235.15311,300.82847 L 236.19065,308.09137 L 245.52867,308.09137 z"
       id="path2490" />
    <path
       style="fill:#620011;fill-opacity:1;fill-rule:evenodd;stroke:none;stroke-width:1px;stroke-linecap:butt;stroke-linejoin:miter;stroke-opacity:1"
       d="M 268.35491,327.80493 L 281.84315,330.9176 L 293.25627,327.80493 L 299.48161,324.69226 L 302.59425,316.39181 L 304.66938,313.27915 L 295.33136,311.20405 L 281.84315,313.27915 L 273.54268,314.31669 L 269.39245,320.54204 L 268.35491,327.80493 z"
       id="path2492" />
    <path
       style="fill:#620011;fill-opacity:1;fill-rule:evenodd;stroke:none;stroke-width:1px;stroke-linecap:butt;stroke-linejoin:miter;stroke-opacity:1"
       d="M 163.5617,293.56558 L 169.78704,283.19001 L 170.82459,265.55154 L 166.67438,251.02576 L 158.37393,249.98821 L 153.18613,252.06331 L 147.99836,258.28865 L 146.96081,265.55154 L 147.99836,272.81444 L 152.14858,282.15246 L 163.5617,293.56558 z"
       id="path2494" />
    <path
       style="fill:#620011;fill-opacity:1;fill-rule:evenodd;stroke:none;stroke-width:1px;stroke-linecap:butt;stroke-linejoin:miter;stroke-opacity:1"
       d="M 152.14858,299.7909 L 153.18613,293.56558 L 141.77302,284.22756 L 135.54766,275.92712 L 127.24722,278.00222 L 121.02187,285.26511 L 125.17213,292.528 L 134.51011,298.75335 L 152.14858,299.7909 z"
       id="path2496" />
    <path
       style="fill:#620011;fill-opacity:1;fill-rule:evenodd;stroke:none;stroke-width:1px;stroke-linecap:butt;stroke-linejoin:miter;stroke-opacity:1"
       d="M 158.37393,307.05379 L 173.93727,310.16647 L 180.16261,314.31669 L 178.08749,318.46694 L 168.7495,322.61717 L 158.37393,322.61717 L 149.03591,320.54204 L 143.84813,316.39181 L 141.77302,313.27915 L 149.03591,309.12892 L 158.37393,307.05379 z"
       id="path2498" />
    <path
       style="fill:#c53e37;fill-opacity:1;fill-rule:evenodd;stroke:none;stroke-width:1px;stroke-linecap:butt;stroke-linejoin:miter;stroke-opacity:1"
       d="M 177.04994,394.20854 L 183.27529,400.43388 L 194.6884,398.35879 L 189.50061,393.17099 L 159.41148,389.02077 L 127.24722,381.75787 L 89.895198,376.5701 L 71.219185,370.34476 L 62.918713,371.38231 L 60.843616,376.5701 L 59.806068,400.43388 L 63.95629,419.1099 L 74.331859,440.89858 L 81.594753,461.64972 L 78.48208,490.70131 L 85.744976,504.18954 L 90.932745,513.52754 L 95.082967,529.0909 L 99.233189,534.27867 L 108.57121,528.05333 L 119.98433,525.97824 L 147.99836,522.86556 L 162.52415,516.64022 L 168.7495,512.48999 L 172.89972,497.9642 L 193.65082,492.77642 L 218.55218,486.55108 L 252.79157,480.32574 L 277.69293,473.06284 L 284.95583,466.83749 L 284.95583,453.34928 L 282.8807,436.74836 L 277.69293,430.52302 L 265.24223,424.2977 L 253.82911,426.37279 L 250.71645,433.63568 L 256.94179,439.86104 L 259.01689,450.2366 L 253.82911,458.53704 L 241.37845,458.53704 L 234.11556,451.27415 L 231.00288,445.04881 L 206.10152,448.16148 L 207.13907,462.68727 L 201.95131,481.36329 L 188.46306,488.62618 L 178.08749,485.51353 L 174.97482,477.21306 L 179.12504,461.64972 L 179.12504,452.3117 L 169.78704,452.3117 L 159.41148,469.95016 L 144.88568,482.40086 L 132.43502,486.55108 L 124.13455,484.47595 L 125.17213,477.21306 L 129.32235,470.98774 L 137.62279,460.61217 L 147.99836,450.2366 L 136.58524,459.57459 L 121.02187,467.87506 L 108.57121,465.79995 L 98.195641,460.61217 L 96.120544,451.27415 L 99.233189,444.01126 L 108.57121,438.82349 L 123.097,435.71081 L 135.54766,433.63568 L 143.84813,434.67326 L 125.17213,431.5606 L 114.79656,430.52302 L 103.38344,427.41037 L 103.38344,417.0348 L 110.64634,411.847 L 124.13455,410.80945 L 131.39745,411.847 L 116.87165,408.73433 L 95.082967,408.73433 L 93.00787,398.35879 L 98.195641,392.13344 L 105.45854,390.05831 L 115.83411,390.05831 L 123.097,393.17099 L 133.47257,398.35879 L 141.77302,406.65924 L 151.11104,407.69678 L 157.33636,403.54656 L 156.29881,398.35879 L 161.4866,395.24612 L 168.7495,394.20854 L 177.04994,394.20854 z"
       id="path2500" />
    <path
       style="fill:#c53e37;fill-opacity:1;fill-rule:evenodd;stroke:none;stroke-width:1px;stroke-linecap:butt;stroke-linejoin:miter;stroke-opacity:1"
       d="M 319.19518,411.847 L 340.98386,395.24612 L 337.87118,414.95968 L 338.90873,429.48547 L 339.94631,442.9737 L 338.90873,452.3117 L 334.75852,453.34928 L 327.49562,430.52302 L 322.30784,422.22258 L 319.19518,411.847 z"
       id="path2502" />
    <path
       style="fill:#c53e37;fill-opacity:1;fill-rule:evenodd;stroke:none;stroke-width:1px;stroke-linecap:butt;stroke-linejoin:miter;stroke-opacity:1"
       d="M 315.04495,510.41486 L 327.49562,493.81397 L 336.83364,492.77642 L 344.09654,494.85152 L 351.35943,492.77642 L 364.84767,487.58863 L 366.92277,475.13797 L 364.84767,449.19906 L 376.26079,446.08638 L 381.44856,462.68727 L 382.48613,476.17551 L 384.56123,492.77642 L 388.71145,505.22709 L 391.82413,518.71533 L 393.89925,538.4289 L 395.97436,551.91713 L 397.01193,564.36781 L 394.9368,565.40538 L 383.52368,556.06736 L 345.13409,536.3538 L 333.72097,533.24113 L 324.38295,530.12845 L 315.04495,518.71533 L 315.04495,510.41486 z"
       id="path2504" />
    <path
       style="fill:#c53e37;fill-opacity:1;fill-rule:evenodd;stroke:none;stroke-width:1px;stroke-linecap:butt;stroke-linejoin:miter;stroke-opacity:1"
       d="M 300.51916,559.18004 L 307.78206,558.14249 L 315.04495,550.8796 L 308.81961,534.27867 L 296.36893,520.79043 L 277.69293,514.56511 L 250.71645,512.48999 L 231.00288,522.86556 L 214.40197,535.31622 L 194.6884,552.95468 L 179.12504,563.33026 L 167.71192,573.70583 L 158.37393,583.04382 L 144.88568,595.49451 L 138.66034,599.64474 L 126.20967,602.7574 L 142.81056,630.77144 L 156.29881,655.67277 L 161.4866,661.89811 L 173.93727,652.56013 L 191.57574,653.59767 L 219.58977,652.56013 L 239.30332,648.40988 L 253.82911,644.25965 L 278.73047,635.9592 L 300.51916,634.92167 L 319.19518,632.84654 L 323.34539,628.69631 L 330.60829,608.98276 L 333.72097,598.60718 L 328.5332,592.38184 L 322.30784,589.26916 L 310.89473,592.38184 L 297.40649,596.53206 L 289.10604,596.53206 L 288.06847,605.87008 L 279.76802,617.2832 L 261.09202,626.62118 L 247.60377,629.73386 L 240.34088,627.65877 L 234.11556,622.47097 L 234.11556,615.20807 L 239.30332,608.98276 L 248.64135,600.68229 L 233.07798,605.87008 L 222.70241,612.0954 L 220.62731,623.50854 L 211.28929,635.9592 L 199.87618,641.14698 L 190.53818,638.03433 L 199.87618,630.77144 L 206.10152,623.50854 L 211.28929,617.2832 L 216.47709,610.02031 L 213.36442,605.87008 L 211.28929,596.53206 L 199.87618,596.53206 L 189.50061,599.64474 L 169.78704,601.71986 L 164.59925,600.68229 L 166.67438,593.41938 L 171.86214,589.26916 L 190.53818,586.15649 L 204.0264,586.15649 L 212.32686,587.19406 L 222.70241,584.0814 L 228.92775,580.96872 L 222.70241,575.78092 L 211.28929,570.59315 L 200.91372,566.44293 L 194.6884,563.33026 L 196.7635,555.02981 L 210.25175,553.99223 L 219.58977,559.18004 L 234.11556,570.59315 L 243.45355,573.70583 L 252.79157,569.5556 L 251.75399,567.48048 L 246.56622,564.36781 L 241.37845,559.18004 L 231.00288,552.95468 L 226.85266,547.76692 L 229.9653,544.65424 L 238.26577,542.57911 L 247.60377,546.72934 L 253.82911,550.8796 L 264.20468,560.21758 L 270.43004,561.25513 L 280.80557,559.18004 L 276.65536,555.02981 L 273.54268,546.72934 L 277.69293,540.50402 L 281.84315,540.50402 L 287.03091,542.57911 L 295.33136,547.76692 L 300.51916,559.18004 z"
       id="path2506" />
    <path
       style="fill:#620011;fill-opacity:1;fill-rule:evenodd;stroke:none;stroke-width:1px;stroke-linecap:butt;stroke-linejoin:miter;stroke-opacity:1"
       d="M 202.98884,611.05785 L 194.6884,605.87008 L 181.20016,604.8325 L 169.78704,608.98276 L 162.52415,615.20807 L 162.52415,622.47097 L 162.52415,629.73386 L 169.78704,634.92167 L 178.08749,633.88409 L 190.53818,627.65877 L 195.72595,622.47097 L 202.98884,611.05785 z"
       id="path2508" />
    <path
       style="fill:#c53e37;fill-opacity:1;fill-rule:evenodd;stroke:none;stroke-width:1px;stroke-linecap:butt;stroke-linejoin:miter;stroke-opacity:1"
       d="M 327.49562,655.67277 L 308.81961,663.97324 L 289.10604,670.19856 L 270.43004,673.31123 L 265.24223,677.46145 L 253.82911,697.17504 L 241.37845,718.96374 L 234.11556,724.1515 L 243.45355,731.4144 L 255.90424,732.45197 L 267.31736,733.48952 L 285.99338,735.56462 L 300.51916,739.71486 L 316.0825,743.86509 L 330.60829,746.97776 L 344.09654,750.09041 L 352.39698,752.16554 L 360.69745,759.42843 L 378.33589,769.804 L 394.9368,780.17957 L 405.31238,779.14199 L 410.50014,777.0669 L 415.68793,772.91667 L 421.91325,758.39088 L 422.95084,744.90264 L 422.95084,714.81351 L 414.65036,704.43794 L 408.42504,693.02483 L 394.9368,685.76193 L 391.82413,686.79947 L 392.86168,694.06238 L 398.04947,701.32527 L 406.34991,711.70084 L 411.53772,723.11395 L 410.50014,732.45197 L 408.42504,742.82752 L 401.16215,749.05286 L 391.82413,742.82752 L 385.59878,728.30172 L 388.71145,710.66329 L 379.37347,725.18908 L 372.11057,717.92618 L 373.14811,727.26418 L 372.11057,743.86509 L 363.81009,750.09041 L 354.47211,743.86509 L 351.35943,726.22663 L 354.47211,708.58816 L 359.65988,702.36282 L 364.84767,702.36282 L 367.96034,698.21259 L 365.88522,690.9497 L 362.77255,687.83702 L 344.09654,685.76193 L 335.79609,689.91215 L 334.75852,702.36282 L 334.75852,716.88861 L 329.57074,733.48952 L 318.15763,738.67729 L 310.89473,734.52707 L 305.70693,728.30172 L 311.93229,714.81351 L 325.42052,699.25014 L 328.5332,693.02483 L 325.42052,688.8746 L 319.19518,687.83702 L 310.89473,690.9497 L 294.29382,706.51304 L 284.95583,715.85106 L 280.80557,712.73838 L 285.99338,704.43794 L 293.25627,700.28772 L 303.63184,689.91215 L 295.33136,694.06238 L 285.99338,693.02483 L 289.10604,686.79947 L 299.48161,683.68681 L 307.78206,680.57413 L 312.96982,675.38636 L 320.23272,668.12347 L 327.49562,655.67277 z"
       id="path2510" />
    <path
       style="fill:#c53e37;fill-opacity:1;fill-rule:evenodd;stroke:none;stroke-width:1px;stroke-linecap:butt;stroke-linejoin:miter;stroke-opacity:1"
       d="M 435.4015,627.65877 L 460.30286,658.78545 L 478.97887,700.28772 L 495.57979,727.26418 L 504.91778,744.90264 L 514.2558,736.6022 L 518.40602,714.81351 L 511.14313,715.85106 L 509.068,710.66329 L 509.068,703.4004 L 519.44357,696.13749 L 533.96936,689.91215 L 539.15716,681.6117 L 542.26983,679.53658 L 551.60782,681.6117 L 563.02094,684.72436 L 569.24629,670.19856 L 576.50918,661.89811 L 587.9223,646.33477 L 579.62186,638.03433 L 578.58431,618.32075 L 587.9223,607.94518 L 603.48564,596.53206 L 614.89879,598.60718 L 622.16168,600.68229 L 630.46213,604.8325 L 641.87525,599.64474 L 648.10059,591.34429 L 650.17569,583.04382 L 650.17569,571.6307 L 642.91279,571.6307 L 626.31191,573.70583 L 608.67345,568.51802 L 588.95985,555.02981 L 567.17116,547.76692 L 543.30738,549.84202 L 523.59379,546.72934 L 501.80511,542.57911 L 488.3169,539.46645 L 478.97887,535.31622 L 459.26531,536.3538 L 447.8522,541.54157 L 422.95084,548.80447 L 418.80061,555.02981 L 425.02593,561.25513 L 433.3264,565.40538 L 439.55172,566.44293 L 438.51418,560.21758 L 438.51418,549.84202 L 447.8522,544.65424 L 458.22773,549.84202 L 460.30286,565.40538 L 462.37799,569.5556 L 470.67843,572.66828 L 475.8662,571.6307 L 474.82865,561.25513 L 476.90377,557.10491 L 484.16667,548.80447 L 493.50466,548.80447 L 498.69247,553.99223 L 499.73,565.40538 L 500.76756,575.78092 L 513.21825,575.78092 L 526.70646,574.74338 L 536.04448,560.21758 L 545.38248,555.02981 L 560.94584,552.95468 L 564.05852,558.14249 L 560.94584,565.40538 L 549.53273,570.59315 L 544.34493,576.8185 L 546.42006,579.93117 L 557.83318,577.85604 L 568.20874,571.6307 L 580.65941,565.40538 L 587.9223,562.2927 L 593.11009,565.40538 L 598.29787,571.6307 L 593.11009,574.74338 L 570.28384,584.0814 L 559.90827,586.15649 L 558.87072,589.26916 L 558.87072,596.53206 L 564.05852,596.53206 L 576.50918,591.34429 L 589.99743,589.26916 L 597.26032,591.34429 L 594.14765,597.56961 L 577.54673,606.90763 L 564.05852,606.90763 L 553.68295,604.8325 L 544.34493,604.8325 L 539.15716,607.94518 L 542.26983,610.02031 L 555.75805,617.2832 L 570.28384,627.65877 L 567.17116,633.88409 L 559.90827,636.99675 L 546.42006,630.77144 L 536.04448,623.50854 L 526.70646,617.2832 L 516.33089,619.35829 L 523.59379,626.62118 L 538.11959,644.25965 L 546.42006,655.67277 L 543.30738,662.93566 L 536.04448,662.93566 L 530.85669,655.67277 L 524.63138,646.33477 L 517.36847,635.9592 L 508.03045,629.73386 L 501.80511,641.14698 L 503.88023,650.485 L 513.21825,655.67277 L 524.63138,668.12347 L 522.55625,676.42391 L 514.2558,677.46145 L 505.95536,673.31123 L 504.91778,674.34881 L 508.03045,678.49904 L 505.95536,687.83702 L 499.73,695.09992 L 484.16667,695.09992 L 478.97887,687.83702 L 472.75352,678.49904 L 472.75352,665.01079 L 470.67843,646.33477 L 461.34041,639.07188 L 453.03997,630.77144 L 435.4015,627.65877 z"
       id="path2512" />
    <path
       style="fill:#c53e37;fill-opacity:1;fill-rule:evenodd;stroke:none;stroke-width:1px;stroke-linecap:butt;stroke-linejoin:miter;stroke-opacity:1"
       d="M 411.53772,426.37279 L 407.38746,436.74836 L 408.42504,445.04881 L 412.57527,456.46195 L 425.02593,466.83749 L 436.43905,476.17551 L 457.19018,478.25063 L 495.57979,482.40086 L 533.96936,475.13797 L 545.38248,465.79995 L 558.87072,467.87506 L 571.32141,477.21306 L 578.58431,479.28819 L 616.97389,479.28819 L 621.12411,475.13797 L 615.93634,468.91261 L 596.22275,453.34928 L 588.95985,440.89858 L 580.65941,435.71081 L 569.24629,430.52302 L 560.94584,431.5606 L 564.05852,441.93615 L 561.98339,452.3117 L 551.60782,458.53704 L 541.23225,454.38683 L 533.96936,435.71081 L 533.96936,428.44792 L 528.78159,427.41037 L 519.44357,429.48547 L 517.36847,445.04881 L 510.10558,457.4995 L 500.76756,464.7624 L 485.20422,458.53704 L 485.20422,450.2366 L 487.27932,438.82349 L 489.35445,430.52302 L 483.12909,432.59813 L 475.8662,444.01126 L 458.22773,456.46195 L 443.70195,456.46195 L 431.25127,449.19906 L 430.21373,446.08638 L 427.10106,438.82349 L 425.02593,433.63568 L 419.83816,428.44792 L 411.53772,426.37279 z"
       id="path2514" />
    <path
       style="fill:#c53e37;fill-opacity:1;fill-rule:evenodd;stroke:none;stroke-width:1px;stroke-linecap:butt;stroke-linejoin:miter;stroke-opacity:1"
       d="M 627.34945,337.14295 L 634.61234,325.72983 L 640.8377,317.42936 L 647.06301,309.12892 L 665.73906,306.01624 L 669.88927,311.20405 L 670.92682,340.25562 L 668.8517,356.85651 L 664.70148,356.85651 L 657.43859,357.89406 L 644.98791,355.81897 L 639.80012,347.51853 L 635.64989,344.40585 L 627.34945,337.14295 z"
       id="path2516" />
    <path
       style="fill:none;fill-rule:evenodd;stroke:#000000;stroke-width:2.90515804px;stroke-linecap:butt;stroke-linejoin:miter;stroke-opacity:1"
       d="M 589.99743,363.08186 L 602.44809,352.70629 L 608.67345,344.40585 L 612.82366,338.18051 L 611.78611,331.95515 L 603.48564,330.9176 L 599.33543,336.10538 L 593.11009,346.48095 L 589.99743,363.08186 z"
       id="path2518" />
    <path
       style="fill:none;fill-rule:evenodd;stroke:#000000;stroke-width:2.90515804px;stroke-linecap:butt;stroke-linejoin:miter;stroke-opacity:1"
       d="M 620.08655,465.79995 L 640.8377,473.06284 L 651.21327,468.91261 L 655.36348,463.72485 L 653.28836,456.46195 L 647.06301,451.27415 L 634.61234,452.3117 L 628.387,456.46195 L 620.08655,465.79995 z"
       id="path2520" />
    <path
       style="fill:#c53e37;fill-opacity:1;fill-rule:evenodd;stroke:none;stroke-width:1px;stroke-linecap:butt;stroke-linejoin:miter;stroke-opacity:1"
       d="M 454.07752,297.7158 L 475.8662,273.85199 L 480.01643,282.15246 L 490.39198,287.34024 L 501.80511,292.528 L 519.44357,294.60313 L 501.80511,301.86602 L 484.16667,308.09137 L 466.5282,302.90358 L 454.07752,297.7158 z"
       id="path2522" />
    <path
       style="fill:#c53e37;fill-opacity:1;fill-rule:evenodd;stroke:none;stroke-width:1px;stroke-linecap:butt;stroke-linejoin:miter;stroke-opacity:1"
       d="M 517.36847,255.17597 L 536.04448,265.55154 L 537.08204,273.85199 L 528.78159,282.15246 L 551.60782,282.15246 L 560.94584,275.92712 L 564.05852,266.5891 L 565.09607,260.36378 L 568.20874,257.2511 L 559.90827,254.13844 L 545.38248,246.87553 L 533.96936,245.83799 L 518.40602,247.91308 L 517.36847,255.17597 z"
       id="path2524" />
    <path
       style="fill:#c53e37;fill-opacity:1;fill-rule:evenodd;stroke:none;stroke-width:1px;stroke-linecap:butt;stroke-linejoin:miter;stroke-opacity:1"
       d="M 541.23225,236.49997 L 573.39652,223.01172 L 597.26032,219.89904 L 613.86121,213.67373 L 626.31191,210.56106 L 619.049,196.03526 L 601.41054,180.47192 L 570.28384,162.83346 L 559.90827,162.83346 L 547.45761,160.75834 L 538.11959,163.87101 L 536.04448,173.20903 L 536.04448,181.50947 L 542.26983,189.80992 L 558.87072,202.26062 L 566.13362,215.74883 L 541.23225,236.49997 z"
       id="path2526" />
    <path
       style="fill:#c53e37;fill-opacity:1;fill-rule:evenodd;stroke:none;stroke-width:1px;stroke-linecap:butt;stroke-linejoin:miter;stroke-opacity:1"
       d="M 491.42956,129.63166 L 500.76756,141.04478 L 505.95536,155.57057 L 504.91778,162.83346 L 491.42956,159.72079 L 485.20422,153.49544 L 473.79111,157.64567 L 467.56575,169.05878 L 472.75352,180.47192 L 473.79111,189.80992 L 467.56575,197.07281 L 462.37799,183.58458 L 456.15264,178.3968 L 452.00241,181.50947 L 450.96484,197.07281 L 458.22773,205.37326 L 461.34041,211.59861 L 453.03997,226.1244 L 441.62684,230.27462 L 439.55172,206.41083 L 444.73952,171.1339 L 448.88974,154.53299 L 466.5282,124.44386 L 476.90377,124.44386 L 486.24177,129.63166 L 491.42956,129.63166 z"
       id="path2528" />
    <path
       style="fill:#620011;fill-opacity:1;fill-rule:evenodd;stroke:none;stroke-width:1px;stroke-linecap:butt;stroke-linejoin:miter;stroke-opacity:1"
       d="M 490.39198,200.18549 L 502.84268,200.18549 L 518.40602,196.03526 L 522.55625,185.6597 L 519.44357,179.43435 L 510.10558,177.35926 L 502.84268,179.43435 L 494.54221,184.62215 L 490.39198,200.18549 z"
       id="path2530" />
    <path
       style="fill:#620011;fill-opacity:1;fill-rule:evenodd;stroke:none;stroke-width:1px;stroke-linecap:butt;stroke-linejoin:miter;stroke-opacity:1"
       d="M 510.10558,223.01172 L 522.55625,215.74883 L 535.00693,212.63615 L 541.23225,208.48593 L 544.34493,197.07281 L 539.15716,194.99772 L 526.70646,196.03526 L 518.40602,206.41083 L 511.14313,216.7864 L 510.10558,223.01172 z"
       id="path2532" />
    <path
       style="fill:#620011;fill-opacity:1;fill-rule:evenodd;stroke:none;stroke-width:1px;stroke-linecap:butt;stroke-linejoin:miter;stroke-opacity:1"
       d="M 591.03498,363.08186 L 604.52322,352.70629 L 613.86121,335.06783 L 609.71098,330.9176 L 602.44809,332.99273 L 595.1852,343.36827 L 593.11009,352.70629 L 591.03498,363.08186 z"
       id="path3308" />
    <path
       style="fill:#620011;fill-opacity:1;fill-rule:evenodd;stroke:none;stroke-width:1px;stroke-linecap:butt;stroke-linejoin:miter;stroke-opacity:1"
       d="M 621.12411,465.79995 L 630.46213,455.42438 L 636.68747,452.3117 L 650.17569,451.27415 L 655.36348,455.42438 L 655.36348,462.68727 L 648.10059,470.98774 L 643.95036,472.02529 L 634.61234,469.95016 L 621.12411,465.79995 z"
       id="path3310" />
    <path
       style="fill:#620011;fill-opacity:1;fill-rule:evenodd;stroke:none;stroke-width:1px;stroke-linecap:butt;stroke-linejoin:miter;stroke-opacity:1"
       d="M 393.89925,712.73838 L 390.78658,729.33931 L 392.86168,736.6022 L 395.97436,742.82752 L 399.08702,743.86509 L 405.31238,743.86509 L 408.42504,733.48952 L 408.42504,725.18908 L 403.23725,716.88861 L 393.89925,712.73838 z"
       id="path3312" />
    <path
       style="fill:#620011;fill-opacity:1;fill-rule:evenodd;stroke:none;stroke-width:1px;stroke-linecap:butt;stroke-linejoin:miter;stroke-opacity:1"
       d="M 262.12956,595.49451 L 247.60377,605.87008 L 240.34088,613.13297 L 239.30332,618.32075 L 240.34088,624.54609 L 248.64135,626.62118 L 259.01689,622.47097 L 265.24223,611.05785 L 262.12956,595.49451 z"
       id="path3314" />
  </g>
</svg>
