<?xml version="1.0" encoding="UTF-8" standalone="no"?>
<!-- Created with Inkscape (http://www.inkscape.org/) -->
<svg
   xmlns:dc="http://purl.org/dc/elements/1.1/"
   xmlns:cc="http://creativecommons.org/ns#"
   xmlns:rdf="http://www.w3.org/1999/02/22-rdf-syntax-ns#"
   xmlns:svg="http://www.w3.org/2000/svg"
   xmlns="http://www.w3.org/2000/svg"
   xmlns:xlink="http://www.w3.org/1999/xlink"
   xmlns:sodipodi="http://sodipodi.sourceforge.net/DTD/sodipodi-0.dtd"
   xmlns:inkscape="http://www.inkscape.org/namespaces/inkscape"
   width="82.762871"
   height="157.95149"
   id="svg2963"
   sodipodi:version="0.32"
   inkscape:version="0.46"
   version="1.0"
   sodipodi:docname="acelga.svg"
   inkscape:output_extension="org.inkscape.output.svg.inkscape">
  <defs
     id="defs2965">
    <linearGradient
       id="linearGradient5606"
       inkscape:collect="always">
      <stop
         id="stop5608"
         offset="0"
         style="stop-color:#2fb022;stop-opacity:1" />
      <stop
         id="stop5610"
         offset="1"
         style="stop-color:#2f7022;stop-opacity:0;" />
    </linearGradient>
    <linearGradient
       inkscape:collect="always"
       xlink:href="#linearGradient5606"
       id="linearGradient20718"
       gradientUnits="userSpaceOnUse"
       gradientTransform="translate(-114.93506,39.935065)"
       x1="706.98834"
       y1="526.10583"
       x2="809.57013"
       y2="311.88116" />
    <linearGradient
       inkscape:collect="always"
       id="linearGradient5148">
      <stop
         style="stop-color:#2f7022;stop-opacity:1;"
         offset="0"
         id="stop5150" />
      <stop
         style="stop-color:#2f7022;stop-opacity:0;"
         offset="1"
         id="stop5152" />
    </linearGradient>
    <linearGradient
       inkscape:collect="always"
       xlink:href="#linearGradient5148"
       id="linearGradient20716"
       gradientUnits="userSpaceOnUse"
       gradientTransform="translate(2.739726,-6.2191781)"
       x1="828.12628"
       y1="403.42465"
       x2="631.5434"
       y2="518.49316" />
    <linearGradient
       inkscape:collect="always"
       id="linearGradient4444">
      <stop
         style="stop-color:#e55c0f;stop-opacity:1;"
         offset="0"
         id="stop4446" />
      <stop
         style="stop-color:#e55c0f;stop-opacity:0;"
         offset="1"
         id="stop4448" />
    </linearGradient>
    <linearGradient
       inkscape:collect="always"
       xlink:href="#linearGradient4444"
       id="linearGradient4498"
       gradientUnits="userSpaceOnUse"
       gradientTransform="matrix(-0.6873285,-0.2029476,-0.1844514,0.7154367,727.90047,-103.31947)"
       x1="854.68817"
       y1="767.83759"
       x2="862.73108"
       y2="682.89478" />
    <linearGradient
       inkscape:collect="always"
       id="linearGradient3977">
      <stop
         style="stop-color:#3a2d49;stop-opacity:1;"
         offset="0"
         id="stop3979" />
      <stop
         style="stop-color:#3a2d49;stop-opacity:0;"
         offset="1"
         id="stop3981" />
    </linearGradient>
    <linearGradient
       inkscape:collect="always"
       xlink:href="#linearGradient3977"
       id="linearGradient4464"
       gradientUnits="userSpaceOnUse"
       gradientTransform="matrix(-0.6769034,0.622784,-0.6459267,-0.7020571,1207.2499,-108.61788)"
       x1="375.01926"
       y1="812.81995"
       x2="394.8259"
       y2="741.47198" />
    <inkscape:perspective
       sodipodi:type="inkscape:persp3d"
       inkscape:vp_x="0 : 526.18109 : 1"
       inkscape:vp_y="0 : 1000 : 0"
       inkscape:vp_z="744.09448 : 526.18109 : 1"
       inkscape:persp3d-origin="372.04724 : 350.78739 : 1"
       id="perspective2971" />
  </defs>
  <sodipodi:namedview
     id="base"
     pagecolor="#ffffff"
     bordercolor="#666666"
     borderopacity="1.0"
     inkscape:pageopacity="0.0"
     inkscape:pageshadow="2"
     inkscape:zoom="0.35"
     inkscape:cx="350"
     inkscape:cy="520"
     inkscape:document-units="px"
     inkscape:current-layer="layer1"
     showgrid="false"
     inkscape:window-width="640"
     inkscape:window-height="635"
     inkscape:window-x="378"
     inkscape:window-y="57"
     inkscape:object-paths="false" />
  <metadata
     id="metadata2968">
    <rdf:RDF>
      <cc:Work
         rdf:about="">
        <dc:format>image/svg+xml</dc:format>
        <dc:type
           rdf:resource="http://purl.org/dc/dcmitype/StillImage" />
      </cc:Work>
    </rdf:RDF>
  </metadata>
  <g
     inkscape:label="Capa 1"
     inkscape:groupmode="layer"
     id="layer1"
     transform="translate(-154.49432,-515.6822)">
    <g
       id="g5704"
       transform="matrix(-0.4516718,-0.1745021,-0.1745021,0.4516718,572.19443,485.0742)">
      <g
         id="g5706">
        <g
           id="g5708">
          <g
             id="g5710">
            <g
               id="g5712">
              <g
                 id="g5714">
                <g
                   id="g5716">
                  <g
                     id="g5718">
                    <g
                       id="g5720">
                      <g
                         id="g5722">
                        <g
                           id="g5724"
                           transform="translate(211.36364,24.350649)">
                          <g
                             id="g5726">
                            <g
                               id="g5728">
                              <g
                                 id="g5730">
                                <g
                                   id="g5732">
                                <g
                                   id="g5734">
                                <g
                                   id="g5736">
                                <g
                                   id="g5738">
                                <g
                                   id="g5740">
                                <g
                                   id="g5742">
                                <g
                                   id="g5744"
                                   transform="matrix(-0.8105814,0.585626,-0.585626,-0.8105814,1309.5093,375.12665)">
                                <g
                                   id="g5746">
                                <g
                                   id="g5748">
                                <path
                                   sodipodi:nodetypes="cczzzzzzzzzzzzzzczzzzzczc"
                                   id="path5750"
                                   d="M 891.22448,346.99273 C 860.88926,335.93718 873.10286,385.43746 768.11819,379.68011 C 756.78464,379.35092 755.11575,378.36161 751.64783,379.68011 C 748.17991,380.99861 749.94549,382.80785 745.47144,385.17023 C 740.99739,387.53261 728.69645,388.23492 720.7659,391.34662 C 712.83535,394.45832 701.8134,403.58976 693.31529,406.44445 C 684.81718,409.29914 673.87765,407.73788 665.17842,410.56205 C 656.47919,413.38622 642.50328,423.31943 636.35528,425.65988 C 630.20728,428.00033 628.98468,425.55617 625.37504,428.40494 C 621.7654,431.25371 617.0357,440.89937 616.45359,445.56157 C 615.87148,450.22377 619.77438,451.17231 619.19865,457.22808 C 618.62292,463.28385 607.57134,472.61379 607.53214,483.30615 C 607.49294,493.99851 618.42371,514.9558 624.68877,522.42327 C 630.95383,529.89074 636.04517,530.92968 643.21793,534.77604 C 650.39069,538.6224 663.4058,544.42292 672.72734,547.12881 C 682.04888,549.8347 696.40828,551.77443 704.9818,552.61893 C 713.55532,553.46343 729.68734,553.3052 729.68734,553.3052 C 729.68734,553.3052 757.87422,545.84914 764.68687,541.63869 C 771.49952,537.42824 774.36773,533.18503 776.35338,529.97218 C 778.33903,526.75933 776.4864,523.51165 779.09844,521.737 C 781.71048,519.96235 785.12836,524.94614 791.45121,522.42327 C 797.77406,519.9004 807.39667,506.02056 814.09796,498.40399 C 820.79925,490.78742 830.84807,478.3656 836.05844,471.63965 C 855.06532,453.82231 857.15803,429.06198 859.95989,414.12252 C 862.69416,399.54349 945.9316,385.7556 891.22448,346.99273 z"
                                   style="fill:#1e3621;fill-opacity:1;fill-rule:evenodd;stroke:none;stroke-width:1px;stroke-linecap:butt;stroke-linejoin:miter;stroke-opacity:1" />
                                </g>
                                <path
                                   style="fill:url(#linearGradient20716);fill-opacity:1;fill-rule:evenodd;stroke:none;stroke-width:1px;stroke-linecap:butt;stroke-linejoin:miter;stroke-opacity:1"
                                   d="M 841.4317,387.23927 C 842.75643,382.30092 832.56752,388.91136 821.54108,389.10753 C 810.51463,389.3037 778.35297,386.29795 768.08827,385.9998 C 757.82358,385.70166 756.31208,384.80565 753.17122,385.9998 C 750.03035,387.19396 751.62942,388.83257 747.57732,390.97216 C 743.52521,393.11174 732.38436,393.74782 725.20173,396.56606 C 718.01911,399.3843 708.03662,407.65456 700.33996,410.24003 C 692.6433,412.82549 682.73547,411.41147 674.85665,413.9693 C 666.97784,416.52712 654.31999,425.52354 648.7518,427.64327 C 643.18361,429.76299 642.07631,427.54934 638.80709,430.12944 C 635.53787,432.70955 631.25423,441.44553 630.72702,445.66805 C 630.1998,449.89056 633.73463,450.74964 633.21319,456.2343 C 632.69176,461.71896 622.68244,470.169 622.64694,479.85297 C 622.61144,489.53695 632.51134,508.51777 638.18554,515.28099 C 643.85975,522.04421 648.47093,522.98517 654.96724,526.46879 C 661.46354,529.9524 673.25121,535.20588 681.69364,537.65658 C 690.13608,540.10728 703.14126,541.86407 710.90622,542.62893 C 718.67118,543.39379 733.2818,543.25048 733.2818,543.25048 C 733.2818,543.25048 758.8104,536.49759 764.98056,532.68423 C 771.15071,528.87086 773.74843,525.02782 775.54681,522.11797 C 777.3452,519.20812 775.66729,516.26673 778.03299,514.65945 C 780.39869,513.05216 783.49423,517.56593 789.22078,515.28099 C 794.94733,512.99605 803.66244,500.42521 809.73174,493.52695 C 815.80103,486.62869 824.90216,475.37836 829.62114,469.28673 C 834.34013,463.1951 838.8404,456.33698 841.43048,453.12658 C 844.02057,449.91617 843.76511,454.315 846.40284,447.53267 C 849.04056,440.75034 857.40887,413.14593 847.02559,406.50714 C 836.64231,399.86835 817.97994,425.34694 809.95779,424.33244 C 801.93563,423.31794 799.76245,425.56212 800.18477,416.10363 C 800.60708,406.64515 839.95115,392.7585 841.4317,387.23927 z"
                                   id="path5752"
                                   sodipodi:nodetypes="czzzzzzzzzzzzzzzzczzzzzzzzzzzz" />
                                </g>
                                </g>
                                </g>
                                </g>
                                </g>
                                </g>
                                </g>
                                </g>
                              </g>
                            </g>
                          </g>
                        </g>
                      </g>
                    </g>
                  </g>
                </g>
              </g>
            </g>
          </g>
        </g>
      </g>
      <path
         sodipodi:nodetypes="czzzzzzzzzzzzzzzzczzzzzzzzzzzz"
         id="path5754"
         d="M 613.57715,575.61147 C 615.39538,580.3902 619.78307,569.06501 628.60602,562.44863 C 637.42897,555.83224 665.25886,539.43394 673.75384,533.66434 C 682.24881,527.89474 683.99873,527.73585 685.84532,524.92853 C 687.69192,522.12119 685.43613,521.72942 687.46769,517.62209 C 689.49926,513.51477 698.15732,506.4748 702.329,499.98405 C 706.50066,493.49331 709.749,480.94359 714.47365,474.34049 C 719.19831,467.7374 728.0575,463.08129 732.94599,456.39392 C 737.83448,449.70657 742.82616,435.00147 746.09826,430.02238 C 749.37037,425.0433 751.5643,426.18918 752.7033,422.18325 C 753.84229,418.17733 752.19851,408.58749 750.15304,404.85605 C 748.10758,401.12461 744.73921,402.49834 741.94992,397.74721 C 739.16062,392.99608 742.32543,380.28492 736.68302,372.41448 C 731.04061,364.54404 711.90027,354.95618 703.34015,352.797 C 694.78002,350.63782 690.49124,352.57552 683.18535,353.55617 C 675.87948,354.53683 663.24804,357.18162 654.96957,360.13923 C 646.69109,363.09685 635.12051,369.289 628.37846,373.21639 C 621.6364,377.14377 609.87723,385.81629 609.87723,385.81629 C 609.87723,385.81629 593.13889,406.24027 590.37068,412.94471 C 587.60248,419.64916 587.7474,424.28555 587.99375,427.6974 C 588.24009,431.10925 591.32273,432.51086 590.3464,435.19911 C 589.37008,437.88736 584.21751,436.04141 580.9138,441.24716 C 577.61008,446.45291 577.90759,461.74639 577.02772,470.89233 C 576.14787,480.03827 575.35915,494.48743 575.10145,502.18875 C 574.84374,509.89008 575.2122,518.08462 574.99282,522.20373 C 574.77344,526.32285 572.40444,522.60763 574.23826,529.64999 C 576.07208,536.69234 585.45474,563.96866 597.75909,563.26922 C 610.06343,562.56978 610.26987,530.98814 617.3666,527.11249 C 624.46333,523.23684 624.91062,520.14508 630.10743,528.05928 C 635.30424,535.97346 611.54506,570.27063 613.57715,575.61147 z"
         style="fill:url(#linearGradient20718);fill-opacity:1;fill-rule:evenodd;stroke:none;stroke-width:1px;stroke-linecap:butt;stroke-linejoin:miter;stroke-opacity:1" />
      <path
         style="fill:#fbeee6;fill-opacity:1;fill-rule:evenodd;stroke:none;stroke-width:1px;stroke-linecap:butt;stroke-linejoin:miter;stroke-opacity:1"
         d="M 624.57133,550.52463 C 624.57133,550.52463 657.17138,534.59247 656.05584,531.97266 C 654.59833,528.54976 626.77062,543.83936 626.77062,543.83936 L 633.4165,535.37538 C 633.4165,535.37538 657.52388,521.3011 666.15836,515.11278 C 674.79284,508.92446 693.25425,496.98983 691.09176,494.55452 C 689.26752,492.50013 665.52854,512.50592 656.15912,517.68207 C 646.7897,522.85821 629.81124,530.38524 629.81124,530.38524 L 639.22762,517.64502 C 639.22762,517.64502 717.5546,469.31679 715.20627,466.99302 C 711.98568,463.80614 637.52385,512.93886 637.52385,512.93886 L 644.9135,491.52359 L 669.6213,460.14083 C 669.6213,460.14083 686.20096,462.90213 696.1134,460.46996 C 706.02584,458.03779 735.03412,446.11822 732.70186,440.78236 C 732.08068,439.3612 703.88189,455.18685 694.25497,456.7237 C 684.62804,458.26054 670.95186,454.93875 670.95186,454.93875 L 683.92791,435.38598 C 683.92791,435.38598 739.14306,385.0805 737.74333,382.1255 C 736.12776,378.71484 681.93387,430.43685 682.87374,431.90681 C 682.9314,431.99697 680.59966,416.16732 681.83689,407.91947 C 683.07412,399.67163 693.19146,379.379 693.19146,379.379 C 693.19146,379.379 709.19212,356.31575 708.14341,355.24291 C 706.65739,353.72269 694.00061,369.02186 688.81471,377.68901 C 683.62881,386.35616 676.2148,403.22066 675.26564,412.88404 C 674.31649,422.54743 678.48379,428.92879 677.86629,434.91327 C 677.24904,440.89541 655.73558,466.14916 655.73558,466.14916 L 650.36809,451.93365 C 648.15536,446.07339 647.90468,455.74927 651.59121,471.47083 L 631.8122,502.68529 L 647.5944,443.99332 L 650.45187,435.68451 C 650.45187,435.68451 649.92674,437.70832 651.40198,434.14553 C 652.87722,430.58273 654.71276,419.78077 657.31305,410.58755 C 659.91334,401.39432 668.74233,374.83225 668.74233,374.83225 C 668.74233,374.83225 682.21551,354.56561 680.60269,354.17107 C 678.28864,353.60499 668.48866,369.51243 668.48866,369.51243 L 659.23651,396.5141 L 649.53728,379.59472 C 649.53728,379.59472 648.57648,363.60272 647.15774,363.65889 C 645.02556,363.7433 647.20823,385.7352 647.20823,385.7352 L 656.14082,400.44697 L 651.78551,421.36632 L 642.11158,417.36802 C 642.11158,417.36802 636.72351,392.51762 634.16828,393.45994 C 631.00403,394.62685 639.32521,419.38111 639.32521,419.38111 L 649.2471,424.89658 C 649.2471,424.89658 640.41089,452.486 640.37224,452.47382 C 639.64391,452.24428 632.49195,436.28463 629.02139,426.82538 C 625.55084,417.36612 622.0875,389.73165 619.54023,389.64825 C 617.3747,389.57735 622.33486,423.16983 625.74164,433.39715 C 629.14841,443.62447 639.04461,455.12066 639.06701,457.6576 C 639.07315,458.35248 633.87395,478.51795 631.93643,478.8857 C 629.31933,479.38243 624.75118,471.22151 622.31274,473.15479 C 618.59938,476.09889 630.99738,486.34939 630.99738,486.34939 C 630.99738,486.34939 628.00945,501.1021 627.41535,502.46928 C 626.6936,504.13022 622.3032,493.5443 619.72256,495.34334 C 616.77519,497.39805 624.31966,506.40215 624.31966,506.40215 L 617.39399,524.93775 L 616.46966,484.97113 C 616.46966,484.97113 616.32924,459.30409 614.30809,452.68366 C 612.28694,446.06322 609.73789,435.27402 609.73789,435.27402 L 607.16044,414.66878 C 607.16044,414.66878 604.38113,407.81044 602.17437,408.94138 C 599.96761,410.07231 604.21941,417.64176 604.21941,417.64176 C 604.21941,417.64176 607.1313,439.11724 604.26094,438.77712 C 601.78521,438.48377 595.1746,423.91085 591.48877,423.44672 C 587.80295,422.98259 586.84743,422.28944 589.54624,425.48131 C 592.58237,429.07213 603.64231,442.61669 603.64231,442.61669 C 603.64231,442.61669 608.77893,450.2135 611.22605,462.50522 C 613.67317,474.79693 613.01544,524.74707 613.01544,524.74707 L 613.89568,528.31335 L 611.43977,533.10586 C 611.43977,533.10586 604.68826,506.50823 601.38626,498.41301 C 598.08426,490.31779 594.89504,478.86012 590.90551,478.88264 C 586.48959,478.90757 598.19824,500.0606 600.24327,509.41667 C 602.28831,518.77274 604.49479,541.0487 604.49479,541.0487 L 572.82188,609.57155 C 572.82188,609.57155 565.64899,631.91199 571.99294,637.67553 C 578.33689,643.43907 589.70997,640.07911 595.84151,633.93816 C 601.97305,627.79721 600.8273,615.71118 604.78744,603.02648 C 608.74759,590.34178 624.57133,550.52463 624.57133,550.52463 z"
         id="path5756"
         sodipodi:nodetypes="cscczzzccsccczszcczszczzzzcscccczzczccczcccczcczzzzszsczsccczcczczzzczccczzzcczzzc" />
    </g>
  </g>
</svg>
